<?xml version="1.0" encoding="UTF-8" standalone="no"?>
<svg
   width="240"
   height="80"
   version="1.1"
   id="svg11"
   sodipodi:docname="final-scores-german.svg"
   inkscape:version="1.3.2 (091e20e, 2023-11-25)"
   xmlns:inkscape="http://www.inkscape.org/namespaces/inkscape"
   xmlns:sodipodi="http://sodipodi.sourceforge.net/DTD/sodipodi-0.dtd"
   xmlns="http://www.w3.org/2000/svg"
   xmlns:svg="http://www.w3.org/2000/svg">
  <sodipodi:namedview
     id="namedview11"
     pagecolor="#ffffff"
     bordercolor="#000000"
     borderopacity="0.25"
     inkscape:showpageshadow="2"
     inkscape:pageopacity="0.0"
     inkscape:pagecheckerboard="0"
     inkscape:deskcolor="#d1d1d1"
     inkscape:zoom="1.4958333"
     inkscape:cx="119.66574"
     inkscape:cy="40.111421"
     inkscape:window-width="1728"
     inkscape:window-height="965"
     inkscape:window-x="0"
     inkscape:window-y="38"
     inkscape:window-maximized="0"
     inkscape:current-layer="svg11" />
  <!-- Define gradients for 3D effect -->
  <defs
     id="defs7">
    <!-- Purple gradient for button body -->
    <linearGradient
       id="buttonGradient"
       x1="0%"
       y1="0%"
       x2="0%"
       y2="100%">
      <stop
         offset="0%"
         style="stop-color:#9D5FFF;stop-opacity:1"
         id="stop1" />
      <stop
         offset="50%"
         style="stop-color:#7B3FF2;stop-opacity:1"
         id="stop2" />
      <stop
         offset="100%"
         style="stop-color:#5A2DB8;stop-opacity:1"
         id="stop3" />
    </linearGradient>
    <!-- Highlight gradient for top shine -->
    <linearGradient
       id="shineGradient"
       x1="0%"
       y1="0%"
       x2="0%"
       y2="100%">
      <stop
         offset="0%"
         style="stop-color:#FFFFFF;stop-opacity:0.4"
         id="stop4" />
      <stop
         offset="50%"
         style="stop-color:#FFFFFF;stop-opacity:0"
         id="stop5" />
    </linearGradient>
    <!-- Text gradient for depth -->
    <linearGradient
       id="textGradient"
       x1="0%"
       y1="0%"
       x2="0%"
       y2="100%">
      <stop
         offset="0%"
         style="stop-color:#66FF66;stop-opacity:1"
         id="stop6" />
      <stop
         offset="100%"
         style="stop-color:#00FF41;stop-opacity:1"
         id="stop7" />
    </linearGradient>
  </defs>
  <!-- Shadow for depth -->
  <rect
     x="10"
     y="14"
     width="220"
     height="60"
     rx="18"
     ry="18"
     fill="#000000"
     opacity="0.3"
     id="rect7" />
  <!-- Outer glow border -->
  <rect
     x="6"
     y="6"
     width="228"
     height="68"
     rx="20"
     ry="20"
     fill="none"
     stroke="#FFB3FF"
     stroke-width="3"
     opacity="0.6"
     id="rect8" />
  <!-- Main bright pink border -->
  <rect
     x="10"
     y="10"
     width="220"
     height="60"
     rx="18"
     ry="18"
     fill="none"
     stroke="#FF66FF"
     stroke-width="6"
     id="rect9" />
  <!-- Main button with gradient -->
  <rect
     x="13"
     y="13"
     width="214"
     height="54"
     rx="16"
     ry="16"
     fill="url(#buttonGradient)"
     id="rect10" />
  <!-- Top shine overlay -->
  <rect
     x="13"
     y="13"
     width="214"
     height="27"
     rx="16"
     ry="16"
     fill="url(#shineGradient)"
     id="rect11" />
  <!-- Bright green text - large and perfectly centered -->
  <path
     d="M 30.264648,50.259766 V 30.216797 h 14.861329 v 3.390625 H 34.311523 v 4.443359 h 10.0625 v 3.376953 h -10.0625 v 5.455078 h 11.197266 v 3.376954 z m 31.855469,0 H 58.27832 v -7.410157 q 0,-2.351562 -0.246093,-3.035156 -0.246094,-0.697266 -0.806641,-1.080078 -0.546875,-0.382813 -1.326172,-0.382813 -0.998047,0 -1.791016,0.546875 -0.792968,0.546875 -1.09375,1.449219 -0.287109,0.902344 -0.287109,3.335938 v 6.576172 H 48.885742 V 35.740234 h 3.56836 v 2.132813 q 1.90039,-2.460938 4.785156,-2.460938 1.271484,0 2.324219,0.464844 1.052734,0.451172 1.585937,1.162109 0.546875,0.710938 0.751953,1.613282 0.21875,0.902343 0.21875,2.583984 z m 17.212891,0 h -3.56836 v -2.132813 q -0.888671,1.244141 -2.105468,1.859375 -1.203125,0.601563 -2.433594,0.601563 -2.501953,0 -4.292969,-2.009766 -1.777344,-2.023438 -1.777344,-5.632813 0,-3.691406 1.736329,-5.605468 1.736328,-1.927735 4.388671,-1.927735 2.433594,0 4.210938,2.023438 v -7.21875 h 3.841797 z M 69.079102,42.685547 q 0,2.324219 0.642578,3.363281 0.929687,1.503906 2.597656,1.503906 1.326172,0 2.255859,-1.121093 0.929688,-1.134766 0.929688,-3.376954 0,-2.501953 -0.902344,-3.595703 -0.902344,-1.107422 -2.310547,-1.107422 -1.367187,0 -2.296875,1.09375 -0.916015,1.080079 -0.916015,3.240235 z m 13.93164,-6.945313 h 3.582031 v 2.132813 q 0.697266,-1.09375 1.886719,-1.777344 1.189453,-0.683594 2.638672,-0.683594 2.529297,0 4.292969,1.982422 1.763672,1.982422 1.763672,5.523438 0,3.636718 -1.777344,5.660156 -1.777344,2.009766 -4.306641,2.009766 -1.203125,0 -2.1875,-0.478516 -0.970703,-0.478516 -2.050781,-1.640625 v 7.314453 h -3.841797 z m 3.800781,7.013672 q 0,2.447266 0.970704,3.623047 0.970703,1.162109 2.365234,1.162109 1.339844,0 2.228516,-1.066406 0.888671,-1.080078 0.888671,-3.527344 0,-2.283203 -0.916015,-3.390625 -0.916016,-1.107421 -2.269531,-1.107421 -1.408204,0 -2.337891,1.09375 -0.929688,1.080078 -0.929688,3.21289 z m 22.968747,7.50586 v -2.173829 q -0.79297,1.16211 -2.09179,1.832032 -1.28516,0.669922 -2.72071,0.669922 -1.46289,0 -2.625,-0.642579 -1.16211,-0.642578 -1.68164,-1.804687 -0.51953,-1.162109 -0.51953,-3.212891 v -9.1875 h 3.8418 v 6.671875 q 0,3.0625 0.20508,3.759766 0.21875,0.683594 0.77929,1.09375 0.56055,0.396484 1.42188,0.396484 0.98437,0 1.76367,-0.533203 0.7793,-0.546875 1.06641,-1.339844 0.28711,-0.80664 0.28711,-3.923828 v -6.125 h 3.84179 v 14.519532 z m 20.75391,0 h -3.8418 v -7.410157 q 0,-2.351562 -0.24609,-3.035156 -0.24609,-0.697266 -0.80664,-1.080078 -0.54688,-0.382813 -1.32617,-0.382813 -0.99805,0 -1.79102,0.546875 -0.79297,0.546875 -1.09375,1.449219 -0.28711,0.902344 -0.28711,3.335938 v 6.576172 h -3.8418 V 35.740234 h 3.56836 v 2.132813 q 1.90039,-2.460938 4.78516,-2.460938 1.27148,0 2.32422,0.464844 1.05273,0.451172 1.58594,1.162109 0.54687,0.710938 0.75195,1.613282 0.21875,0.902343 0.21875,2.583984 z m 3.75977,0 V 30.216797 h 3.84179 v 10.636719 l 4.49805,-5.113282 h 4.73047 l -4.96289,5.304688 5.31836,9.214844 h -4.14258 l -3.65039,-6.521485 -1.79102,1.873047 v 4.648438 z m 22.36718,-14.519532 v 3.0625 h -2.625 v 5.851563 q 0,1.777344 0.0684,2.078125 0.082,0.287109 0.3418,0.478515 0.27344,0.191407 0.65625,0.191407 0.5332,0 1.54492,-0.369141 l 0.32813,2.980469 q -1.33985,0.574219 -3.03516,0.574219 -1.03906,0 -1.87305,-0.341797 -0.83398,-0.355469 -1.23047,-0.902344 -0.38281,-0.560547 -0.5332,-1.503906 -0.12305,-0.669922 -0.12305,-2.707032 v -6.330078 h -1.76367 v -3.0625 h 1.76367 v -2.884765 l 3.85547,-2.242188 v 5.126953 z m 1.1211,14.519532 v -2.994141 l 5.4414,-6.248047 q 1.33985,-1.53125 1.98242,-2.173828 -0.66992,0.04102 -1.76367,0.05469 l -5.12695,0.02734 v -3.185547 h 12.00391 v 2.720703 l -5.55079,6.398438 -1.95507,2.119141 q 1.59961,-0.0957 1.98242,-0.0957 h 5.94726 v 3.376954 z m 18.41601,-10.089844 -3.48633,-0.628906 q 0.58789,-2.105469 2.02344,-3.117188 1.43555,-1.011719 4.26563,-1.011719 2.57031,0 3.82812,0.615235 1.25781,0.601562 1.76367,1.544922 0.51953,0.929687 0.51953,3.43164 l -0.041,4.484375 q 0,1.914063 0.17773,2.830078 0.19141,0.902344 0.69727,1.941407 h -3.80078 q -0.15039,-0.382813 -0.36914,-1.134766 -0.0957,-0.341797 -0.13672,-0.451172 -0.98438,0.957031 -2.10547,1.435547 -1.12109,0.478516 -2.39258,0.478516 -2.24219,0 -3.54101,-1.216797 -1.28516,-1.216797 -1.28516,-3.076172 0,-1.230469 0.58789,-2.1875 0.58789,-0.970703 1.64063,-1.476563 1.0664,-0.519531 3.0625,-0.902343 2.69335,-0.50586 3.73242,-0.94336 v -0.382812 q 0,-1.107422 -0.54688,-1.572266 -0.54687,-0.478516 -2.06445,-0.478516 -1.02539,0 -1.59961,0.410157 -0.57422,0.396484 -0.92969,1.408203 z m 5.14063,3.117187 q -0.73828,0.246094 -2.33789,0.587891 -1.59961,0.341797 -2.0918,0.669922 -0.75195,0.533203 -0.75195,1.353515 0,0.806641 0.60156,1.394532 0.60156,0.58789 1.53125,0.58789 1.03906,0 1.98242,-0.683593 0.69727,-0.519532 0.91602,-1.271485 0.15039,-0.492187 0.15039,-1.873047 z m 11.38867,-13.070312 v 7.36914 q 1.85937,-2.173828 4.44336,-2.173828 1.32617,0 2.39258,0.492188 1.0664,0.492187 1.59961,1.257812 0.54687,0.765625 0.73828,1.695313 0.20508,0.929687 0.20508,2.884765 v 8.517579 h -3.8418 v -7.669922 q 0,-2.283203 -0.21875,-2.898438 -0.21875,-0.615234 -0.7793,-0.970703 -0.54687,-0.369141 -1.38086,-0.369141 -0.95703,0 -1.70898,0.464844 -0.75196,0.464844 -1.10742,1.408203 -0.3418,0.929688 -0.3418,2.761719 v 7.273438 h -3.8418 V 30.216797 Z m 13.27539,20.042969 V 30.216797 h 3.8418 v 20.042969 z"
     id="text11"
     style="font-weight:bold;font-size:28px;font-family:Arial, sans-serif;dominant-baseline:middle;text-anchor:middle;fill:url(#textGradient);stroke:#004400;stroke-width:1px;stroke-linejoin:round;paint-order:stroke"
     aria-label="Endpunktzahl" />
</svg>
