<?xml version="1.0" encoding="UTF-8" standalone="no"?>
<svg
   width="240"
   height="80"
   version="1.1"
   id="svg11"
   sodipodi:docname="final-scores-english.svg"
   inkscape:version="1.3.2 (091e20e, 2023-11-25)"
   xmlns:inkscape="http://www.inkscape.org/namespaces/inkscape"
   xmlns:sodipodi="http://sodipodi.sourceforge.net/DTD/sodipodi-0.dtd"
   xmlns="http://www.w3.org/2000/svg"
   xmlns:svg="http://www.w3.org/2000/svg">
  <sodipodi:namedview
     id="namedview11"
     pagecolor="#ffffff"
     bordercolor="#000000"
     borderopacity="0.25"
     inkscape:showpageshadow="2"
     inkscape:pageopacity="0.0"
     inkscape:pagecheckerboard="0"
     inkscape:deskcolor="#d1d1d1"
     inkscape:zoom="1.4958333"
     inkscape:cx="119.66574"
     inkscape:cy="40.111421"
     inkscape:window-width="1728"
     inkscape:window-height="965"
     inkscape:window-x="0"
     inkscape:window-y="38"
     inkscape:window-maximized="0"
     inkscape:current-layer="svg11" />
  <!-- Define gradients for 3D effect -->
  <defs
     id="defs7">
    <!-- Purple gradient for button body -->
    <linearGradient
       id="buttonGradient"
       x1="0%"
       y1="0%"
       x2="0%"
       y2="100%">
      <stop
         offset="0%"
         style="stop-color:#9D5FFF;stop-opacity:1"
         id="stop1" />
      <stop
         offset="50%"
         style="stop-color:#7B3FF2;stop-opacity:1"
         id="stop2" />
      <stop
         offset="100%"
         style="stop-color:#5A2DB8;stop-opacity:1"
         id="stop3" />
    </linearGradient>
    <!-- Highlight gradient for top shine -->
    <linearGradient
       id="shineGradient"
       x1="0%"
       y1="0%"
       x2="0%"
       y2="100%">
      <stop
         offset="0%"
         style="stop-color:#FFFFFF;stop-opacity:0.4"
         id="stop4" />
      <stop
         offset="50%"
         style="stop-color:#FFFFFF;stop-opacity:0"
         id="stop5" />
    </linearGradient>
    <!-- Text gradient for depth -->
    <linearGradient
       id="textGradient"
       x1="0%"
       y1="0%"
       x2="0%"
       y2="100%">
      <stop
         offset="0%"
         style="stop-color:#66FF66;stop-opacity:1"
         id="stop6" />
      <stop
         offset="100%"
         style="stop-color:#00FF41;stop-opacity:1"
         id="stop7" />
    </linearGradient>
  </defs>
  <!-- Shadow for depth -->
  <rect
     x="10"
     y="14"
     width="220"
     height="60"
     rx="18"
     ry="18"
     fill="#000000"
     opacity="0.3"
     id="rect7" />
  <!-- Outer glow border -->
  <rect
     x="6"
     y="6"
     width="228"
     height="68"
     rx="20"
     ry="20"
     fill="none"
     stroke="#FFB3FF"
     stroke-width="3"
     opacity="0.6"
     id="rect8" />
  <!-- Main bright pink border -->
  <rect
     x="10"
     y="10"
     width="220"
     height="60"
     rx="18"
     ry="18"
     fill="none"
     stroke="#FF66FF"
     stroke-width="6"
     id="rect9" />
  <!-- Main button with gradient -->
  <rect
     x="13"
     y="13"
     width="214"
     height="54"
     rx="16"
     ry="16"
     fill="url(#buttonGradient)"
     id="rect10" />
  <!-- Top shine overlay -->
  <rect
     x="13"
     y="13"
     width="214"
     height="27"
     rx="16"
     ry="16"
     fill="url(#shineGradient)"
     id="rect11" />
  <!-- Bright green text - large and perfectly centered -->
  <path
     d="M 15.612305,52.333984 V 26.564453 H 33.27832 v 4.359375 H 20.81543 v 6.099609 h 10.757812 v 4.359375 H 20.81543 V 52.333984 Z M 37.532227,31.134766 v -4.570313 h 4.939453 v 4.570313 z m 0,21.199218 V 33.666016 h 4.939453 v 18.667968 z m 26.982421,0 h -4.939453 v -9.527343 q 0,-3.023438 -0.316406,-3.902344 -0.316406,-0.896485 -1.037109,-1.388672 -0.703125,-0.492188 -1.705078,-0.492188 -1.283204,0 -2.302735,0.703125 -1.019531,0.703125 -1.40625,1.863282 -0.36914,1.160156 -0.36914,4.289062 v 8.455078 H 47.499023 V 33.666016 h 4.587891 v 2.742187 q 2.443359,-3.164062 6.152344,-3.164062 1.634765,0 2.988281,0.597656 1.353516,0.580078 2.039063,1.49414 0.703125,0.914063 0.966796,2.074219 0.28125,1.160156 0.28125,3.322266 z M 73.21582,39.361328 68.733398,38.552734 q 0.75586,-2.707031 2.601563,-4.007812 1.845703,-1.300781 5.484375,-1.300781 3.304687,0 4.921875,0.791015 1.617187,0.773438 2.267578,1.986328 0.667969,1.195313 0.667969,4.41211 l -0.05274,5.765625 q 0,2.460937 0.228516,3.638672 0.246094,1.160156 0.896484,2.496093 h -4.886718 q -0.19336,-0.492187 -0.47461,-1.458984 -0.123047,-0.439453 -0.175781,-0.580078 -1.265625,1.230469 -2.707031,1.845703 -1.441406,0.615234 -3.076172,0.615234 -2.882813,0 -4.552734,-1.564453 -1.652344,-1.564453 -1.652344,-3.955078 0,-1.582031 0.755859,-2.8125 0.75586,-1.248047 2.109375,-1.898437 1.371094,-0.667969 3.9375,-1.160157 3.462891,-0.65039 4.798828,-1.21289 v -0.492188 q 0,-1.423828 -0.703125,-2.021484 -0.703125,-0.615235 -2.654297,-0.615235 -1.318359,0 -2.05664,0.527344 -0.738281,0.509766 -1.195313,1.810547 z m 6.609375,4.007813 q -0.949218,0.316406 -3.005859,0.755859 -2.056641,0.439453 -2.689453,0.861328 -0.966797,0.685547 -0.966797,1.740234 0,1.03711 0.773437,1.792969 0.773438,0.75586 1.96875,0.75586 1.335938,0 2.548829,-0.878907 0.896484,-0.667968 1.177734,-1.634765 0.193359,-0.632813 0.193359,-2.408203 z m 9.720703,8.964843 V 26.564453 h 4.939454 v 25.769531 z m 18.720702,-8.384765 5.0625,-0.492188 q 0.45703,2.548828 1.8457,3.744141 1.40625,1.195312 3.7793,1.195312 2.51367,0 3.7793,-1.054687 1.2832,-1.072266 1.2832,-2.496094 0,-0.914062 -0.54492,-1.546875 -0.52734,-0.650391 -1.86328,-1.125 -0.91406,-0.316406 -4.16602,-1.125 -4.18359,-1.037109 -5.87109,-2.548828 -2.37305,-2.126953 -2.37305,-5.185547 0,-1.96875 1.10742,-3.673828 1.125,-1.722656 3.2168,-2.619141 2.10938,-0.896484 5.08008,-0.896484 4.85156,0 7.29492,2.126953 2.46094,2.126953 2.58399,5.677734 l -5.20313,0.228516 q -0.33398,-1.986328 -1.44141,-2.847656 -1.08984,-0.878906 -3.28711,-0.878906 -2.26757,0 -3.55078,0.93164 -0.82617,0.597656 -0.82617,1.59961 0,0.914062 0.77344,1.564453 0.98437,0.826172 4.78125,1.722656 3.79687,0.896484 5.60742,1.863281 1.82813,0.949219 2.84766,2.619141 1.03711,1.652344 1.03711,4.095703 0,2.214844 -1.23047,4.148437 -1.23047,1.933594 -3.48047,2.882813 -2.25,0.931641 -5.60742,0.931641 -4.88672,0 -7.50586,-2.25 -2.61914,-2.267579 -3.12891,-6.591797 z m 41.57227,-4.763672 -4.86914,0.878906 q -0.2461,-1.458984 -1.125,-2.197266 -0.86133,-0.738281 -2.25,-0.738281 -1.84571,0 -2.95313,1.283203 -1.08984,1.265625 -1.08984,4.253907 0,3.322265 1.10742,4.693359 1.125,1.371094 3.00586,1.371094 1.40625,0 2.30273,-0.791016 0.89649,-0.808594 1.26563,-2.759766 l 4.85156,0.826172 q -0.75586,3.339844 -2.90039,5.044922 -2.14453,1.705078 -5.74805,1.705078 -4.0957,0 -6.53906,-2.583984 -2.42578,-2.583984 -2.42578,-7.154297 0,-4.623047 2.44336,-7.189453 2.44336,-2.583984 6.60937,-2.583984 3.41016,0 5.41407,1.476562 2.02148,1.458984 2.90039,4.464844 z m 2.60156,3.550781 q 0,-2.460937 1.21289,-4.763672 1.21289,-2.302734 3.42773,-3.515625 2.23243,-1.21289 4.97461,-1.21289 4.23633,0 6.94336,2.759765 2.70703,2.742188 2.70703,6.94336 0,4.236328 -2.74218,7.03125 -2.72461,2.777343 -6.87305,2.777343 -2.56641,0 -4.9043,-1.160156 -2.32031,-1.160156 -3.5332,-3.392578 -1.21289,-2.25 -1.21289,-5.466797 z M 157.50293,43 q 0,2.777344 1.31836,4.253906 1.31836,1.476563 3.25195,1.476563 1.9336,0 3.23438,-1.476563 1.31836,-1.476562 1.31836,-4.289062 0,-2.742188 -1.31836,-4.21875 -1.30078,-1.476563 -3.23438,-1.476563 -1.93359,0 -3.25195,1.476563 Q 157.50293,40.222656 157.50293,43 Z m 22.79883,9.333984 H 175.3623 V 33.666016 h 4.5879 v 2.654296 q 1.17773,-1.880859 2.10937,-2.478515 0.94922,-0.597656 2.14453,-0.597656 1.6875,0 3.25195,0.93164 l -1.52929,4.306641 q -1.24805,-0.808594 -2.32031,-0.808594 -1.03711,0 -1.75782,0.580078 -0.7207,0.5625 -1.14258,2.056641 -0.40429,1.49414 -0.40429,6.257812 z m 20.09179,-5.941406 4.92188,0.826172 q -0.94922,2.707031 -3.00586,4.130859 -2.03906,1.40625 -5.11523,1.40625 -4.86914,0 -7.20704,-3.18164 -1.8457,-2.548828 -1.8457,-6.433594 0,-4.640625 2.42578,-7.259766 2.42578,-2.636718 6.13477,-2.636718 4.16601,0 6.57422,2.759765 2.4082,2.742188 2.30273,8.419922 h -12.375 q 0.0527,2.197266 1.19531,3.427734 1.14258,1.212891 2.84766,1.212891 1.16016,0 1.95117,-0.632812 0.79102,-0.632813 1.19531,-2.039063 z m 0.28125,-4.992187 q -0.0527,-2.144532 -1.10742,-3.251954 -1.05468,-1.125 -2.5664,-1.125 -1.61719,0 -2.67188,1.177735 -1.05469,1.177734 -1.03711,3.199219 z m 7.18946,5.607421 4.95703,-0.755859 q 0.31641,1.441406 1.2832,2.197266 0.9668,0.738281 2.70703,0.738281 1.91602,0 2.88282,-0.703125 0.65039,-0.492188 0.65039,-1.318359 0,-0.5625 -0.35157,-0.931641 -0.36914,-0.351563 -1.65234,-0.650391 -5.97656,-1.318359 -7.57617,-2.408203 -2.21485,-1.511719 -2.21485,-4.201172 0,-2.425781 1.91602,-4.078125 1.91602,-1.652343 5.94141,-1.652343 3.83203,0 5.69531,1.248046 1.86328,1.248047 2.56641,3.691407 l -4.65821,0.861328 q -0.29883,-1.089844 -1.14258,-1.669922 -0.82617,-0.580078 -2.37304,-0.580078 -1.95117,0 -2.79492,0.544922 -0.5625,0.386718 -0.5625,1.001953 0,0.527344 0.49218,0.896484 0.66797,0.492188 4.60547,1.388672 3.95508,0.896484 5.51953,2.197266 1.54688,1.318359 1.54688,3.673828 0,2.566406 -2.14453,4.412109 -2.14453,1.845703 -6.34571,1.845703 -3.81445,0 -6.04687,-1.546875 -2.21485,-1.546875 -2.90039,-4.201172 z"
     id="text11"
     style="font-weight:bold;font-size:36px;font-family:Arial, sans-serif;dominant-baseline:middle;text-anchor:middle;fill:url(#textGradient);stroke:#004400;stroke-width:1px;stroke-linejoin:round;paint-order:stroke"
     aria-label="Final Scores" />
</svg>
