<?xml version="1.0" encoding="UTF-8" standalone="no"?>
<!-- Created with Inkscape (http://www.inkscape.org/) -->

<svg
   id="svg2"
   sodipodi:docname="glossy-green-button-with-blue-circular-arrow.svg"
   viewBox="0 0 549.41 549.41"
   version="1.1"
   inkscape:version="1.3.2 (091e20e, 2023-11-25)"
   xmlns:inkscape="http://www.inkscape.org/namespaces/inkscape"
   xmlns:sodipodi="http://sodipodi.sourceforge.net/DTD/sodipodi-0.dtd"
   xmlns:xlink="http://www.w3.org/1999/xlink"
   xmlns="http://www.w3.org/2000/svg"
   xmlns:svg="http://www.w3.org/2000/svg"
   xmlns:rdf="http://www.w3.org/1999/02/22-rdf-syntax-ns#"
   xmlns:cc="http://creativecommons.org/ns#"
   xmlns:dc="http://purl.org/dc/elements/1.1/">
  <defs
     id="defs4">
    <linearGradient
       id="linearGradient3852"
       inkscape:collect="always">
      <stop
         id="stop3854"
         style="stop-color:#dbe3db"
         offset="0" />
      <stop
         id="stop3856"
         style="stop-color:#dbe3db;stop-opacity:0"
         offset="1" />
    </linearGradient>
    <linearGradient
       id="linearGradient3858"
       y2="360.92"
       xlink:href="#linearGradient3852"
       gradientUnits="userSpaceOnUse"
       x2="405.75"
       y1="118.06"
       x1="405.26"
       inkscape:collect="always" />
    <linearGradient
       id="linearGradient3864"
       y2="566.64"
       xlink:href="#linearGradient3852"
       gradientUnits="userSpaceOnUse"
       x2="345.75"
       y1="646.64"
       x1="339.55"
       inkscape:collect="always" />
    <filter
       id="filter3874"
       inkscape:collect="always"
       color-interpolation-filters="sRGB"
       x="-0.078201467"
       y="-0.078201467"
       width="1.1564029"
       height="1.1564029">
      <feGaussianBlur
         id="feGaussianBlur3876"
         stdDeviation="13.735156"
         inkscape:collect="always" />
    </filter>
    <clipPath
       id="clipPath3882"
       clipPathUnits="userSpaceOnUse">
      <path
         id="path3884"
         style="color:#000000;fill:none"
         sodipodi:type="inkscape:offset"
         d="m243.75 106.22c-70.168 0-127.03 56.863-127.03 127.03v295.34c0 70.168 56.863 127.03 127.03 127.03h295.34c70.168 0 127.03-56.863 127.03-127.03v-295.34c0-70.168-56.863-127.03-127.03-127.03h-295.34z"
         inkscape:original="M 243.75 118.0625 C 179.93919 118.0625 128.5625 169.43919 128.5625 233.25 L 128.5625 528.59375 C 128.5625 592.40456 179.93919 643.78125 243.75 643.78125 L 539.09375 643.78125 C 602.90456 643.78125 654.28125 592.40456 654.28125 528.59375 L 654.28125 233.25 C 654.28125 169.43919 602.90456 118.0625 539.09375 118.0625 L 243.75 118.0625 z "
         inkscape:radius="11.844458" />
    </clipPath>
  </defs>
  <sodipodi:namedview
     id="base"
     fit-margin-left="0"
     inkscape:zoom="0.35"
     borderopacity="1.0"
     inkscape:current-layer="layer1"
     inkscape:cx="331.42857"
     inkscape:cy="345.71429"
     inkscape:window-maximized="0"
     showgrid="false"
     fit-margin-right="0"
     inkscape:guide-bbox="true"
     showguides="true"
     bordercolor="#666666"
     inkscape:window-x="0"
     inkscape:window-y="38"
     fit-margin-bottom="0"
     inkscape:window-width="1728"
     inkscape:pageopacity="0.0"
     inkscape:pageshadow="2"
     pagecolor="#ffffff"
     inkscape:document-units="px"
     inkscape:window-height="965"
     fit-margin-top="0"
     inkscape:showpageshadow="2"
     inkscape:pagecheckerboard="0"
     inkscape:deskcolor="#d1d1d1" />
  <g
     id="layer1"
     inkscape:label="Calque 1"
     inkscape:groupmode="layer"
     transform="translate(-116.72 -106.22)">
    <path
       id="path3075"
       style="color:#000000;fill:#00ccff"
       sodipodi:type="inkscape:offset"
       d="m243.75 175.22c-33.139 0-58.031 24.892-58.031 58.031v295.34c0 33.139 24.892 58.031 58.031 58.031h295.34c33.139 0 58.031-24.892 58.031-58.031v-295.34c0-33.139-24.892-58.031-58.031-58.031h-295.34z"
       xlink:href="#rect3071"
       inkscape:original="M 243.75 118.0625 C 179.93919 118.0625 128.5625 169.43919 128.5625 233.25 L 128.5625 528.59375 C 128.5625 592.40456 179.93919 643.78125 243.75 643.78125 L 539.09375 643.78125 C 602.90456 643.78125 654.28125 592.40456 654.28125 528.59375 L 654.28125 233.25 C 654.28125 169.43919 602.90456 118.0625 539.09375 118.0625 L 243.75 118.0625 z "
       inkscape:href="#rect3071"
       inkscape:radius="-57.142857" />
    <path
       id="path3077"
       style="color:#000000;fill:#00aa44"
       sodipodi:type="inkscape:offset"
       d="m243.75 106.22c-70.168 0-127.03 56.863-127.03 127.03v295.34c0 70.168 56.863 127.03 127.03 127.03h295.34c70.168 0 127.03-56.863 127.03-127.03v-295.34c0-70.168-56.863-127.03-127.03-127.03h-295.34z"
       inkscape:original="M 243.75 118.0625 C 179.93919 118.0625 128.5625 169.43919 128.5625 233.25 L 128.5625 528.59375 C 128.5625 592.40456 179.93919 643.78125 243.75 643.78125 L 539.09375 643.78125 C 602.90456 643.78125 654.28125 592.40456 654.28125 528.59375 L 654.28125 233.25 C 654.28125 169.43919 602.90456 118.0625 539.09375 118.0625 L 243.75 118.0625 z "
       inkscape:radius="11.844458" />
    <path
       id="path3862"
       sodipodi:nodetypes="sscssscss"
       style="color:#000000;fill:url(#linearGradient3858)"
       inkscape:connector-curvature="0"
       d="m243.75 131.91c-56.375 0-101.34 44.969-101.34 101.34v32.188c49.814 6.3619 73.267 25.778 123.31 29.781 71.429 5.7143 97.129 5.7188 162.84-17.138 65.714-22.857-14.272-62.871 197.16-54.299 4.8302 0.19582 9.593 0.25649 14.312 0.40625-4.5188-52.055-47.619-92.281-100.94-92.281z" />
    <path
       id="path3079"
       style="color:#000000;fill:url(#linearGradient3864)"
       inkscape:connector-curvature="0"
       d="m630.97 561.09c-12.826-0.0565-21.857 5.3795-65.25 19.844-77.143 25.714-200.01 34.286-211.44 20-11.429-14.286-68.571-22.853-120-14.281-29.944 4.9906-17.265 22.562-33.031 34.125 12.895 5.8929 27.283 9.1562 42.5 9.1562h295.34c44.913 0 82.6-28.543 96.062-68.656-1.4624-0.12097-2.8505-0.18161-4.1875-0.1875z" />
    <g
       id="g2"
       transform="matrix(0.37228905,0,0,0.37228905,198.31412,177.45585)">
      <path
         fill="#4040ff"
         d="m 789,217 -50,64 C 845,364 899,498 878,631 846,833 656,971 455,939 253,907 115,717 147,516 162,418 215,332 295,274 365,223 448,199 533,204 h -1 l -70,73 52,49 159,-167 v 0 L 506,0 l -49,52 75,71 v 0 C 430,118 330,148 246,209 149,280 85,384 66,503 c -39,245 130,477 375,515 24,4 47,6 70,6 218,0 410,-159 445,-381 C 982,481 917,318 787,217 Z"
         id="path1" />
    </g>
  </g>
  <g
     id="layer2"
     inkscape:label="ombre pourtour"
     inkscape:groupmode="layer"
     transform="translate(-116.72 -106.22)">
    <path
       id="path3872"
       style="color:#000000;filter:url(#filter3874);stroke:#000000;stroke-width:20;fill:none"
       sodipodi:type="inkscape:offset"
       d="m243.75 106.22c-70.168 0-127.03 56.863-127.03 127.03v295.34c0 70.168 56.863 127.03 127.03 127.03h295.34c70.168 0 127.03-56.863 127.03-127.03v-295.34c0-70.168-56.863-127.03-127.03-127.03h-295.34z"
       clip-path="url(#clipPath3882)"
       inkscape:original="M 243.75 118.0625 C 179.93919 118.0625 128.5625 169.43919 128.5625 233.25 L 128.5625 528.59375 C 128.5625 592.40456 179.93919 643.78125 243.75 643.78125 L 539.09375 643.78125 C 602.90456 643.78125 654.28125 592.40456 654.28125 528.59375 L 654.28125 233.25 C 654.28125 169.43919 602.90456 118.0625 539.09375 118.0625 L 243.75 118.0625 z "
       inkscape:radius="11.844458" />
  </g>
  <metadata
     id="metadata1">
    <rdf:RDF>
      <cc:Work>
        <dc:format>image/svg+xml</dc:format>
        <dc:type
           rdf:resource="http://purl.org/dc/dcmitype/StillImage" />
        <cc:license
           rdf:resource="http://creativecommons.org/publicdomain/zero/1.0/" />
        <dc:publisher>
          <cc:Agent
             rdf:about="http://openclipart.org/">
            <dc:title>Openclipart</dc:title>
          </cc:Agent>
        </dc:publisher>
        <dc:date>2010-11-14T15:01:43</dc:date>
        <dc:description />
        <dc:source>https://openclipart.org/detail/95509/button-by-yves_guillou-95509</dc:source>
        <dc:creator>
          <cc:Agent>
            <dc:title>yves_guillou</dc:title>
          </cc:Agent>
        </dc:creator>
        <dc:subject>
          <rdf:Bag>
            <rdf:li>button</rdf:li>
            <rdf:li>glossy</rdf:li>
          </rdf:Bag>
        </dc:subject>
      </cc:Work>
      <cc:License
         rdf:about="http://creativecommons.org/publicdomain/zero/1.0/">
        <cc:permits
           rdf:resource="http://creativecommons.org/ns#Reproduction" />
        <cc:permits
           rdf:resource="http://creativecommons.org/ns#Distribution" />
        <cc:permits
           rdf:resource="http://creativecommons.org/ns#DerivativeWorks" />
      </cc:License>
    </rdf:RDF>
  </metadata>
</svg>
