<svg xmlns="http://www.w3.org/2000/svg" viewBox="0 0 200 200" width="200" height="200"><defs><clipPath id="artboard-4311952640636814187"><rect x="0" y="0" width="200" height="200"/></clipPath></defs><g>
<rect fill="#ffffff" fill-opacity="0" x="0" y="0" width="200" height="200"/>
<g clip-path="url(#artboard-4311952640636814187)">
	<g>
		<path d="M100,5C152.419554,5 195,47.580446 195,100 C195,152.419554 152.419554,195 100,195 C47.580446,195 5,152.419554 5,100 C5,47.580446 47.580446,5 100,5 Z" fill="none" stroke="#000000" stroke-width="10"/>
	</g>
	<g>
		<path d="M100,25C141.383858,25 175,58.616142 175,100 C175,141.383858 141.383858,175 100,175 C58.616142,175 25,141.383858 25,100 C25,58.616142 58.616142,25 100,25 Z" fill="none" stroke="#000000" stroke-width="10"/>
	</g>
	<g>
		<path d="M89.6,130.449977Q89.6,130.449977 89,127.749977 Q88.4,125.049977 88.4,121.249977 Q88.4,112.849977 92,107.049977 Q95.6,101.249977 100.9,96.749977 Q106.2,92.249977 111.6,87.949977 Q117,83.649977 120.6,78.349977 Q124.2,73.049977 124.2,65.449977 Q124.2,57.649977 118.7,52.149977 Q113.2,46.649977 102.6,46.649977 Q96,46.649977 91.4,49.349977 Q86.8,52.049977 84.2,55.349977 Q81.6,58.649977 81,60.849977 Q61,50.849977 61,50.849977 Q61.8,49.449977 64.1,45.549977 Q66.4,41.649977 71.2,37.249977 Q76,32.849977 83.9,29.649977 Q91.8,26.449977 103.8,26.449977 Q117,26.449977 127,31.449977 Q137,36.449977 142.5,44.849977 Q148,53.249977 148,63.449977 Q148,74.049977 144.2,81.249977 Q140.4,88.449977 134.8,93.349977 Q129.2,98.249977 123.5,102.449977 Q117.8,106.649977 114,111.049977 Q110.2,115.449977 110.2,121.849977 Q110.2,125.049977 110.4,127.749977 Q110.6,130.449977 110.6,130.449977 Q89.6,130.449977 89.6,130.449977 C89.6,130.449977 89.6,130.449977 89.6,130.449977 ZM102,177.849977Q95.8,177.849977 91.7,173.749977 Q87.6,169.649977 87.6,163.649977 Q87.6,157.449977 91.7,153.349977 Q95.8,149.249977 102,149.249977 Q108,149.249977 112.2,153.349977 Q116.4,157.449977 116.4,163.649977 Q116.4,169.649977 112.2,173.749977 Q108,177.849977 102,177.849977 Q102,177.849977 102,177.849977 Z" fill="#ffffff" stroke="#000000" stroke-width="10"/>
	</g>
	<g>
		<path d="M100,15C146.901706,15 185,53.098294 185,100 C185,146.901706 146.901706,185 100,185 C53.098294,185 15,146.901706 15,100 C15,53.098294 53.098294,15 100,15 Z" fill="none" stroke="#ffffff" stroke-width="10"/>
	</g>
</g></g></svg>