<?xml version="1.0" encoding="UTF-8" standalone="no"?>
<svg
   width="240"
   height="80"
   version="1.1"
   id="svg11"
   sodipodi:docname="main-menu-english.svg"
   inkscape:version="1.3.2 (091e20e, 2023-11-25)"
   xmlns:inkscape="http://www.inkscape.org/namespaces/inkscape"
   xmlns:sodipodi="http://sodipodi.sourceforge.net/DTD/sodipodi-0.dtd"
   xmlns="http://www.w3.org/2000/svg"
   xmlns:svg="http://www.w3.org/2000/svg">
  <sodipodi:namedview
     id="namedview11"
     pagecolor="#ffffff"
     bordercolor="#000000"
     borderopacity="0.25"
     inkscape:showpageshadow="2"
     inkscape:pageopacity="0.0"
     inkscape:pagecheckerboard="0"
     inkscape:deskcolor="#d1d1d1"
     inkscape:zoom="1.4958333"
     inkscape:cx="119.66574"
     inkscape:cy="40.111421"
     inkscape:window-width="1312"
     inkscape:window-height="449"
     inkscape:window-x="0"
     inkscape:window-y="38"
     inkscape:window-maximized="0"
     inkscape:current-layer="svg11" />
  <!-- Define gradients for 3D effect -->
  <defs
     id="defs7">
    <!-- Purple gradient for button body -->
    <linearGradient
       id="buttonGradient"
       x1="0%"
       y1="0%"
       x2="0%"
       y2="100%">
      <stop
         offset="0%"
         style="stop-color:#9D5FFF;stop-opacity:1"
         id="stop1" />
      <stop
         offset="50%"
         style="stop-color:#7B3FF2;stop-opacity:1"
         id="stop2" />
      <stop
         offset="100%"
         style="stop-color:#5A2DB8;stop-opacity:1"
         id="stop3" />
    </linearGradient>
    <!-- Highlight gradient for top shine -->
    <linearGradient
       id="shineGradient"
       x1="0%"
       y1="0%"
       x2="0%"
       y2="100%">
      <stop
         offset="0%"
         style="stop-color:#FFFFFF;stop-opacity:0.4"
         id="stop4" />
      <stop
         offset="50%"
         style="stop-color:#FFFFFF;stop-opacity:0"
         id="stop5" />
    </linearGradient>
    <!-- Text gradient for depth -->
    <linearGradient
       id="textGradient"
       x1="0%"
       y1="0%"
       x2="0%"
       y2="100%">
      <stop
         offset="0%"
         style="stop-color:#66FF66;stop-opacity:1"
         id="stop6" />
      <stop
         offset="100%"
         style="stop-color:#00FF41;stop-opacity:1"
         id="stop7" />
    </linearGradient>
  </defs>
  <!-- Shadow for depth -->
  <rect
     x="10"
     y="14"
     width="220"
     height="60"
     rx="18"
     ry="18"
     fill="#000000"
     opacity="0.3"
     id="rect7" />
  <!-- Outer glow border -->
  <rect
     x="6"
     y="6"
     width="228"
     height="68"
     rx="20"
     ry="20"
     fill="none"
     stroke="#FFB3FF"
     stroke-width="3"
     opacity="0.6"
     id="rect8" />
  <!-- Main bright pink border -->
  <rect
     x="10"
     y="10"
     width="220"
     height="60"
     rx="18"
     ry="18"
     fill="none"
     stroke="#FF66FF"
     stroke-width="6"
     id="rect9" />
  <!-- Main button with gradient -->
  <rect
     x="13"
     y="13"
     width="214"
     height="54"
     rx="16"
     ry="16"
     fill="url(#buttonGradient)"
     id="rect10" />
  <!-- Top shine overlay -->
  <rect
     x="13"
     y="13"
     width="214"
     height="27"
     rx="16"
     ry="16"
     fill="url(#shineGradient)"
     id="rect11" />
  <!-- Bright green text - large and perfectly centered -->
  <path
     d="M 29.551758,52.333984 V 26.564453 h 7.787109 l 4.675781,17.578125 4.623047,-17.578125 h 7.804688 V 52.333984 H 49.608398 V 32.048828 L 44.493164,52.333984 H 39.483398 L 34.385742,32.048828 V 52.333984 Z M 63.266602,39.361328 58.78418,38.552734 q 0.755859,-2.707031 2.601562,-4.007812 1.845703,-1.300781 5.484375,-1.300781 3.304688,0 4.921875,0.791015 1.617188,0.773438 2.267578,1.986328 0.667969,1.195313 0.667969,4.41211 l -0.05273,5.765625 q 0,2.460937 0.228515,3.638672 0.246094,1.160156 0.896485,2.496093 H 70.913086 Q 70.719727,51.841797 70.438477,50.875 70.31543,50.435547 70.262695,50.294922 q -1.265625,1.230469 -2.707031,1.845703 -1.441406,0.615234 -3.076172,0.615234 -2.882812,0 -4.552734,-1.564453 -1.652344,-1.564453 -1.652344,-3.955078 0,-1.582031 0.755859,-2.8125 0.75586,-1.248047 2.109375,-1.898437 1.371094,-0.667969 3.9375,-1.160157 3.462891,-0.65039 4.798829,-1.21289 v -0.492188 q 0,-1.423828 -0.703125,-2.021484 -0.703125,-0.615235 -2.654297,-0.615235 -1.31836,0 -2.056641,0.527344 -0.738281,0.509766 -1.195312,1.810547 z m 6.609375,4.007813 q -0.949219,0.316406 -3.00586,0.755859 -2.05664,0.439453 -2.689453,0.861328 -0.966797,0.685547 -0.966797,1.740234 0,1.03711 0.773438,1.792969 0.773437,0.75586 1.96875,0.75586 1.335937,0 2.548828,-0.878907 0.896484,-0.667968 1.177734,-1.634765 0.19336,-0.632813 0.19336,-2.408203 z M 79.59668,31.134766 v -4.570313 h 4.939453 v 4.570313 z m 0,21.199218 V 33.666016 h 4.939453 v 18.667968 z m 26.98242,0 h -4.93945 v -9.527343 q 0,-3.023438 -0.31641,-3.902344 -0.3164,-0.896485 -1.03711,-1.388672 -0.703122,-0.492188 -1.705075,-0.492188 -1.283203,0 -2.302735,0.703125 -1.019531,0.703125 -1.40625,1.863282 -0.36914,1.160156 -0.36914,4.289062 v 8.455078 H 89.563477 V 33.666016 h 4.58789 v 2.742187 q 2.44336,-3.164062 6.152343,-3.164062 1.63477,0 2.98828,0.597656 1.35352,0.580078 2.03906,1.49414 0.70313,0.914063 0.9668,2.074219 0.28125,1.160156 0.28125,3.322266 z m 14.97656,0 V 26.564453 h 7.78711 l 4.67578,17.578125 4.62305,-17.578125 h 7.80469 V 52.333984 H 141.6123 V 32.048828 l -5.11523,20.285156 h -5.00977 l -5.09765,-20.285156 v 20.285156 z m 40.83399,-5.941406 4.92187,0.826172 q -0.94922,2.707031 -3.00586,4.130859 -2.03906,1.40625 -5.11523,1.40625 -4.86914,0 -7.20703,-3.18164 -1.8457,-2.548828 -1.8457,-6.433594 0,-4.640625 2.42578,-7.259766 2.42578,-2.636718 6.13476,-2.636718 4.16602,0 6.57422,2.759765 2.4082,2.742188 2.30274,8.419922 h -12.375 q 0.0527,2.197266 1.19531,3.427734 1.14258,1.212891 2.84765,1.212891 1.16016,0 1.95118,-0.632812 0.79101,-0.632813 1.19531,-2.039063 z m 0.28125,-4.992187 q -0.0527,-2.144532 -1.10742,-3.251954 -1.05469,-1.125 -2.56641,-1.125 -1.61719,0 -2.67187,1.177735 -1.05469,1.177734 -1.03711,3.199219 z m 25.91015,10.933593 h -4.93945 v -9.527343 q 0,-3.023438 -0.3164,-3.902344 -0.31641,-0.896485 -1.03711,-1.388672 -0.70313,-0.492188 -1.70508,-0.492188 -1.28321,0 -2.30274,0.703125 -1.01953,0.703125 -1.40625,1.863282 -0.36914,1.160156 -0.36914,4.289062 v 8.455078 h -4.93945 V 33.666016 h 4.58789 v 2.742187 q 2.44336,-3.164062 6.15234,-3.164062 1.63477,0 2.98829,0.597656 1.35351,0.580078 2.03906,1.49414 0.70312,0.914063 0.96679,2.074219 0.28125,1.160156 0.28125,3.322266 z m 17.29688,0 v -2.794922 q -1.01953,1.494141 -2.68945,2.355469 -1.65235,0.861328 -3.49805,0.861328 -1.88086,0 -3.375,-0.826172 -1.49414,-0.826171 -2.16211,-2.320312 -0.66797,-1.494141 -0.66797,-4.130859 v -11.8125 h 4.93945 v 8.578125 q 0,3.9375 0.26368,4.833984 0.28125,0.878906 1.00195,1.40625 0.7207,0.509766 1.82812,0.509766 1.26563,0 2.26758,-0.685547 1.00196,-0.703125 1.3711,-1.722657 0.36914,-1.037109 0.36914,-5.044921 v -7.875 h 4.93945 v 18.667968 z"
     id="text11"
     style="font-weight:bold;font-size:36px;font-family:Arial, sans-serif;dominant-baseline:middle;text-anchor:middle;fill:url(#textGradient);stroke:#004400;stroke-width:1px;stroke-linejoin:round;paint-order:stroke"
     aria-label="Main Menu" />
</svg>
