<?xml version="1.0" encoding="UTF-8" standalone="no"?>
<svg
   width="240"
   height="80"
   version="1.1"
   id="svg11"
   sodipodi:docname="main-menu-german.svg"
   inkscape:version="1.3.2 (091e20e, 2023-11-25)"
   xmlns:inkscape="http://www.inkscape.org/namespaces/inkscape"
   xmlns:sodipodi="http://sodipodi.sourceforge.net/DTD/sodipodi-0.dtd"
   xmlns="http://www.w3.org/2000/svg"
   xmlns:svg="http://www.w3.org/2000/svg">
  <sodipodi:namedview
     id="namedview11"
     pagecolor="#ffffff"
     bordercolor="#000000"
     borderopacity="0.25"
     inkscape:showpageshadow="2"
     inkscape:pageopacity="0.0"
     inkscape:pagecheckerboard="0"
     inkscape:deskcolor="#d1d1d1"
     inkscape:zoom="1.4958333"
     inkscape:cx="119.66574"
     inkscape:cy="40.111421"
     inkscape:window-width="1312"
     inkscape:window-height="449"
     inkscape:window-x="0"
     inkscape:window-y="38"
     inkscape:window-maximized="0"
     inkscape:current-layer="svg11" />
  <!-- Define gradients for 3D effect -->
  <defs
     id="defs7">
    <!-- Purple gradient for button body -->
    <linearGradient
       id="buttonGradient"
       x1="0%"
       y1="0%"
       x2="0%"
       y2="100%">
      <stop
         offset="0%"
         style="stop-color:#9D5FFF;stop-opacity:1"
         id="stop1" />
      <stop
         offset="50%"
         style="stop-color:#7B3FF2;stop-opacity:1"
         id="stop2" />
      <stop
         offset="100%"
         style="stop-color:#5A2DB8;stop-opacity:1"
         id="stop3" />
    </linearGradient>
    <!-- Highlight gradient for top shine -->
    <linearGradient
       id="shineGradient"
       x1="0%"
       y1="0%"
       x2="0%"
       y2="100%">
      <stop
         offset="0%"
         style="stop-color:#FFFFFF;stop-opacity:0.4"
         id="stop4" />
      <stop
         offset="50%"
         style="stop-color:#FFFFFF;stop-opacity:0"
         id="stop5" />
    </linearGradient>
    <!-- Text gradient for depth -->
    <linearGradient
       id="textGradient"
       x1="0%"
       y1="0%"
       x2="0%"
       y2="100%">
      <stop
         offset="0%"
         style="stop-color:#66FF66;stop-opacity:1"
         id="stop6" />
      <stop
         offset="100%"
         style="stop-color:#00FF41;stop-opacity:1"
         id="stop7" />
    </linearGradient>
  </defs>
  <!-- Shadow for depth -->
  <rect
     x="10"
     y="14"
     width="220"
     height="60"
     rx="18"
     ry="18"
     fill="#000000"
     opacity="0.3"
     id="rect7" />
  <!-- Outer glow border -->
  <rect
     x="6"
     y="6"
     width="228"
     height="68"
     rx="20"
     ry="20"
     fill="none"
     stroke="#FFB3FF"
     stroke-width="3"
     opacity="0.6"
     id="rect8" />
  <!-- Main bright pink border -->
  <rect
     x="10"
     y="10"
     width="220"
     height="60"
     rx="18"
     ry="18"
     fill="none"
     stroke="#FF66FF"
     stroke-width="6"
     id="rect9" />
  <!-- Main button with gradient -->
  <rect
     x="13"
     y="13"
     width="214"
     height="54"
     rx="16"
     ry="16"
     fill="url(#buttonGradient)"
     id="rect10" />
  <!-- Top shine overlay -->
  <rect
     x="13"
     y="13"
     width="214"
     height="27"
     rx="16"
     ry="16"
     fill="url(#shineGradient)"
     id="rect11" />
  <!-- Bright green text - large and perfectly centered -->
  <path
     d="m 34.34375,51.296875 v -22.90625 h 4.625 v 9.015625 h 9.0625 v -9.015625 h 4.625 v 22.90625 h -4.625 V 41.28125 h -9.0625 v 10.015625 z m 26.34375,-11.53125 -3.984375,-0.71875 q 0.671875,-2.40625 2.3125,-3.5625 1.640625,-1.15625 4.875,-1.15625 2.9375,0 4.375,0.703125 1.4375,0.6875 2.015625,1.765625 0.59375,1.0625 0.59375,3.921875 l -0.04687,5.125 q 0,2.1875 0.203125,3.234375 0.21875,1.03125 0.796875,2.21875 h -4.34375 Q 67.3125,50.859375 67.0625,50 66.953125,49.609375 66.90625,49.484375 65.78125,50.578125 64.5,51.125 q -1.28125,0.546875 -2.734375,0.546875 -2.5625,0 -4.046875,-1.390625 Q 56.25,48.890625 56.25,46.765625 q 0,-1.40625 0.671875,-2.5 0.671875,-1.109375 1.875,-1.6875 1.21875,-0.59375 3.5,-1.03125 Q 65.375,40.96875 66.5625,40.46875 v -0.4375 q 0,-1.265625 -0.625,-1.796875 -0.625,-0.546875 -2.359375,-0.546875 -1.171875,0 -1.828125,0.46875 -0.65625,0.453125 -1.0625,1.609375 z m 5.875,3.5625 Q 65.71875,43.609375 63.890625,44 62.0625,44.390625 61.5,44.765625 60.640625,45.375 60.640625,46.3125 q 0,0.921875 0.6875,1.59375 0.6875,0.671875 1.75,0.671875 1.1875,0 2.265625,-0.78125 0.796875,-0.59375 1.046875,-1.453125 0.171875,-0.5625 0.171875,-2.140625 z m 19.5625,7.96875 V 48.8125 q -0.90625,1.328125 -2.390625,2.09375 -1.46875,0.765625 -3.109375,0.765625 -1.671875,0 -3,-0.734375 -1.328125,-0.734375 -1.921875,-2.0625 -0.59375,-1.328125 -0.59375,-3.671875 v -10.5 H 79.5 v 7.625 q 0,3.5 0.234375,4.296875 0.25,0.78125 0.890625,1.25 0.640625,0.453125 1.625,0.453125 1.125,0 2.015625,-0.609375 0.890625,-0.625 1.21875,-1.53125 0.328125,-0.921875 0.328125,-4.484375 v -7 h 4.390625 v 16.59375 z m 8.5,-16.59375 h 4.09375 v 2.4375 q 0.796875,-1.25 2.15625,-2.03125 1.35938,-0.78125 3.01563,-0.78125 2.89062,0 4.90625,2.265625 2.01562,2.265625 2.01562,6.3125 0,4.15625 -2.03125,6.46875 -2.03125,2.296875 -4.92187,2.296875 -1.375,0 -2.5,-0.546875 Q 100.25,50.578125 99.015625,49.25 v 8.359375 H 94.625 Z m 4.34375,8.015625 q 0,2.796875 1.10938,4.140625 1.10937,1.328125 2.70312,1.328125 1.53125,0 2.54688,-1.21875 1.01562,-1.234375 1.01562,-4.03125 0,-2.609375 -1.04687,-3.875 -1.04688,-1.265625 -2.59375,-1.265625 -1.60938,0 -2.67188,1.25 -1.0625,1.234375 -1.0625,3.671875 z m 22.9375,-8.015625 v 3.5 h -3 v 6.6875 q 0,2.03125 0.0781,2.375 0.0937,0.328125 0.39062,0.546875 0.3125,0.21875 0.75,0.21875 0.60938,0 1.76563,-0.421875 l 0.375,3.40625 q -1.53125,0.65625 -3.46875,0.65625 -1.1875,0 -2.14063,-0.390625 Q 115.70313,50.875 115.25,50.25 114.8125,49.609375 114.64063,48.53125 114.5,47.765625 114.5,45.4375 v -7.234375 h -2.01562 v -3.5 H 114.5 V 31.40625 l 4.40625,-2.5625 v 5.859375 z m 2.71875,0 h 4.04687 v 2.265625 q 2.17188,-2.640625 5.17188,-2.640625 1.59375,0 2.76562,0.65625 1.17188,0.65625 1.92188,1.984375 1.09375,-1.328125 2.35937,-1.984375 1.26563,-0.65625 2.70313,-0.65625 1.82812,0 3.09375,0.75 1.26562,0.734375 1.89062,2.171875 0.45313,1.0625 0.45313,3.4375 v 10.609375 h -4.39063 V 41.8125 q 0,-2.46875 -0.45312,-3.1875 -0.60938,-0.9375 -1.875,-0.9375 -0.92188,0 -1.73438,0.5625 -0.8125,0.5625 -1.17187,1.65625 -0.35938,1.078125 -0.35938,3.421875 v 7.96875 h -4.39062 v -9.09375 q 0,-2.421875 -0.23438,-3.125 -0.23437,-0.703125 -0.73437,-1.046875 -0.48438,-0.34375 -1.32813,-0.34375 -1.01562,0 -1.82812,0.546875 -0.8125,0.546875 -1.17188,1.578125 -0.34375,1.03125 -0.34375,3.421875 v 8.0625 H 124.625 Z m 38.39062,11.3125 4.375,0.734375 q -0.84375,2.40625 -2.67187,3.671875 -1.8125,1.25 -4.54688,1.25 -4.32812,0 -6.40625,-2.828125 -1.64062,-2.265625 -1.64062,-5.71875 0,-4.125 2.15625,-6.453125 2.15625,-2.34375 5.45312,-2.34375 3.70313,0 5.84375,2.453125 2.14063,2.4375 2.04688,7.484375 h -11 q 0.0469,1.953125 1.0625,3.046875 1.01562,1.078125 2.53125,1.078125 1.03125,0 1.73437,-0.5625 0.70313,-0.5625 1.0625,-1.8125 z m 0.25,-4.4375 q -0.0469,-1.90625 -0.98437,-2.890625 -0.9375,-1 -2.28125,-1 -1.4375,0 -2.375,1.046875 -0.9375,1.046875 -0.92188,2.84375 z m 23.03125,9.71875 h -4.39062 v -8.46875 q 0,-2.6875 -0.28125,-3.46875 -0.28125,-0.796875 -0.92188,-1.234375 -0.625,-0.4375 -1.51562,-0.4375 -1.14063,0 -2.04688,0.625 -0.90625,0.625 -1.25,1.65625 Q 175.5625,41 175.5625,43.78125 v 7.515625 h -4.39063 V 34.703125 H 175.25 v 2.4375 q 2.17187,-2.8125 5.46875,-2.8125 1.45312,0 2.65625,0.53125 1.20312,0.515625 1.8125,1.328125 0.625,0.8125 0.85937,1.84375 0.25,1.03125 0.25,2.953125 z m 15.375,0 V 48.8125 q -0.90625,1.328125 -2.39062,2.09375 -1.46875,0.765625 -3.10938,0.765625 -1.67187,0 -3,-0.734375 -1.32812,-0.734375 -1.92187,-2.0625 -0.59375,-1.328125 -0.59375,-3.671875 v -10.5 h 4.39062 v 7.625 q 0,3.5 0.23438,4.296875 0.25,0.78125 0.89062,1.25 0.64063,0.453125 1.625,0.453125 1.125,0 2.01563,-0.609375 0.89062,-0.625 1.21875,-1.53125 0.32812,-0.921875 0.32812,-4.484375 v -7 H 205.75 v 16.59375 z m -8.71875,-19.53125 V 28 h 3.76563 v 3.765625 z m 6.71875,0 V 28 h 3.78125 v 3.765625 z"
     id="text11"
     style="font-weight:bold;font-size:32px;font-family:Arial, sans-serif;dominant-baseline:middle;text-anchor:middle;fill:url(#textGradient);stroke:#004400;stroke-width:1px;stroke-linejoin:round;paint-order:stroke"
     aria-label="Hauptmenü" />
</svg>
