<?xml version="1.0" encoding="UTF-8" standalone="no"?>
<svg
   width="240"
   height="80"
   version="1.1"
   id="svg11"
   sodipodi:docname="next-round-english.svg"
   inkscape:version="1.3.2 (091e20e, 2023-11-25)"
   xmlns:inkscape="http://www.inkscape.org/namespaces/inkscape"
   xmlns:sodipodi="http://sodipodi.sourceforge.net/DTD/sodipodi-0.dtd"
   xmlns="http://www.w3.org/2000/svg"
   xmlns:svg="http://www.w3.org/2000/svg">
  <sodipodi:namedview
     id="namedview11"
     pagecolor="#ffffff"
     bordercolor="#000000"
     borderopacity="0.25"
     inkscape:showpageshadow="2"
     inkscape:pageopacity="0.0"
     inkscape:pagecheckerboard="0"
     inkscape:deskcolor="#d1d1d1"
     inkscape:zoom="1.4958333"
     inkscape:cx="119.66574"
     inkscape:cy="40.111421"
     inkscape:window-width="1312"
     inkscape:window-height="449"
     inkscape:window-x="0"
     inkscape:window-y="38"
     inkscape:window-maximized="0"
     inkscape:current-layer="svg11" />
  <!-- Define gradients for 3D effect -->
  <defs
     id="defs7">
    <!-- Purple gradient for button body -->
    <linearGradient
       id="buttonGradient"
       x1="0%"
       y1="0%"
       x2="0%"
       y2="100%">
      <stop
         offset="0%"
         style="stop-color:#9D5FFF;stop-opacity:1"
         id="stop1" />
      <stop
         offset="50%"
         style="stop-color:#7B3FF2;stop-opacity:1"
         id="stop2" />
      <stop
         offset="100%"
         style="stop-color:#5A2DB8;stop-opacity:1"
         id="stop3" />
    </linearGradient>
    <!-- Highlight gradient for top shine -->
    <linearGradient
       id="shineGradient"
       x1="0%"
       y1="0%"
       x2="0%"
       y2="100%">
      <stop
         offset="0%"
         style="stop-color:#FFFFFF;stop-opacity:0.4"
         id="stop4" />
      <stop
         offset="50%"
         style="stop-color:#FFFFFF;stop-opacity:0"
         id="stop5" />
    </linearGradient>
    <!-- Text gradient for depth -->
    <linearGradient
       id="textGradient"
       x1="0%"
       y1="0%"
       x2="0%"
       y2="100%">
      <stop
         offset="0%"
         style="stop-color:#66FF66;stop-opacity:1"
         id="stop6" />
      <stop
         offset="100%"
         style="stop-color:#00FF41;stop-opacity:1"
         id="stop7" />
    </linearGradient>
  </defs>
  <!-- Shadow for depth -->
  <rect
     x="10"
     y="14"
     width="220"
     height="60"
     rx="18"
     ry="18"
     fill="#000000"
     opacity="0.3"
     id="rect7" />
  <!-- Outer glow border -->
  <rect
     x="6"
     y="6"
     width="228"
     height="68"
     rx="20"
     ry="20"
     fill="none"
     stroke="#FFB3FF"
     stroke-width="3"
     opacity="0.6"
     id="rect8" />
  <!-- Main bright pink border -->
  <rect
     x="10"
     y="10"
     width="220"
     height="60"
     rx="18"
     ry="18"
     fill="none"
     stroke="#FF66FF"
     stroke-width="6"
     id="rect9" />
  <!-- Main button with gradient -->
  <rect
     x="13"
     y="13"
     width="214"
     height="54"
     rx="16"
     ry="16"
     fill="url(#buttonGradient)"
     id="rect10" />
  <!-- Top shine overlay -->
  <rect
     x="13"
     y="13"
     width="214"
     height="27"
     rx="16"
     ry="16"
     fill="url(#shineGradient)"
     id="rect11" />
  <!-- Bright green text - large and perfectly centered -->
  <path
     d="M 21.676758,52.333984 V 26.564453 h 5.0625 L 37.286133,43.773437 V 26.564453 h 4.833984 V 52.333984 H 36.899414 L 26.510742,35.529297 v 16.804687 z m 36.720703,-5.941406 4.921875,0.826172 q -0.949219,2.707031 -3.005859,4.130859 -2.039063,1.40625 -5.115235,1.40625 -4.86914,0 -7.207031,-3.18164 -1.845703,-2.548828 -1.845703,-6.433594 0,-4.640625 2.425781,-7.259766 2.425781,-2.636718 6.134766,-2.636718 4.166015,0 6.574218,2.759765 2.408204,2.742188 2.302735,8.419922 h -12.375 q 0.05273,2.197266 1.195312,3.427734 1.142578,1.212891 2.847657,1.212891 1.160156,0 1.951171,-0.632812 0.791016,-0.632813 1.195313,-2.039063 z m 0.28125,-4.992187 q -0.05273,-2.144532 -1.107422,-3.251954 -1.054687,-1.125 -2.566406,-1.125 -1.617188,0 -2.671875,1.177735 -1.054688,1.177734 -1.03711,3.199219 z m 6.556641,10.933593 6.732421,-9.615234 -6.451171,-9.052734 h 6.029296 l 3.304688,5.132812 3.480469,-5.132812 h 5.800781 l -6.328125,8.841796 6.908203,9.826172 h -6.064453 l -3.796875,-5.783203 -3.832031,5.783203 z M 96.19043,33.666016 v 3.9375 h -3.375 v 7.523437 q 0,2.285156 0.08789,2.671875 0.105469,0.369141 0.439453,0.615234 0.351563,0.246094 0.84375,0.246094 0.685547,0 1.986329,-0.474609 l 0.421875,3.832031 q -1.722657,0.738281 -3.902344,0.738281 -1.335938,0 -2.408203,-0.439453 -1.072266,-0.457031 -1.582032,-1.160156 -0.492187,-0.720703 -0.685546,-1.933594 -0.158204,-0.861328 -0.158204,-3.480469 V 37.603516 H 85.59082 v -3.9375 h 2.267578 v -3.708985 l 4.957032,-2.882812 v 6.591797 z m 13.48242,18.667968 V 26.564453 h 10.95117 q 4.13086,0 5.99414,0.703125 1.88086,0.685547 3.00586,2.460938 1.125,1.77539 1.125,4.060546 0,2.900391 -1.70507,4.798829 -1.70508,1.880859 -5.09766,2.373046 1.6875,0.984375 2.77734,2.16211 1.10742,1.177734 2.97071,4.183594 l 3.14648,5.027343 h -6.22266 l -3.76171,-5.607422 q -2.00391,-3.005859 -2.74219,-3.779296 -0.73828,-0.791016 -1.56446,-1.072266 -0.82617,-0.298828 -2.61914,-0.298828 h -1.05468 v 10.757812 z m 5.20313,-14.871093 h 3.84961 q 3.74414,0 4.67578,-0.316407 0.93164,-0.316406 1.45898,-1.089843 0.52735,-0.773438 0.52735,-1.933594 0,-1.300781 -0.70313,-2.091797 -0.68555,-0.808594 -1.95117,-1.019531 -0.63281,-0.08789 -3.79688,-0.08789 h -4.06054 z m 19.59961,5.273437 q 0,-2.460937 1.21289,-4.763672 1.21289,-2.302734 3.42773,-3.515625 2.23242,-1.21289 4.97461,-1.21289 4.23633,0 6.94336,2.759765 2.70703,2.742188 2.70703,6.94336 0,4.236328 -2.74219,7.03125 -2.72461,2.777343 -6.87304,2.777343 -2.56641,0 -4.9043,-1.160156 -2.32031,-1.160156 -3.5332,-3.392578 -1.21289,-2.25 -1.21289,-5.466797 z M 139.53809,43 q 0,2.777344 1.31836,4.253906 1.31835,1.476563 3.25195,1.476563 1.93359,0 3.23437,-1.476563 1.31836,-1.476562 1.31836,-4.289062 0,-2.742188 -1.31836,-4.21875 -1.30078,-1.476563 -3.23437,-1.476563 -1.9336,0 -3.25195,1.476563 Q 139.53809,40.222656 139.53809,43 Z m 30.35742,9.333984 v -2.794922 q -1.01953,1.494141 -2.68946,2.355469 -1.65234,0.861328 -3.49804,0.861328 -1.88086,0 -3.375,-0.826172 -1.49414,-0.826171 -2.16211,-2.320312 -0.66797,-1.494141 -0.66797,-4.130859 v -11.8125 h 4.93945 v 8.578125 q 0,3.9375 0.26367,4.833984 0.28125,0.878906 1.00196,1.40625 0.7207,0.509766 1.82812,0.509766 1.26563,0 2.26758,-0.685547 1.00195,-0.703125 1.37109,-1.722657 0.36915,-1.037109 0.36915,-5.044921 v -7.875 h 4.93945 v 18.667968 z m 26.68359,0 h -4.93945 v -9.527343 q 0,-3.023438 -0.31641,-3.902344 -0.3164,-0.896485 -1.03711,-1.388672 -0.70312,-0.492188 -1.70508,-0.492188 -1.2832,0 -2.30273,0.703125 -1.01953,0.703125 -1.40625,1.863282 -0.36914,1.160156 -0.36914,4.289062 v 8.455078 h -4.93945 V 33.666016 h 4.58789 v 2.742187 q 2.44336,-3.164062 6.15234,-3.164062 1.63477,0 2.98828,0.597656 1.35352,0.580078 2.03906,1.49414 0.70313,0.914063 0.9668,2.074219 0.28125,1.160156 0.28125,3.322266 z m 22.13086,0 h -4.58789 v -2.742187 q -1.14258,1.599609 -2.70703,2.390625 -1.54688,0.773437 -3.12891,0.773437 -3.21679,0 -5.51953,-2.583984 -2.28515,-2.601563 -2.28515,-7.242188 0,-4.746093 2.23242,-7.207031 2.23242,-2.478515 5.64258,-2.478515 3.1289,0 5.41406,2.601562 v -9.28125 h 4.93945 z m -13.18359,-9.738281 q 0,2.988281 0.82617,4.324219 1.19531,1.933594 3.33984,1.933594 1.70508,0 2.90039,-1.441407 1.19532,-1.458984 1.19532,-4.341797 0,-3.216796 -1.16016,-4.623046 -1.16016,-1.423829 -2.9707,-1.423829 -1.75782,0 -2.95313,1.40625 -1.17773,1.388672 -1.17773,4.166016 z"
     id="text11"
     style="font-weight:bold;font-size:36px;font-family:Arial, sans-serif;dominant-baseline:middle;text-anchor:middle;fill:url(#textGradient);stroke:#004400;stroke-width:1px;stroke-linejoin:round;paint-order:stroke"
     aria-label="Next Round" />
</svg>
