<?xml version="1.0" encoding="UTF-8" standalone="no"?>
<svg
   width="240"
   height="80"
   version="1.1"
   id="svg11"
   sodipodi:docname="next-round-german.svg"
   inkscape:version="1.3.2 (091e20e, 2023-11-25)"
   xmlns:inkscape="http://www.inkscape.org/namespaces/inkscape"
   xmlns:sodipodi="http://sodipodi.sourceforge.net/DTD/sodipodi-0.dtd"
   xmlns="http://www.w3.org/2000/svg"
   xmlns:svg="http://www.w3.org/2000/svg">
  <sodipodi:namedview
     id="namedview11"
     pagecolor="#ffffff"
     bordercolor="#000000"
     borderopacity="0.25"
     inkscape:showpageshadow="2"
     inkscape:pageopacity="0.0"
     inkscape:pagecheckerboard="0"
     inkscape:deskcolor="#d1d1d1"
     inkscape:zoom="1.4958333"
     inkscape:cx="119.66574"
     inkscape:cy="40.111421"
     inkscape:window-width="1728"
     inkscape:window-height="965"
     inkscape:window-x="0"
     inkscape:window-y="38"
     inkscape:window-maximized="0"
     inkscape:current-layer="svg11" />
  <!-- Define gradients for 3D effect -->
  <defs
     id="defs7">
    <!-- Purple gradient for button body -->
    <linearGradient
       id="buttonGradient"
       x1="0%"
       y1="0%"
       x2="0%"
       y2="100%">
      <stop
         offset="0%"
         style="stop-color:#9D5FFF;stop-opacity:1"
         id="stop1" />
      <stop
         offset="50%"
         style="stop-color:#7B3FF2;stop-opacity:1"
         id="stop2" />
      <stop
         offset="100%"
         style="stop-color:#5A2DB8;stop-opacity:1"
         id="stop3" />
    </linearGradient>
    <!-- Highlight gradient for top shine -->
    <linearGradient
       id="shineGradient"
       x1="0%"
       y1="0%"
       x2="0%"
       y2="100%">
      <stop
         offset="0%"
         style="stop-color:#FFFFFF;stop-opacity:0.4"
         id="stop4" />
      <stop
         offset="50%"
         style="stop-color:#FFFFFF;stop-opacity:0"
         id="stop5" />
    </linearGradient>
    <!-- Text gradient for depth -->
    <linearGradient
       id="textGradient"
       x1="0%"
       y1="0%"
       x2="0%"
       y2="100%">
      <stop
         offset="0%"
         style="stop-color:#66FF66;stop-opacity:1"
         id="stop6" />
      <stop
         offset="100%"
         style="stop-color:#00FF41;stop-opacity:1"
         id="stop7" />
    </linearGradient>
  </defs>
  <!-- Shadow for depth -->
  <rect
     x="10"
     y="14"
     width="220"
     height="60"
     rx="18"
     ry="18"
     fill="#000000"
     opacity="0.3"
     id="rect7" />
  <!-- Outer glow border -->
  <rect
     x="6"
     y="6"
     width="228"
     height="68"
     rx="20"
     ry="20"
     fill="none"
     stroke="#FFB3FF"
     stroke-width="3"
     opacity="0.6"
     id="rect8" />
  <!-- Main bright pink border -->
  <rect
     x="10"
     y="10"
     width="220"
     height="60"
     rx="18"
     ry="18"
     fill="none"
     stroke="#FF66FF"
     stroke-width="6"
     id="rect9" />
  <!-- Main button with gradient -->
  <rect
     x="13"
     y="13"
     width="214"
     height="54"
     rx="16"
     ry="16"
     fill="url(#buttonGradient)"
     id="rect10" />
  <!-- Top shine overlay -->
  <rect
     x="13"
     y="13"
     width="214"
     height="27"
     rx="16"
     ry="16"
     fill="url(#shineGradient)"
     id="rect11" />
  <!-- Bright green text - large and perfectly centered -->
  <path
     d="M 20.167969,50.259766 V 30.216797 h 3.9375 l 8.203125,13.384765 V 30.216797 h 3.759765 V 50.259766 H 32.007812 L 23.927734,37.189453 V 50.259766 Z M 43.191406,40.169922 39.705078,39.541016 q 0.587891,-2.105469 2.023438,-3.117188 1.435546,-1.011719 4.265625,-1.011719 2.570312,0 3.828125,0.615235 1.257812,0.601562 1.763671,1.544922 0.519532,0.929687 0.519532,3.43164 l -0.04102,4.484375 q 0,1.914063 0.177734,2.830078 0.191407,0.902344 0.697266,1.941407 H 49.138672 Q 48.988281,49.876953 48.769531,49.125 q -0.0957,-0.341797 -0.136719,-0.451172 -0.984375,0.957031 -2.105468,1.435547 -1.121094,0.478516 -2.392578,0.478516 -2.242188,0 -3.541016,-1.216797 -1.285156,-1.216797 -1.285156,-3.076172 0,-1.230469 0.58789,-2.1875 0.587891,-0.970703 1.640625,-1.476563 1.066407,-0.519531 3.0625,-0.902343 2.69336,-0.50586 3.732422,-0.94336 v -0.382812 q 0,-1.107422 -0.546875,-1.572266 -0.546875,-0.478516 -2.064453,-0.478516 -1.025391,0 -1.599609,0.410157 -0.574219,0.396484 -0.929688,1.408203 z m 5.140625,3.117187 q -0.738281,0.246094 -2.33789,0.587891 -1.59961,0.341797 -2.091797,0.669922 -0.751953,0.533203 -0.751953,1.353515 0,0.806641 0.601562,1.394532 0.601563,0.58789 1.53125,0.58789 1.039063,0 1.982422,-0.683593 0.697266,-0.519532 0.916016,-1.271485 0.15039,-0.492187 0.15039,-1.873047 z M 41.537109,33.169922 V 29.875 h 3.294922 v 3.294922 z m 5.878907,0 V 29.875 h 3.308593 v 3.294922 z m 21.136718,6.863281 -3.787109,0.683594 q -0.191406,-1.134766 -0.875,-1.708985 -0.669922,-0.574218 -1.75,-0.574218 -1.435547,0 -2.296875,0.998047 -0.847656,0.984375 -0.847656,3.308593 0,2.583985 0.861328,3.650391 0.875,1.066406 2.33789,1.066406 1.09375,0 1.791016,-0.615234 0.697266,-0.628906 0.984375,-2.146485 l 3.773438,0.642579 q -0.587891,2.597656 -2.25586,3.923828 -1.667969,1.326172 -4.470703,1.326172 -3.185547,0 -5.085937,-2.009766 -1.886719,-2.009766 -1.886719,-5.564453 0,-3.595703 1.90039,-5.591797 1.900391,-2.009766 5.140625,-2.009766 2.652344,0 4.210938,1.148438 1.572266,1.134765 2.255859,3.472656 z m 6.740235,-9.816406 v 7.36914 q 1.859375,-2.173828 4.443359,-2.173828 1.326172,0 2.392578,0.492188 1.066406,0.492187 1.59961,1.257812 0.546875,0.765625 0.738281,1.695313 0.205078,0.929687 0.205078,2.884765 v 8.517579 h -3.841797 v -7.669922 q 0,-2.283203 -0.21875,-2.898438 -0.21875,-0.615234 -0.779297,-0.970703 -0.546875,-0.369141 -1.380859,-0.369141 -0.957031,0 -1.708985,0.464844 -0.751953,0.464844 -1.107421,1.408203 -0.341797,0.929688 -0.341797,2.761719 v 7.273438 H 71.451172 V 30.216797 Z m 11.921875,15.90039 3.855468,-0.58789 q 0.246094,1.121094 0.998047,1.708984 0.751953,0.574219 2.105469,0.574219 1.490234,0 2.242188,-0.546875 0.505859,-0.382813 0.505859,-1.025391 0,-0.4375 -0.273438,-0.724609 -0.287109,-0.273438 -1.285156,-0.505859 -4.648437,-1.025391 -5.892578,-1.873047 -1.722656,-1.175782 -1.722656,-3.267578 0,-1.886719 1.490234,-3.171875 1.490235,-1.285157 4.621094,-1.285157 2.980469,0 4.429687,0.970703 1.449219,0.970704 1.996098,2.871094 l -3.623051,0.669922 Q 96.429687,39.076172 95.773437,38.625 q -0.642578,-0.451172 -1.845703,-0.451172 -1.517578,0 -2.173828,0.423828 -0.4375,0.300781 -0.4375,0.779297 0,0.410156 0.382813,0.697266 0.519531,0.382812 3.582031,1.080078 3.076172,0.697265 4.292969,1.708984 1.203121,1.025391 1.203121,2.857422 0,1.996094 -1.667965,3.431641 -1.667969,1.435547 -4.935547,1.435547 -2.966797,0 -4.703125,-1.203125 -1.722656,-1.203125 -2.255859,-3.267579 z M 110.79883,35.740234 v 3.0625 h -2.625 v 5.851563 q 0,1.777344 0.0684,2.078125 0.082,0.287109 0.34179,0.478515 0.27344,0.191407 0.65625,0.191407 0.53321,0 1.54493,-0.369141 l 0.32812,2.980469 q -1.33984,0.574219 -3.03515,0.574219 -1.03907,0 -1.87305,-0.341797 -0.83399,-0.355469 -1.23047,-0.902344 -0.38281,-0.560547 -0.5332,-1.503906 -0.12305,-0.669922 -0.12305,-2.707032 v -6.330078 h -1.76367 v -3.0625 h 1.76367 v -2.884765 l 3.85547,-2.242188 v 5.126953 z m 11.07422,9.898438 3.82812,0.642578 q -0.73828,2.105469 -2.33789,3.212891 -1.58594,1.09375 -3.97851,1.09375 -3.78711,0 -5.60547,-2.47461 -1.43555,-1.982422 -1.43555,-5.003906 0,-3.609375 1.88672,-5.646484 1.88672,-2.050782 4.77148,-2.050782 3.24024,0 5.11328,2.146485 1.87305,2.132812 1.79102,6.548828 h -9.625 q 0.041,1.708984 0.92969,2.666015 0.88867,0.94336 2.21484,0.94336 0.90235,0 1.51758,-0.492188 0.61523,-0.492187 0.92969,-1.585937 z m 0.21875,-3.882813 q -0.041,-1.667968 -0.86133,-2.529297 -0.82031,-0.875 -1.99609,-0.875 -1.25782,0 -2.07813,0.916016 -0.82031,0.916016 -0.80664,2.488281 z m 14.76562,8.503907 V 30.216797 h 8.51758 q 3.21289,0 4.66211,0.546875 1.46289,0.533203 2.33789,1.914062 0.875,1.38086 0.875,3.158203 0,2.25586 -1.32617,3.732422 -1.32617,1.462891 -3.96485,1.845703 1.3125,0.765625 2.16016,1.681641 0.86133,0.916016 2.31055,3.253906 l 2.44726,3.910157 h -4.83984 l -2.92578,-4.361329 q -1.5586,-2.33789 -2.13281,-2.939453 -0.57422,-0.615234 -1.2168,-0.833984 -0.64258,-0.232422 -2.03711,-0.232422 h -0.82031 v 8.367188 z m 4.04688,-11.566407 h 2.99414 q 2.91211,0 3.63672,-0.246093 0.72461,-0.246094 1.13476,-0.847657 0.41016,-0.601562 0.41016,-1.503906 0,-1.011719 -0.54688,-1.626953 -0.5332,-0.628906 -1.51758,-0.792969 -0.49218,-0.06836 -2.95312,-0.06836 h -3.1582 z m 25.68945,11.566407 v -2.173829 q -0.79297,1.16211 -2.0918,1.832032 -1.28515,0.669922 -2.7207,0.669922 -1.46289,0 -2.625,-0.642579 -1.16211,-0.642578 -1.68164,-1.804687 -0.51953,-1.162109 -0.51953,-3.212891 v -9.1875 h 3.84179 v 6.671875 q 0,3.0625 0.20508,3.759766 0.21875,0.683594 0.7793,1.09375 0.56055,0.396484 1.42187,0.396484 0.98438,0 1.76368,-0.533203 0.77929,-0.546875 1.0664,-1.339844 0.28711,-0.80664 0.28711,-3.923828 v -6.125 h 3.8418 v 14.519532 z m 20.75391,0 h -3.8418 v -7.410157 q 0,-2.351562 -0.24609,-3.035156 -0.2461,-0.697266 -0.80665,-1.080078 -0.54687,-0.382813 -1.32617,-0.382813 -0.99804,0 -1.79101,0.546875 -0.79297,0.546875 -1.09375,1.449219 -0.28711,0.902344 -0.28711,3.335938 v 6.576172 h -3.8418 V 35.740234 h 3.56836 v 2.132813 q 1.90039,-2.460938 4.78516,-2.460938 1.27148,0 2.32422,0.464844 1.05273,0.451172 1.58593,1.162109 0.54688,0.710938 0.75196,1.613282 0.21875,0.902343 0.21875,2.583984 z m 17.21289,0 h -3.56836 v -2.132813 q -0.88867,1.244141 -2.10547,1.859375 -1.20313,0.601563 -2.4336,0.601563 -2.50195,0 -4.29296,-2.009766 -1.77735,-2.023438 -1.77735,-5.632813 0,-3.691406 1.73633,-5.605468 1.73633,-1.927735 4.38867,-1.927735 2.4336,0 4.21094,2.023438 v -7.21875 h 3.8418 z m -10.25391,-7.574219 q 0,2.324219 0.64258,3.363281 0.92969,1.503906 2.59765,1.503906 1.32618,0 2.25586,-1.121093 0.92969,-1.134766 0.92969,-3.376954 0,-2.501953 -0.90234,-3.595703 -0.90235,-1.107422 -2.31055,-1.107422 -1.36719,0 -2.29687,1.09375 -0.91602,1.080079 -0.91602,3.240235 z m 22.44922,2.953125 3.82812,0.642578 q -0.73828,2.105469 -2.33789,3.212891 -1.58593,1.09375 -3.97851,1.09375 -3.78711,0 -5.60547,-2.47461 -1.43555,-1.982422 -1.43555,-5.003906 0,-3.609375 1.88672,-5.646484 1.88672,-2.050782 4.77149,-2.050782 3.24023,0 5.11328,2.146485 1.87304,2.132812 1.79101,6.548828 h -9.625 q 0.041,1.708984 0.92969,2.666015 0.88867,0.94336 2.21484,0.94336 0.90235,0 1.51758,-0.492188 0.61524,-0.492187 0.92969,-1.585937 z m 0.21875,-3.882813 q -0.041,-1.667968 -0.86133,-2.529297 -0.82031,-0.875 -1.99609,-0.875 -1.25782,0 -2.07813,0.916016 -0.82031,0.916016 -0.80664,2.488281 z"
     id="text11"
     style="font-weight:bold;font-size:28px;font-family:Arial, sans-serif;dominant-baseline:middle;text-anchor:middle;fill:url(#textGradient);stroke:#004400;stroke-width:1px;stroke-linejoin:round;paint-order:stroke"
     aria-label="Nächste Runde" />
</svg>
