<svg xmlns="http://www.w3.org/2000/svg" viewBox="0 0 1000 1000" width="1000" height="1000"><defs></defs><g>
<g>
	<path d="M500,0 C224.10761111,0 0,224.10761111 0,500 C0,775.89238889 224.10761111,1000 500,1000 C775.89238889,1000 1000,775.89238889 1000,500 C1000,224.10761111 775.89238889,0 500,0 ZM500,108.13671875 C716.22419356,108.13671875 891.86328125,283.77580644 891.86328125,500 C891.86328125,716.22419356 716.22419356,891.86328125 500,891.86328125 C283.77580644,891.86328125 108.13671875,716.22419356 108.13671875,500 C108.13671875,283.77580644 283.77580644,108.13671875 500,108.13671875 Z" fill="#ff0000"/>
</g>
<g>
	<path d="M240.5608647011373,130.29640100986012 L869.7035989901399,759.4391352988627 L759.4391352988628,869.7035989901399 L130.29640100986006,240.56086470113735 L240.5608647011373,130.29640100986012 Z" fill="#ff0000"/>
</g></g></svg>