<?xml version="1.0" encoding="UTF-8" standalone="no"?>
<svg
   width="240"
   height="80"
   version="1.1"
   id="svg11"
   sodipodi:docname="options-english.svg"
   inkscape:version="1.3.2 (091e20e, 2023-11-25)"
   xmlns:inkscape="http://www.inkscape.org/namespaces/inkscape"
   xmlns:sodipodi="http://sodipodi.sourceforge.net/DTD/sodipodi-0.dtd"
   xmlns="http://www.w3.org/2000/svg"
   xmlns:svg="http://www.w3.org/2000/svg">
  <sodipodi:namedview
     id="namedview11"
     pagecolor="#ffffff"
     bordercolor="#000000"
     borderopacity="0.25"
     inkscape:showpageshadow="2"
     inkscape:pageopacity="0.0"
     inkscape:pagecheckerboard="0"
     inkscape:deskcolor="#d1d1d1"
     inkscape:zoom="1.4958333"
     inkscape:cx="119.66574"
     inkscape:cy="40.111421"
     inkscape:window-width="1312"
     inkscape:window-height="449"
     inkscape:window-x="0"
     inkscape:window-y="38"
     inkscape:window-maximized="0"
     inkscape:current-layer="svg11" />
  <!-- Define gradients for 3D effect -->
  <defs
     id="defs7">
    <!-- Purple gradient for button body -->
    <linearGradient
       id="buttonGradient"
       x1="0%"
       y1="0%"
       x2="0%"
       y2="100%">
      <stop
         offset="0%"
         style="stop-color:#9D5FFF;stop-opacity:1"
         id="stop1" />
      <stop
         offset="50%"
         style="stop-color:#7B3FF2;stop-opacity:1"
         id="stop2" />
      <stop
         offset="100%"
         style="stop-color:#5A2DB8;stop-opacity:1"
         id="stop3" />
    </linearGradient>
    <!-- Highlight gradient for top shine -->
    <linearGradient
       id="shineGradient"
       x1="0%"
       y1="0%"
       x2="0%"
       y2="100%">
      <stop
         offset="0%"
         style="stop-color:#FFFFFF;stop-opacity:0.4"
         id="stop4" />
      <stop
         offset="50%"
         style="stop-color:#FFFFFF;stop-opacity:0"
         id="stop5" />
    </linearGradient>
    <!-- Text gradient for depth -->
    <linearGradient
       id="textGradient"
       x1="0%"
       y1="0%"
       x2="0%"
       y2="100%">
      <stop
         offset="0%"
         style="stop-color:#66FF66;stop-opacity:1"
         id="stop6" />
      <stop
         offset="100%"
         style="stop-color:#00FF41;stop-opacity:1"
         id="stop7" />
    </linearGradient>
  </defs>
  <!-- Shadow for depth -->
  <rect
     x="10"
     y="14"
     width="220"
     height="60"
     rx="18"
     ry="18"
     fill="#000000"
     opacity="0.3"
     id="rect7" />
  <!-- Outer glow border -->
  <rect
     x="6"
     y="6"
     width="228"
     height="68"
     rx="20"
     ry="20"
     fill="none"
     stroke="#FFB3FF"
     stroke-width="3"
     opacity="0.6"
     id="rect8" />
  <!-- Main bright pink border -->
  <rect
     x="10"
     y="10"
     width="220"
     height="60"
     rx="18"
     ry="18"
     fill="none"
     stroke="#FF66FF"
     stroke-width="6"
     id="rect9" />
  <!-- Main button with gradient -->
  <rect
     x="13"
     y="13"
     width="214"
     height="54"
     rx="16"
     ry="16"
     fill="url(#buttonGradient)"
     id="rect10" />
  <!-- Top shine overlay -->
  <rect
     x="13"
     y="13"
     width="214"
     height="27"
     rx="16"
     ry="16"
     fill="url(#shineGradient)"
     id="rect11" />
  <!-- Bright green text - large and perfectly centered -->
  <path
     d="m 53.572266,39.607422 q 0,-3.9375 1.177734,-6.609375 0.878906,-1.96875 2.390625,-3.533203 1.529297,-1.564453 3.339844,-2.320313 2.408203,-1.019531 5.554687,-1.019531 5.695313,0 9.105469,3.533203 3.427734,3.533203 3.427734,9.826172 0,6.240234 -3.392578,9.773437 -3.392578,3.515625 -9.070312,3.515625 -5.748047,0 -9.140625,-3.498046 -3.392578,-3.515625 -3.392578,-9.667969 z m 5.361328,-0.175781 q 0,4.376953 2.021484,6.644531 2.021484,2.25 5.132813,2.25 3.111328,0 5.097656,-2.232422 2.003906,-2.25 2.003906,-6.732422 0,-4.429687 -1.951172,-6.609375 -1.933594,-2.179687 -5.15039,-2.179687 -3.216797,0 -5.185547,2.214843 -1.96875,2.197266 -1.96875,6.644532 z m 23.519531,-5.765625 h 4.605469 v 2.742187 q 0.896484,-1.40625 2.425781,-2.285156 1.529297,-0.878906 3.392578,-0.878906 3.251953,0 5.519531,2.548828 2.267576,2.548828 2.267576,7.101562 0,4.675781 -2.285154,7.277344 -2.285156,2.583984 -5.537109,2.583984 -1.546875,0 -2.8125,-0.615234 -1.248047,-0.615234 -2.636719,-2.109375 v 9.404297 h -4.939453 z m 4.886719,9.017578 q 0,3.146484 1.248047,4.658203 1.248046,1.49414 3.041015,1.49414 1.722656,0 2.865235,-1.371093 1.142578,-1.388672 1.142578,-4.535157 0,-2.935546 -1.177735,-4.359375 -1.177734,-1.423828 -2.917968,-1.423828 -1.810547,0 -3.00586,1.40625 -1.195312,1.388672 -1.195312,4.13086 z m 25.804686,-9.017578 v 3.9375 h -3.375 v 7.523437 q 0,2.285156 0.0879,2.671875 0.10547,0.369141 0.43946,0.615234 0.35156,0.246094 0.84375,0.246094 0.68554,0 1.98632,-0.474609 l 0.42188,3.832031 q -1.72266,0.738281 -3.90235,0.738281 -1.33593,0 -2.4082,-0.439453 -1.07226,-0.457031 -1.58203,-1.160156 -0.49219,-0.720703 -0.68555,-1.933594 -0.1582,-0.861328 -0.1582,-3.480469 v -8.138671 h -2.26758 v -3.9375 h 2.26758 v -3.708985 l 4.95703,-2.882812 v 6.591797 z m 3.42774,-2.53125 v -4.570313 h 4.93945 v 4.570313 z m 0,21.199218 V 33.666016 h 4.93945 v 18.667968 z m 8.85937,-9.597656 q 0,-2.460937 1.21289,-4.763672 1.21289,-2.302734 3.42774,-3.515625 2.23242,-1.21289 4.9746,-1.21289 4.23633,0 6.94336,2.759765 2.70704,2.742188 2.70704,6.94336 0,4.236328 -2.74219,7.03125 -2.72461,2.777343 -6.87305,2.777343 -2.56641,0 -4.9043,-1.160156 -2.32031,-1.160156 -3.5332,-3.392578 -1.21289,-2.25 -1.21289,-5.466797 z M 130.49414,43 q 0,2.777344 1.31836,4.253906 1.31836,1.476563 3.25195,1.476563 1.9336,0 3.23438,-1.476563 1.31836,-1.476562 1.31836,-4.289062 0,-2.742188 -1.31836,-4.21875 -1.30078,-1.476563 -3.23438,-1.476563 -1.93359,0 -3.25195,1.476563 Q 130.49414,40.222656 130.49414,43 Z m 35.05078,9.333984 h -4.93945 v -9.527343 q 0,-3.023438 -0.31641,-3.902344 -0.3164,-0.896485 -1.03711,-1.388672 -0.70312,-0.492188 -1.70508,-0.492188 -1.2832,0 -2.30273,0.703125 -1.01953,0.703125 -1.40625,1.863282 -0.36914,1.160156 -0.36914,4.289062 v 8.455078 H 148.5293 V 33.666016 h 4.58789 v 2.742187 q 2.44336,-3.164062 6.15234,-3.164062 1.63477,0 2.98828,0.597656 1.35352,0.580078 2.03906,1.49414 0.70313,0.914063 0.9668,2.074219 0.28125,1.160156 0.28125,3.322266 z m 3.26953,-5.326172 4.95703,-0.755859 q 0.31641,1.441406 1.28321,2.197266 0.96679,0.738281 2.70703,0.738281 1.91601,0 2.88281,-0.703125 0.65039,-0.492188 0.65039,-1.318359 0,-0.5625 -0.35156,-0.931641 -0.36914,-0.351563 -1.65234,-0.650391 -5.97657,-1.318359 -7.57618,-2.408203 Q 169.5,41.664062 169.5,38.974609 q 0,-2.425781 1.91602,-4.078125 1.91601,-1.652343 5.9414,-1.652343 3.83203,0 5.69531,1.248046 1.86329,1.248047 2.56641,3.691407 l -4.6582,0.861328 q -0.29883,-1.089844 -1.14258,-1.669922 -0.82617,-0.580078 -2.37305,-0.580078 -1.95117,0 -2.79492,0.544922 -0.5625,0.386718 -0.5625,1.001953 0,0.527344 0.49219,0.896484 0.66797,0.492188 4.60547,1.388672 3.95507,0.896484 5.51953,2.197266 1.54687,1.318359 1.54687,3.673828 0,2.566406 -2.14453,4.412109 -2.14453,1.845703 -6.3457,1.845703 -3.81445,0 -6.04688,-1.546875 -2.21484,-1.546875 -2.90039,-4.201172 z"
     id="text11"
     style="font-weight:bold;font-size:36px;font-family:Arial, sans-serif;dominant-baseline:middle;text-anchor:middle;fill:url(#textGradient);stroke:#004400;stroke-width:1px;stroke-linejoin:round;paint-order:stroke"
     aria-label="Options" />
</svg>
