<svg xmlns="http://www.w3.org/2000/svg" viewBox="0 0 238 332" width="238" height="332"><defs><clipPath id="artboard-1540341070198897663"><rect x="0" y="0" width="238" height="332"/></clipPath></defs><g>
<g clip-path="url(#artboard-1540341070198897663)">
	<g>
		<path d="M59.82197,203.0944C59.82197,203.0944 59.82197,182.53792 59.82197,182.53792 C59.82197,182.53792 38.95637,182.53792 38.95637,182.53792 C38.95637,182.53792 38.95637,170.79136 38.95637,170.79136 C38.95637,170.79136 59.82197,170.79136 59.82197,170.79136 C59.82197,170.79136 59.82197,150.23488 59.82197,150.23488 C59.82197,150.23488 72.18677,150.23488 72.18677,150.23488 C72.18677,150.23488 72.18677,170.79136 72.18677,170.79136 C72.18677,170.79136 93.05237,170.79136 93.05237,170.79136 C93.05237,170.79136 93.05237,182.53792 93.05237,182.53792 C93.05237,182.53792 72.18677,182.53792 72.18677,182.53792 C72.18677,182.53792 72.18677,203.0944 72.18677,203.0944 C72.18677,203.0944 59.82197,203.0944 59.82197,203.0944 C59.82197,203.0944 59.82197,203.0944 59.82197,203.0944 ZM154.10357,222.25984Q139.80677,222.25984 129.60581,214.91824 Q119.40485,207.57664 113.95661,194.67088 Q108.50837,181.76512 108.50837,165.07264 Q108.50837,148.38016 114.30437,135.93808 Q120.10037,123.496 130.37861,116.61808 Q140.65685,109.74016 154.10357,109.74016 Q167.85941,109.74016 178.09901,116.61808 Q188.33861,123.496 194.01869,135.93808 Q199.69877,148.38016 199.69877,165.07264 Q199.69877,181.76512 194.28917,194.67088 Q188.87957,207.57664 178.67861,214.91824 Q168.47765,222.25984 154.10357,222.25984 Q154.10357,222.25984 154.10357,222.25984 ZM154.10357,208.96768Q163.68629,208.96768 170.37101,203.8672 Q177.05573,198.76672 180.57197,188.95216 Q184.08821,179.1376 184.08821,165.07264 Q184.08821,143.9752 175.93517,133.50376 Q167.78213,123.03232 154.10357,123.03232 Q141.12053,123.03232 132.61973,133.50376 Q124.11893,143.9752 124.11893,165.07264 Q124.11893,179.1376 127.63517,188.95216 Q131.15141,198.76672 137.83613,203.8672 Q144.52085,208.96768 154.10357,208.96768 Q154.10357,208.96768 154.10357,208.96768 Z" transform="matrix(1,0,0,1,0,0)" fill="none" stroke="#000000" stroke-width="10.80000000000001" stroke-linecap="round" stroke-linejoin="round"/>
	</g>
	<g>
		<path d="M59.82197,203.0944C59.82197,203.0944 59.82197,182.53792 59.82197,182.53792 C59.82197,182.53792 38.95637,182.53792 38.95637,182.53792 C38.95637,182.53792 38.95637,170.79136 38.95637,170.79136 C38.95637,170.79136 59.82197,170.79136 59.82197,170.79136 C59.82197,170.79136 59.82197,150.23488 59.82197,150.23488 C59.82197,150.23488 72.18677,150.23488 72.18677,150.23488 C72.18677,150.23488 72.18677,170.79136 72.18677,170.79136 C72.18677,170.79136 93.05237,170.79136 93.05237,170.79136 C93.05237,170.79136 93.05237,182.53792 93.05237,182.53792 C93.05237,182.53792 72.18677,182.53792 72.18677,182.53792 C72.18677,182.53792 72.18677,203.0944 72.18677,203.0944 C72.18677,203.0944 59.82197,203.0944 59.82197,203.0944 C59.82197,203.0944 59.82197,203.0944 59.82197,203.0944 ZM154.10357,222.25984Q139.80677,222.25984 129.60581,214.91824 Q119.40485,207.57664 113.95661,194.67088 Q108.50837,181.76512 108.50837,165.07264 Q108.50837,148.38016 114.30437,135.93808 Q120.10037,123.496 130.37861,116.61808 Q140.65685,109.74016 154.10357,109.74016 Q167.85941,109.74016 178.09901,116.61808 Q188.33861,123.496 194.01869,135.93808 Q199.69877,148.38016 199.69877,165.07264 Q199.69877,181.76512 194.28917,194.67088 Q188.87957,207.57664 178.67861,214.91824 Q168.47765,222.25984 154.10357,222.25984 Q154.10357,222.25984 154.10357,222.25984 ZM154.10357,208.96768Q163.68629,208.96768 170.37101,203.8672 Q177.05573,198.76672 180.57197,188.95216 Q184.08821,179.1376 184.08821,165.07264 Q184.08821,143.9752 175.93517,133.50376 Q167.78213,123.03232 154.10357,123.03232 Q141.12053,123.03232 132.61973,133.50376 Q124.11893,143.9752 124.11893,165.07264 Q124.11893,179.1376 127.63517,188.95216 Q131.15141,198.76672 137.83613,203.8672 Q144.52085,208.96768 154.10357,208.96768 Q154.10357,208.96768 154.10357,208.96768 Z" fill="#ff002d"/>
	</g>
</g></g></svg>