<svg xmlns="http://www.w3.org/2000/svg" viewBox="0 0 238 332" width="238" height="332"><defs><clipPath id="artboard-18154791981688714569"><rect x="0" y="0" width="238" height="332"/></clipPath></defs><g>
<g clip-path="url(#artboard-18154791981688714569)">
	<g>
		<path d="M36.71525,203.0944C36.71525,203.0944 36.71525,182.53792 36.71525,182.53792 C36.71525,182.53792 15.84965,182.53792 15.84965,182.53792 C15.84965,182.53792 15.84965,170.79136 15.84965,170.79136 C15.84965,170.79136 36.71525,170.79136 36.71525,170.79136 C36.71525,170.79136 36.71525,150.23488 36.71525,150.23488 C36.71525,150.23488 49.08005,150.23488 49.08005,150.23488 C49.08005,150.23488 49.08005,170.79136 49.08005,170.79136 C49.08005,170.79136 69.94565,170.79136 69.94565,170.79136 C69.94565,170.79136 69.94565,182.53792 69.94565,182.53792 C69.94565,182.53792 49.08005,182.53792 49.08005,182.53792 C49.08005,182.53792 49.08005,203.0944 49.08005,203.0944 C49.08005,203.0944 36.71525,203.0944 36.71525,203.0944 C36.71525,203.0944 36.71525,203.0944 36.71525,203.0944 ZM96.68453,220.096C96.68453,220.096 96.68453,133.07872 96.68453,133.07872 Q91.12037,137.56096 87.48821,139.49296 Q83.85605,141.42496 80.61029,142.50688 Q78.13733,128.75104 78.13733,128.75104 Q82.31045,127.36 86.67677,124.77112 Q91.04309,122.18224 94.79117,118.8592 Q98.53925,115.53616 100.85765,111.904 Q110.90405,111.904 110.90405,111.904 C110.90405,111.904 110.90405,220.096 110.90405,220.096 C110.90405,220.096 96.68453,220.096 96.68453,220.096 C96.68453,220.096 96.68453,220.096 96.68453,220.096 ZM177.21029,222.25984Q162.91349,222.25984 152.71253,214.91824 Q142.51157,207.57664 137.06333,194.67088 Q131.61509,181.76512 131.61509,165.07264 Q131.61509,148.38016 137.41109,135.93808 Q143.20709,123.496 153.48533,116.61808 Q163.76357,109.74016 177.21029,109.74016 Q190.96613,109.74016 201.20573,116.61808 Q211.44533,123.496 217.12541,135.93808 Q222.80549,148.38016 222.80549,165.07264 Q222.80549,181.76512 217.39589,194.67088 Q211.98629,207.57664 201.78533,214.91824 Q191.58437,222.25984 177.21029,222.25984 Q177.21029,222.25984 177.21029,222.25984 ZM177.21029,208.96768Q186.79301,208.96768 193.47773,203.8672 Q200.16245,198.76672 203.67869,188.95216 Q207.19493,179.1376 207.19493,165.07264 Q207.19493,143.9752 199.04189,133.50376 Q190.88885,123.03232 177.21029,123.03232 Q164.22725,123.03232 155.72645,133.50376 Q147.22565,143.9752 147.22565,165.07264 Q147.22565,179.1376 150.74189,188.95216 Q154.25813,198.76672 160.94285,203.8672 Q167.62757,208.96768 177.21029,208.96768 Q177.21029,208.96768 177.21029,208.96768 Z" transform="matrix(1,0,0,1,0,0)" fill="none" stroke="#000000" stroke-width="10.80000000000001" stroke-linecap="round" stroke-linejoin="round"/>
	</g>
	<g>
		<path d="M36.71525,203.0944C36.71525,203.0944 36.71525,182.53792 36.71525,182.53792 C36.71525,182.53792 15.84965,182.53792 15.84965,182.53792 C15.84965,182.53792 15.84965,170.79136 15.84965,170.79136 C15.84965,170.79136 36.71525,170.79136 36.71525,170.79136 C36.71525,170.79136 36.71525,150.23488 36.71525,150.23488 C36.71525,150.23488 49.08005,150.23488 49.08005,150.23488 C49.08005,150.23488 49.08005,170.79136 49.08005,170.79136 C49.08005,170.79136 69.94565,170.79136 69.94565,170.79136 C69.94565,170.79136 69.94565,182.53792 69.94565,182.53792 C69.94565,182.53792 49.08005,182.53792 49.08005,182.53792 C49.08005,182.53792 49.08005,203.0944 49.08005,203.0944 C49.08005,203.0944 36.71525,203.0944 36.71525,203.0944 C36.71525,203.0944 36.71525,203.0944 36.71525,203.0944 ZM96.68453,220.096C96.68453,220.096 96.68453,133.07872 96.68453,133.07872 Q91.12037,137.56096 87.48821,139.49296 Q83.85605,141.42496 80.61029,142.50688 Q78.13733,128.75104 78.13733,128.75104 Q82.31045,127.36 86.67677,124.77112 Q91.04309,122.18224 94.79117,118.8592 Q98.53925,115.53616 100.85765,111.904 Q110.90405,111.904 110.90405,111.904 C110.90405,111.904 110.90405,220.096 110.90405,220.096 C110.90405,220.096 96.68453,220.096 96.68453,220.096 C96.68453,220.096 96.68453,220.096 96.68453,220.096 ZM177.21029,222.25984Q162.91349,222.25984 152.71253,214.91824 Q142.51157,207.57664 137.06333,194.67088 Q131.61509,181.76512 131.61509,165.07264 Q131.61509,148.38016 137.41109,135.93808 Q143.20709,123.496 153.48533,116.61808 Q163.76357,109.74016 177.21029,109.74016 Q190.96613,109.74016 201.20573,116.61808 Q211.44533,123.496 217.12541,135.93808 Q222.80549,148.38016 222.80549,165.07264 Q222.80549,181.76512 217.39589,194.67088 Q211.98629,207.57664 201.78533,214.91824 Q191.58437,222.25984 177.21029,222.25984 Q177.21029,222.25984 177.21029,222.25984 ZM177.21029,208.96768Q186.79301,208.96768 193.47773,203.8672 Q200.16245,198.76672 203.67869,188.95216 Q207.19493,179.1376 207.19493,165.07264 Q207.19493,143.9752 199.04189,133.50376 Q190.88885,123.03232 177.21029,123.03232 Q164.22725,123.03232 155.72645,133.50376 Q147.22565,143.9752 147.22565,165.07264 Q147.22565,179.1376 150.74189,188.95216 Q154.25813,198.76672 160.94285,203.8672 Q167.62757,208.96768 177.21029,208.96768 Q177.21029,208.96768 177.21029,208.96768 Z" fill="#ff002d"/>
	</g>
</g></g></svg>