<svg xmlns="http://www.w3.org/2000/svg" viewBox="0 0 238 332" width="238" height="332"><defs><clipPath id="artboard-13009553358023061862"><rect x="0" y="0" width="238" height="332"/></clipPath></defs><g>
<g clip-path="url(#artboard-13009553358023061862)">
	<g>
		<path d="M47.9024,202.01248C47.9024,202.01248 47.9024,181.456 47.9024,181.456 C47.9024,181.456 27.0368,181.456 27.0368,181.456 C27.0368,181.456 27.0368,169.70944 27.0368,169.70944 C27.0368,169.70944 47.9024,169.70944 47.9024,169.70944 C47.9024,169.70944 47.9024,149.15296 47.9024,149.15296 C47.9024,149.15296 60.2672,149.15296 60.2672,149.15296 C60.2672,149.15296 60.2672,169.70944 60.2672,169.70944 C60.2672,169.70944 81.1328,169.70944 81.1328,169.70944 C81.1328,169.70944 81.1328,181.456 81.1328,181.456 C81.1328,181.456 60.2672,181.456 60.2672,181.456 C60.2672,181.456 60.2672,202.01248 60.2672,202.01248 C60.2672,202.01248 47.9024,202.01248 47.9024,202.01248 C47.9024,202.01248 47.9024,202.01248 47.9024,202.01248 ZM107.87168,219.01408C107.87168,219.01408 107.87168,131.9968 107.87168,131.9968 Q102.30752,136.47904 98.67536,138.41104 Q95.0432,140.34304 91.79744,141.42496 Q89.32448,127.66912 89.32448,127.66912 Q93.4976,126.27808 97.86392,123.6892 Q102.23024,121.10032 105.97832,117.77728 Q109.7264,114.45424 112.0448,110.82208 Q122.0912,110.82208 122.0912,110.82208 C122.0912,110.82208 122.0912,219.01408 122.0912,219.01408 C122.0912,219.01408 107.87168,219.01408 107.87168,219.01408 C107.87168,219.01408 107.87168,219.01408 107.87168,219.01408 ZM172.47776,221.17792Q163.89968,221.17792 156.01712,218.9368 Q148.13456,216.69568 142.33856,212.98624 Q145.89344,199.38496 145.89344,199.38496 Q151.61216,202.47616 157.79456,204.71728 Q163.97696,206.9584 171.70496,206.9584 Q182.06048,206.9584 188.47472,201.12376 Q194.88896,195.28912 194.88896,185.47456 Q194.88896,174.34624 187.93376,168.55024 Q180.97856,162.75424 169.85024,162.75424 Q163.97696,162.75424 158.76056,163.60432 Q153.54416,164.4544 148.05728,165.84544 Q154.70336,110.82208 154.70336,110.82208 C154.70336,110.82208 205.70816,110.82208 205.70816,110.82208 C205.70816,110.82208 205.08992,124.73248 205.08992,124.73248 C205.08992,124.73248 166.75904,124.73248 166.75904,124.73248 C166.75904,124.73248 162.74048,158.58112 162.74048,158.58112 C162.74048,158.58112 159.49472,152.24416 159.49472,152.24416 Q162.97232,151.54864 166.83632,151.1236 Q170.70032,150.69856 174.6416,150.69856 Q186.15632,150.69856 194.27072,155.21944 Q202.38512,159.74032 206.67416,167.62288 Q210.9632,175.50544 210.9632,185.47456 Q210.9632,196.44832 205.90136,204.4468 Q200.83952,212.44528 192.14552,216.8116 Q183.45152,221.17792 172.47776,221.17792 Q172.47776,221.17792 172.47776,221.17792 Z" fill="none" stroke="#000000" stroke-width="10.80000000000001" stroke-linecap="round" stroke-linejoin="round"/>
	</g>
	<g>
		<path d="M47.9024,202.01248C47.9024,202.01248 47.9024,181.456 47.9024,181.456 C47.9024,181.456 27.0368,181.456 27.0368,181.456 C27.0368,181.456 27.0368,169.70944 27.0368,169.70944 C27.0368,169.70944 47.9024,169.70944 47.9024,169.70944 C47.9024,169.70944 47.9024,149.15296 47.9024,149.15296 C47.9024,149.15296 60.2672,149.15296 60.2672,149.15296 C60.2672,149.15296 60.2672,169.70944 60.2672,169.70944 C60.2672,169.70944 81.1328,169.70944 81.1328,169.70944 C81.1328,169.70944 81.1328,181.456 81.1328,181.456 C81.1328,181.456 60.2672,181.456 60.2672,181.456 C60.2672,181.456 60.2672,202.01248 60.2672,202.01248 C60.2672,202.01248 47.9024,202.01248 47.9024,202.01248 C47.9024,202.01248 47.9024,202.01248 47.9024,202.01248 ZM107.87168,219.01408C107.87168,219.01408 107.87168,131.9968 107.87168,131.9968 Q102.30752,136.47904 98.67536,138.41104 Q95.0432,140.34304 91.79744,141.42496 Q89.32448,127.66912 89.32448,127.66912 Q93.4976,126.27808 97.86392,123.6892 Q102.23024,121.10032 105.97832,117.77728 Q109.7264,114.45424 112.0448,110.82208 Q122.0912,110.82208 122.0912,110.82208 C122.0912,110.82208 122.0912,219.01408 122.0912,219.01408 C122.0912,219.01408 107.87168,219.01408 107.87168,219.01408 C107.87168,219.01408 107.87168,219.01408 107.87168,219.01408 ZM172.47776,221.17792Q163.89968,221.17792 156.01712,218.9368 Q148.13456,216.69568 142.33856,212.98624 Q145.89344,199.38496 145.89344,199.38496 Q151.61216,202.47616 157.79456,204.71728 Q163.97696,206.9584 171.70496,206.9584 Q182.06048,206.9584 188.47472,201.12376 Q194.88896,195.28912 194.88896,185.47456 Q194.88896,174.34624 187.93376,168.55024 Q180.97856,162.75424 169.85024,162.75424 Q163.97696,162.75424 158.76056,163.60432 Q153.54416,164.4544 148.05728,165.84544 Q154.70336,110.82208 154.70336,110.82208 C154.70336,110.82208 205.70816,110.82208 205.70816,110.82208 C205.70816,110.82208 205.08992,124.73248 205.08992,124.73248 C205.08992,124.73248 166.75904,124.73248 166.75904,124.73248 C166.75904,124.73248 162.74048,158.58112 162.74048,158.58112 C162.74048,158.58112 159.49472,152.24416 159.49472,152.24416 Q162.97232,151.54864 166.83632,151.1236 Q170.70032,150.69856 174.6416,150.69856 Q186.15632,150.69856 194.27072,155.21944 Q202.38512,159.74032 206.67416,167.62288 Q210.9632,175.50544 210.9632,185.47456 Q210.9632,196.44832 205.90136,204.4468 Q200.83952,212.44528 192.14552,216.8116 Q183.45152,221.17792 172.47776,221.17792 Q172.47776,221.17792 172.47776,221.17792 Z" fill="#ff002d"/>
	</g>
</g></g></svg>