<svg xmlns="http://www.w3.org/2000/svg" viewBox="0 0 238 332" width="238" height="332"><defs><clipPath id="artboard-14749629591890282337"><rect x="0" y="0" width="238" height="332"/></clipPath></defs><g>
<g clip-path="url(#artboard-14749629591890282337)">
	<g>
		<path d="M71.33669,202.01248C71.33669,202.01248 71.33669,181.456 71.33669,181.456 C71.33669,181.456 50.47109,181.456 50.47109,181.456 C50.47109,181.456 50.47109,169.70944 50.47109,169.70944 C50.47109,169.70944 71.33669,169.70944 71.33669,169.70944 C71.33669,169.70944 71.33669,149.15296 71.33669,149.15296 C71.33669,149.15296 83.70149,149.15296 83.70149,149.15296 C83.70149,149.15296 83.70149,169.70944 83.70149,169.70944 C83.70149,169.70944 104.56709,169.70944 104.56709,169.70944 C104.56709,169.70944 104.56709,181.456 104.56709,181.456 C104.56709,181.456 83.70149,181.456 83.70149,181.456 C83.70149,181.456 83.70149,202.01248 83.70149,202.01248 C83.70149,202.01248 71.33669,202.01248 71.33669,202.01248 C71.33669,202.01248 71.33669,202.01248 71.33669,202.01248 ZM149.69861,221.17792Q141.12053,221.17792 133.23797,218.9368 Q125.35541,216.69568 119.55941,212.98624 Q123.11429,199.38496 123.11429,199.38496 Q128.83301,202.47616 135.01541,204.71728 Q141.19781,206.9584 148.92581,206.9584 Q159.28133,206.9584 165.69557,201.12376 Q172.10981,195.28912 172.10981,185.47456 Q172.10981,174.34624 165.15461,168.55024 Q158.19941,162.75424 147.07109,162.75424 Q141.19781,162.75424 135.98141,163.60432 Q130.76501,164.4544 125.27813,165.84544 Q131.92421,110.82208 131.92421,110.82208 C131.92421,110.82208 182.92901,110.82208 182.92901,110.82208 C182.92901,110.82208 182.31077,124.73248 182.31077,124.73248 C182.31077,124.73248 143.97989,124.73248 143.97989,124.73248 C143.97989,124.73248 139.96133,158.58112 139.96133,158.58112 C139.96133,158.58112 136.71557,152.24416 136.71557,152.24416 Q140.19317,151.54864 144.05717,151.1236 Q147.92117,150.69856 151.86245,150.69856 Q163.37717,150.69856 171.49157,155.21944 Q179.60597,159.74032 183.89501,167.62288 Q188.18405,175.50544 188.18405,185.47456 Q188.18405,196.44832 183.12221,204.4468 Q178.06037,212.44528 169.36637,216.8116 Q160.67237,221.17792 149.69861,221.17792 Q149.69861,221.17792 149.69861,221.17792 Z" transform="matrix(1,0,0,1,0,0)" fill="none" stroke="#000000" stroke-width="10.80000000000001" stroke-linecap="round" stroke-linejoin="round"/>
	</g>
	<g>
		<path d="M71.33669,202.01248C71.33669,202.01248 71.33669,181.456 71.33669,181.456 C71.33669,181.456 50.47109,181.456 50.47109,181.456 C50.47109,181.456 50.47109,169.70944 50.47109,169.70944 C50.47109,169.70944 71.33669,169.70944 71.33669,169.70944 C71.33669,169.70944 71.33669,149.15296 71.33669,149.15296 C71.33669,149.15296 83.70149,149.15296 83.70149,149.15296 C83.70149,149.15296 83.70149,169.70944 83.70149,169.70944 C83.70149,169.70944 104.56709,169.70944 104.56709,169.70944 C104.56709,169.70944 104.56709,181.456 104.56709,181.456 C104.56709,181.456 83.70149,181.456 83.70149,181.456 C83.70149,181.456 83.70149,202.01248 83.70149,202.01248 C83.70149,202.01248 71.33669,202.01248 71.33669,202.01248 C71.33669,202.01248 71.33669,202.01248 71.33669,202.01248 ZM149.69861,221.17792Q141.12053,221.17792 133.23797,218.9368 Q125.35541,216.69568 119.55941,212.98624 Q123.11429,199.38496 123.11429,199.38496 Q128.83301,202.47616 135.01541,204.71728 Q141.19781,206.9584 148.92581,206.9584 Q159.28133,206.9584 165.69557,201.12376 Q172.10981,195.28912 172.10981,185.47456 Q172.10981,174.34624 165.15461,168.55024 Q158.19941,162.75424 147.07109,162.75424 Q141.19781,162.75424 135.98141,163.60432 Q130.76501,164.4544 125.27813,165.84544 Q131.92421,110.82208 131.92421,110.82208 C131.92421,110.82208 182.92901,110.82208 182.92901,110.82208 C182.92901,110.82208 182.31077,124.73248 182.31077,124.73248 C182.31077,124.73248 143.97989,124.73248 143.97989,124.73248 C143.97989,124.73248 139.96133,158.58112 139.96133,158.58112 C139.96133,158.58112 136.71557,152.24416 136.71557,152.24416 Q140.19317,151.54864 144.05717,151.1236 Q147.92117,150.69856 151.86245,150.69856 Q163.37717,150.69856 171.49157,155.21944 Q179.60597,159.74032 183.89501,167.62288 Q188.18405,175.50544 188.18405,185.47456 Q188.18405,196.44832 183.12221,204.4468 Q178.06037,212.44528 169.36637,216.8116 Q160.67237,221.17792 149.69861,221.17792 Q149.69861,221.17792 149.69861,221.17792 Z" fill="#ff002d"/>
	</g>
</g></g></svg>