<?xml version="1.0" encoding="UTF-8" standalone="no"?>
<svg
   width="240"
   height="80"
   version="1.1"
   id="svg11"
   sodipodi:docname="start-tutorial-english.svg"
   inkscape:version="1.3.2 (091e20e, 2023-11-25)"
   xmlns:inkscape="http://www.inkscape.org/namespaces/inkscape"
   xmlns:sodipodi="http://sodipodi.sourceforge.net/DTD/sodipodi-0.dtd"
   xmlns="http://www.w3.org/2000/svg"
   xmlns:svg="http://www.w3.org/2000/svg">
  <sodipodi:namedview
     id="namedview11"
     pagecolor="#ffffff"
     bordercolor="#000000"
     borderopacity="0.25"
     inkscape:showpageshadow="2"
     inkscape:pageopacity="0.0"
     inkscape:pagecheckerboard="0"
     inkscape:deskcolor="#d1d1d1"
     inkscape:zoom="1.4958333"
     inkscape:cx="119.66574"
     inkscape:cy="40.111421"
     inkscape:window-width="1312"
     inkscape:window-height="449"
     inkscape:window-x="0"
     inkscape:window-y="38"
     inkscape:window-maximized="0"
     inkscape:current-layer="svg11" />
  <!-- Define gradients for 3D effect -->
  <defs
     id="defs7">
    <!-- Purple gradient for button body -->
    <linearGradient
       id="buttonGradient"
       x1="0%"
       y1="0%"
       x2="0%"
       y2="100%">
      <stop
         offset="0%"
         style="stop-color:#9D5FFF;stop-opacity:1"
         id="stop1" />
      <stop
         offset="50%"
         style="stop-color:#7B3FF2;stop-opacity:1"
         id="stop2" />
      <stop
         offset="100%"
         style="stop-color:#5A2DB8;stop-opacity:1"
         id="stop3" />
    </linearGradient>
    <!-- Highlight gradient for top shine -->
    <linearGradient
       id="shineGradient"
       x1="0%"
       y1="0%"
       x2="0%"
       y2="100%">
      <stop
         offset="0%"
         style="stop-color:#FFFFFF;stop-opacity:0.4"
         id="stop4" />
      <stop
         offset="50%"
         style="stop-color:#FFFFFF;stop-opacity:0"
         id="stop5" />
    </linearGradient>
    <!-- Text gradient for depth -->
    <linearGradient
       id="textGradient"
       x1="0%"
       y1="0%"
       x2="0%"
       y2="100%">
      <stop
         offset="0%"
         style="stop-color:#66FF66;stop-opacity:1"
         id="stop6" />
      <stop
         offset="100%"
         style="stop-color:#00FF41;stop-opacity:1"
         id="stop7" />
    </linearGradient>
  </defs>
  <!-- Shadow for depth -->
  <rect
     x="10"
     y="14"
     width="220"
     height="60"
     rx="18"
     ry="18"
     fill="#000000"
     opacity="0.3"
     id="rect7" />
  <!-- Outer glow border -->
  <rect
     x="6"
     y="6"
     width="228"
     height="68"
     rx="20"
     ry="20"
     fill="none"
     stroke="#FFB3FF"
     stroke-width="3"
     opacity="0.6"
     id="rect8" />
  <!-- Main bright pink border -->
  <rect
     x="10"
     y="10"
     width="220"
     height="60"
     rx="18"
     ry="18"
     fill="none"
     stroke="#FF66FF"
     stroke-width="6"
     id="rect9" />
  <!-- Main button with gradient -->
  <rect
     x="13"
     y="13"
     width="214"
     height="54"
     rx="16"
     ry="16"
     fill="url(#buttonGradient)"
     id="rect10" />
  <!-- Top shine overlay -->
  <rect
     x="13"
     y="13"
     width="214"
     height="27"
     rx="16"
     ry="16"
     fill="url(#shineGradient)"
     id="rect11" />
  <!-- Bright green text - large and perfectly centered -->
  <path
     d="m 22.78125,43.84375 4.5,-0.4375 q 0.40625,2.265625 1.640625,3.328125 1.25,1.0625 3.359375,1.0625 2.234375,0 3.359375,-0.9375 1.140625,-0.953125 1.140625,-2.21875 0,-0.8125 -0.484375,-1.375 -0.46875,-0.578125 -1.65625,-1 -0.8125,-0.28125 -3.703125,-1 Q 27.21875,40.34375 25.71875,39 q -2.109375,-1.890625 -2.109375,-4.609375 0,-1.75 0.984375,-3.265625 1,-1.53125 2.859375,-2.328125 Q 29.328125,28 31.96875,28 q 4.3125,0 6.484375,1.890625 2.1875,1.890625 2.296875,5.046875 l -4.625,0.203125 q -0.296875,-1.765625 -1.28125,-2.53125 -0.96875,-0.78125 -2.921875,-0.78125 -2.015625,0 -3.15625,0.828125 -0.734375,0.53125 -0.734375,1.421875 0,0.8125 0.6875,1.390625 0.875,0.734375 4.25,1.53125 3.375,0.796875 4.984375,1.65625 1.625,0.84375 2.53125,2.328125 0.921875,1.46875 0.921875,3.640625 0,1.96875 -1.09375,3.6875 -1.09375,1.71875 -3.09375,2.5625 -2,0.828125 -4.984375,0.828125 -4.34375,0 -6.671875,-2 Q 23.234375,47.6875 22.78125,43.84375 Z M 52.875,34.703125 v 3.5 h -3 v 6.6875 q 0,2.03125 0.07813,2.375 0.09375,0.328125 0.390625,0.546875 0.3125,0.21875 0.75,0.21875 0.609375,0 1.765625,-0.421875 l 0.375,3.40625 q -1.53125,0.65625 -3.46875,0.65625 -1.1875,0 -2.140625,-0.390625 Q 46.671875,50.875 46.21875,50.25 45.78125,49.609375 45.609375,48.53125 45.46875,47.765625 45.46875,45.4375 v -7.234375 h -2.015625 v -3.5 H 45.46875 V 31.40625 l 4.40625,-2.5625 v 5.859375 z m 6.328125,5.0625 -3.984375,-0.71875 q 0.671875,-2.40625 2.3125,-3.5625 1.640625,-1.15625 4.875,-1.15625 2.9375,0 4.375,0.703125 1.4375,0.6875 2.015625,1.765625 0.59375,1.0625 0.59375,3.921875 l -0.04687,5.125 q 0,2.1875 0.203125,3.234375 0.21875,1.03125 0.796875,2.21875 H 66 Q 65.828125,50.859375 65.578125,50 q -0.109375,-0.390625 -0.15625,-0.515625 -1.125,1.09375 -2.40625,1.640625 -1.28125,0.546875 -2.734375,0.546875 -2.5625,0 -4.046875,-1.390625 -1.46875,-1.390625 -1.46875,-3.515625 0,-1.40625 0.671875,-2.5 0.671875,-1.109375 1.875,-1.6875 1.21875,-0.59375 3.5,-1.03125 3.078125,-0.578125 4.265625,-1.078125 v -0.4375 q 0,-1.265625 -0.625,-1.796875 -0.625,-0.546875 -2.359375,-0.546875 -1.171875,0 -1.828125,0.46875 -0.65625,0.453125 -1.0625,1.609375 z m 5.875,3.5625 Q 64.234375,43.609375 62.40625,44 60.578125,44.390625 60.015625,44.765625 59.15625,45.375 59.15625,46.3125 q 0,0.921875 0.6875,1.59375 0.6875,0.671875 1.75,0.671875 1.1875,0 2.265625,-0.78125 0.796875,-0.59375 1.046875,-1.453125 0.171875,-0.5625 0.171875,-2.140625 z m 12.84375,7.96875 H 73.53125 v -16.59375 h 4.078125 V 37.0625 q 1.046875,-1.671875 1.875,-2.203125 0.84375,-0.53125 1.90625,-0.53125 1.5,0 2.890625,0.828125 l -1.359375,3.828125 q -1.109375,-0.71875 -2.0625,-0.71875 -0.921875,0 -1.5625,0.515625 -0.640625,0.5 -1.015625,1.828125 -0.359375,1.328125 -0.359375,5.5625 z M 93.78125,34.703125 v 3.5 h -3 v 6.6875 q 0,2.03125 0.07813,2.375 0.09375,0.328125 0.390625,0.546875 0.3125,0.21875 0.75,0.21875 0.609375,0 1.765625,-0.421875 l 0.375,3.40625 q -1.53125,0.65625 -3.46875,0.65625 -1.1875,0 -2.140625,-0.390625 Q 87.578125,50.875 87.125,50.25 86.6875,49.609375 86.515625,48.53125 86.375,47.765625 86.375,45.4375 v -7.234375 h -2.015625 v -3.5 H 86.375 V 31.40625 l 4.40625,-2.5625 v 5.859375 z m 17.125,16.59375 v -19.03125 h -6.79687 v -3.875 h 18.20312 v 3.875 h -6.78125 v 19.03125 z m 22.90625,0 V 48.8125 q -0.90625,1.328125 -2.39063,2.09375 -1.46875,0.765625 -3.10937,0.765625 -1.67187,0 -3,-0.734375 -1.32812,-0.734375 -1.92187,-2.0625 -0.59375,-1.328125 -0.59375,-3.671875 v -10.5 h 4.39062 v 7.625 q 0,3.5 0.23438,4.296875 0.25,0.78125 0.89062,1.25 0.64062,0.453125 1.625,0.453125 1.125,0 2.01562,-0.609375 0.89063,-0.625 1.21875,-1.53125 Q 133.5,45.265625 133.5,41.703125 v -7 h 4.39062 v 16.59375 z m 16.23437,-16.59375 v 3.5 h -3 v 6.6875 q 0,2.03125 0.0781,2.375 0.0937,0.328125 0.39062,0.546875 0.3125,0.21875 0.75,0.21875 0.60938,0 1.76563,-0.421875 l 0.375,3.40625 q -1.53125,0.65625 -3.46875,0.65625 -1.1875,0 -2.14063,-0.390625 -0.95312,-0.40625 -1.40625,-1.03125 -0.4375,-0.640625 -0.60937,-1.71875 -0.14063,-0.765625 -0.14063,-3.09375 V 38.203125 H 140.625 v -3.5 h 2.01562 V 31.40625 l 4.40625,-2.5625 v 5.859375 z m 2.03125,8.0625 q 0,-2.1875 1.07813,-4.234375 1.07812,-2.046875 3.04687,-3.125 1.98438,-1.078125 4.42188,-1.078125 3.76562,0 6.17187,2.453125 2.40625,2.4375 2.40625,6.171875 0,3.765625 -2.4375,6.25 -2.42187,2.46875 -6.10937,2.46875 -2.28125,0 -4.35938,-1.03125 -2.0625,-1.03125 -3.14062,-3.015625 -1.07813,-2 -1.07813,-4.859375 z m 4.5,0.234375 q 0,2.46875 1.17188,3.78125 1.17187,1.3125 2.89062,1.3125 1.71875,0 2.875,-1.3125 1.17188,-1.3125 1.17188,-3.8125 0,-2.4375 -1.17188,-3.75 -1.15625,-1.3125 -2.875,-1.3125 -1.71875,0 -2.89062,1.3125 -1.17188,1.3125 -1.17188,3.78125 z m 20.26563,8.296875 h -4.39063 v -16.59375 h 4.07813 V 37.0625 q 1.04687,-1.671875 1.875,-2.203125 0.84375,-0.53125 1.90625,-0.53125 1.5,0 2.89062,0.828125 l -1.35937,3.828125 q -1.10938,-0.71875 -2.0625,-0.71875 -0.92188,0 -1.5625,0.515625 -0.64063,0.5 -1.01563,1.828125 -0.35937,1.328125 -0.35937,5.5625 z m 8.25,-18.84375 v -4.0625 h 4.39062 v 4.0625 z m 0,18.84375 v -16.59375 h 4.39062 v 16.59375 z m 12.17187,-11.53125 -3.98437,-0.71875 q 0.67187,-2.40625 2.3125,-3.5625 1.64062,-1.15625 4.875,-1.15625 2.9375,0 4.375,0.703125 1.4375,0.6875 2.01562,1.765625 0.59375,1.0625 0.59375,3.921875 l -0.0469,5.125 q 0,2.1875 0.20312,3.234375 0.21875,1.03125 0.79688,2.21875 H 204.0625 Q 203.89062,50.859375 203.64062,50 q -0.10937,-0.390625 -0.15625,-0.515625 -1.125,1.09375 -2.40625,1.640625 -1.28125,0.546875 -2.73437,0.546875 -2.5625,0 -4.04688,-1.390625 -1.46875,-1.390625 -1.46875,-3.515625 0,-1.40625 0.67188,-2.5 0.67187,-1.109375 1.875,-1.6875 1.21875,-0.59375 3.5,-1.03125 3.07812,-0.578125 4.26562,-1.078125 v -0.4375 q 0,-1.265625 -0.625,-1.796875 -0.625,-0.546875 -2.35937,-0.546875 -1.17188,0 -1.82813,0.46875 -0.65625,0.453125 -1.0625,1.609375 z m 5.875,3.5625 q -0.84375,0.28125 -2.67187,0.671875 -1.82813,0.390625 -2.39063,0.765625 -0.85937,0.609375 -0.85937,1.546875 0,0.921875 0.6875,1.59375 0.6875,0.671875 1.75,0.671875 1.1875,0 2.26562,-0.78125 0.79688,-0.59375 1.04688,-1.453125 0.17187,-0.5625 0.17187,-2.140625 z m 8.64063,7.96875 v -22.90625 h 4.39062 v 22.90625 z"
     id="text11"
     style="font-weight:bold;font-size:32px;font-family:Arial, sans-serif;dominant-baseline:middle;text-anchor:middle;fill:url(#textGradient);stroke:#004400;stroke-width:1px;stroke-linejoin:round;paint-order:stroke"
     aria-label="Start Tutorial" />
</svg>
