<?xml version="1.0" encoding="UTF-8" standalone="no"?>
<svg
   width="240"
   height="80"
   version="1.1"
   id="svg11"
   sodipodi:docname="start-tutorial-german.svg"
   inkscape:version="1.3.2 (091e20e, 2023-11-25)"
   xmlns:inkscape="http://www.inkscape.org/namespaces/inkscape"
   xmlns:sodipodi="http://sodipodi.sourceforge.net/DTD/sodipodi-0.dtd"
   xmlns="http://www.w3.org/2000/svg"
   xmlns:svg="http://www.w3.org/2000/svg">
  <sodipodi:namedview
     id="namedview11"
     pagecolor="#ffffff"
     bordercolor="#000000"
     borderopacity="0.25"
     inkscape:showpageshadow="2"
     inkscape:pageopacity="0.0"
     inkscape:pagecheckerboard="0"
     inkscape:deskcolor="#d1d1d1"
     inkscape:zoom="1.4958333"
     inkscape:cx="119.66574"
     inkscape:cy="40.111421"
     inkscape:window-width="1312"
     inkscape:window-height="449"
     inkscape:window-x="0"
     inkscape:window-y="38"
     inkscape:window-maximized="0"
     inkscape:current-layer="svg11" />
  <!-- Define gradients for 3D effect -->
  <defs
     id="defs7">
    <!-- Purple gradient for button body -->
    <linearGradient
       id="buttonGradient"
       x1="0%"
       y1="0%"
       x2="0%"
       y2="100%">
      <stop
         offset="0%"
         style="stop-color:#9D5FFF;stop-opacity:1"
         id="stop1" />
      <stop
         offset="50%"
         style="stop-color:#7B3FF2;stop-opacity:1"
         id="stop2" />
      <stop
         offset="100%"
         style="stop-color:#5A2DB8;stop-opacity:1"
         id="stop3" />
    </linearGradient>
    <!-- Highlight gradient for top shine -->
    <linearGradient
       id="shineGradient"
       x1="0%"
       y1="0%"
       x2="0%"
       y2="100%">
      <stop
         offset="0%"
         style="stop-color:#FFFFFF;stop-opacity:0.4"
         id="stop4" />
      <stop
         offset="50%"
         style="stop-color:#FFFFFF;stop-opacity:0"
         id="stop5" />
    </linearGradient>
    <!-- Text gradient for depth -->
    <linearGradient
       id="textGradient"
       x1="0%"
       y1="0%"
       x2="0%"
       y2="100%">
      <stop
         offset="0%"
         style="stop-color:#66FF66;stop-opacity:1"
         id="stop6" />
      <stop
         offset="100%"
         style="stop-color:#00FF41;stop-opacity:1"
         id="stop7" />
    </linearGradient>
  </defs>
  <!-- Shadow for depth -->
  <rect
     x="10"
     y="14"
     width="220"
     height="60"
     rx="18"
     ry="18"
     fill="#000000"
     opacity="0.3"
     id="rect7" />
  <!-- Outer glow border -->
  <rect
     x="6"
     y="6"
     width="228"
     height="68"
     rx="20"
     ry="20"
     fill="none"
     stroke="#FFB3FF"
     stroke-width="3"
     opacity="0.6"
     id="rect8" />
  <!-- Main bright pink border -->
  <rect
     x="10"
     y="10"
     width="220"
     height="60"
     rx="18"
     ry="18"
     fill="none"
     stroke="#FF66FF"
     stroke-width="6"
     id="rect9" />
  <!-- Main button with gradient -->
  <rect
     x="13"
     y="13"
     width="214"
     height="54"
     rx="16"
     ry="16"
     fill="url(#buttonGradient)"
     id="rect10" />
  <!-- Top shine overlay -->
  <rect
     x="13"
     y="13"
     width="214"
     height="27"
     rx="16"
     ry="16"
     fill="url(#shineGradient)"
     id="rect11" />
  <!-- Bright green text - large and perfectly centered -->
  <path
     d="M 30.980469,49.741211 V 34.27832 h -5.522461 v -3.148437 h 14.790039 v 3.148437 h -5.509766 v 15.462891 z m 18.611328,0 v -2.018555 q -0.736328,1.079102 -1.942383,1.701172 -1.193359,0.62207 -2.526367,0.62207 -1.358399,0 -2.4375,-0.596679 -1.079102,-0.59668 -1.561524,-1.675782 -0.482421,-1.079101 -0.482421,-2.983398 v -8.53125 h 3.567382 v 6.195313 q 0,2.84375 0.19043,3.49121 0.203125,0.634766 0.723633,1.015625 0.520508,0.368165 1.320312,0.368165 0.914063,0 1.637696,-0.495118 0.723632,-0.507812 0.990234,-1.24414 0.266602,-0.749024 0.266602,-3.643555 v -5.6875 h 3.567382 v 13.482422 z m 13.19043,-13.482422 v 2.84375 h -2.4375 v 5.433594 q 0,1.65039 0.06348,1.929687 0.07617,0.266602 0.317383,0.444336 0.253906,0.177735 0.609375,0.177735 0.495117,0 1.43457,-0.342774 l 0.304688,2.767578 q -1.244141,0.533203 -2.81836,0.533203 -0.964843,0 -1.739257,-0.317382 -0.774415,-0.330079 -1.142579,-0.837891 -0.355468,-0.520508 -0.495117,-1.396484 -0.114258,-0.622071 -0.114258,-2.513672 v -5.87793 h -1.637695 v -2.84375 h 1.637695 v -2.678711 l 3.580079,-2.082031 v 4.760742 z m 1.65039,6.550781 q 0,-1.777343 0.875977,-3.440429 0.875976,-1.663086 2.475586,-2.539063 1.612304,-0.875976 3.592773,-0.875976 3.05957,0 5.014649,1.993164 1.955078,1.980468 1.955078,5.014648 0,3.05957 -1.980469,5.078125 -1.967774,2.005859 -4.963867,2.005859 -1.853516,0 -3.541992,-0.83789 -1.675782,-0.837891 -2.551758,-2.450196 -0.875977,-1.625 -0.875977,-3.948242 z M 68.088867,43 q 0,2.005859 0.952149,3.072266 0.952148,1.066406 2.348632,1.066406 1.396485,0 2.335938,-1.066406 0.952148,-1.066407 0.952148,-3.097657 0,-1.980468 -0.952148,-3.046875 -0.939453,-1.066406 -2.335938,-1.066406 -1.396484,0 -2.348632,1.066406 Q 68.088867,40.994141 68.088867,43 Z m 16.46582,6.741211 H 80.987305 V 36.258789 h 3.313476 v 1.916992 q 0.850586,-1.358398 1.523438,-1.790039 0.685547,-0.43164 1.548828,-0.43164 1.21875,0 2.348633,0.672851 l -1.104493,3.110352 Q 87.71582,39.15332 86.941406,39.15332 q -0.749023,0 -1.269531,0.418946 -0.520508,0.40625 -0.825195,1.485351 -0.291993,1.079102 -0.291993,4.519531 z m 6.703125,-15.310547 v -3.300781 h 3.567383 v 3.300781 z m 0,15.310547 V 36.258789 h 3.567383 v 13.482422 z m 9.889648,-9.369141 -3.237304,-0.583984 q 0.545899,-1.955078 1.878906,-2.894531 1.333008,-0.939453 3.960938,-0.939453 2.38672,0 3.55469,0.571289 1.16797,0.558593 1.63769,1.43457 0.48242,0.863281 0.48242,3.186523 l -0.0381,4.164063 q 0,1.777344 0.16504,2.62793 0.17773,0.83789 0.64746,1.802734 h -3.5293 q -0.13965,-0.355469 -0.34277,-1.053711 -0.0889,-0.317383 -0.12695,-0.418945 -0.91407,0.888672 -1.95508,1.333007 -1.04102,0.444336 -2.22168,0.444336 -2.082034,0 -3.288088,-1.129882 -1.19336,-1.129883 -1.19336,-2.856446 0,-1.142578 0.545899,-2.03125 0.545898,-0.901367 1.523437,-1.371093 0.990232,-0.482422 2.843752,-0.837891 2.50097,-0.469727 3.46582,-0.875977 v -0.355468 q 0,-1.028321 -0.50781,-1.459961 -0.50782,-0.444336 -1.917,-0.444336 -0.95214,0 -1.48535,0.380859 -0.5332,0.368164 -0.86328,1.307617 z m 4.77344,2.894532 q -0.68555,0.228515 -2.1709,0.545898 -1.48535,0.317383 -1.94238,0.62207 -0.69824,0.495117 -0.69824,1.256836 0,0.749024 0.55859,1.294922 0.55859,0.545899 1.42187,0.545899 0.96485,0 1.84082,-0.634766 0.64747,-0.482422 0.85059,-1.180664 0.13965,-0.457031 0.13965,-1.739258 z m 7.02051,6.474609 V 31.129883 h 3.56738 v 18.611328 z m 13.5205,-6.055664 3.65625,-0.355469 q 0.33008,1.84082 1.33301,2.704102 1.01563,0.863281 2.72949,0.863281 1.81543,0 2.7295,-0.761719 0.92675,-0.774414 0.92675,-1.802734 0,-0.660156 -0.39355,-1.117188 -0.38086,-0.469726 -1.3457,-0.8125 -0.66016,-0.228515 -3.00879,-0.8125 -3.02149,-0.749023 -4.24024,-1.84082 -1.71386,-1.536133 -1.71386,-3.745117 0,-1.421875 0.7998,-2.653321 0.8125,-1.24414 2.32324,-1.891601 1.52344,-0.647461 3.66895,-0.647461 3.5039,0 5.26855,1.536133 1.77735,1.536133 1.86621,4.100586 l -3.75781,0.165039 q -0.24121,-1.434571 -1.04101,-2.056641 -0.78711,-0.634765 -2.37403,-0.634765 -1.63769,0 -2.56445,0.672851 -0.59668,0.431641 -0.59668,1.155274 0,0.660156 0.55859,1.129882 0.71094,0.59668 3.45313,1.244141 2.74219,0.647461 4.0498,1.345703 1.32031,0.685547 2.05664,1.891602 0.74903,1.193359 0.74903,2.958007 0,1.59961 -0.88868,2.996094 -0.88867,1.396485 -2.51367,2.082031 -1.625,0.672852 -4.0498,0.672852 -3.5293,0 -5.4209,-1.625 -1.8916,-1.637695 -2.25977,-4.760742 z m 24.45118,-7.426758 v 2.84375 h -2.4375 v 5.433594 q 0,1.65039 0.0635,1.929687 0.0762,0.266602 0.31739,0.444336 0.2539,0.177735 0.60937,0.177735 0.49512,0 1.43457,-0.342774 l 0.30469,2.767578 q -1.24414,0.533203 -2.81836,0.533203 -0.96485,0 -1.73926,-0.317382 -0.77441,-0.330079 -1.14258,-0.837891 -0.35547,-0.520508 -0.49511,-1.396484 -0.11426,-0.622071 -0.11426,-2.513672 v -5.87793 h -1.6377 v -2.84375 h 1.6377 v -2.678711 l 3.58008,-2.082031 v 4.760742 z m 5.1416,4.113281 -3.23731,-0.583984 q 0.5459,-1.955078 1.87891,-2.894531 1.33301,-0.939453 3.96094,-0.939453 2.38672,0 3.55468,0.571289 1.16797,0.558593 1.6377,1.43457 0.48242,0.863281 0.48242,3.186523 l -0.0381,4.164063 q 0,1.777344 0.16503,2.62793 0.17774,0.83789 0.64747,1.802734 h -3.5293 q -0.13965,-0.355469 -0.34278,-1.053711 -0.0889,-0.317383 -0.12695,-0.418945 -0.91406,0.888672 -1.95508,1.333007 -1.04101,0.444336 -2.22168,0.444336 -2.08203,0 -3.28808,-1.129882 -1.19336,-1.129883 -1.19336,-2.856446 0,-1.142578 0.5459,-2.03125 0.5459,-0.901367 1.52343,-1.371093 0.99024,-0.482422 2.84375,-0.837891 2.50098,-0.469727 3.46582,-0.875977 v -0.355468 q 0,-1.028321 -0.50781,-1.459961 -0.50781,-0.444336 -1.91699,-0.444336 -0.95215,0 -1.48535,0.380859 -0.5332,0.368164 -0.86328,1.307617 z m 4.77343,2.894532 q -0.68554,0.228515 -2.17089,0.545898 -1.48536,0.317383 -1.94239,0.62207 -0.69824,0.495117 -0.69824,1.256836 0,0.749024 0.5586,1.294922 0.55859,0.545899 1.42187,0.545899 0.96484,0 1.84082,-0.634766 0.64746,-0.482422 0.85059,-1.180664 0.13964,-0.457031 0.13964,-1.739258 z m 10.43555,6.474609 h -3.56738 V 36.258789 h 3.31348 v 1.916992 q 0.85058,-1.358398 1.52343,-1.790039 0.68555,-0.43164 1.54883,-0.43164 1.21875,0 2.34863,0.672851 l -1.10449,3.110352 q -0.90137,-0.583985 -1.67578,-0.583985 -0.74902,0 -1.26953,0.418946 -0.52051,0.40625 -0.8252,1.485351 -0.29199,1.079102 -0.29199,4.519531 z m 12.88574,-13.482422 v 2.84375 h -2.4375 v 5.433594 q 0,1.65039 0.0635,1.929687 0.0762,0.266602 0.31738,0.444336 0.25391,0.177735 0.60938,0.177735 0.49512,0 1.43457,-0.342774 l 0.30469,2.767578 q -1.24414,0.533203 -2.81836,0.533203 -0.96485,0 -1.73926,-0.317382 -0.77442,-0.330079 -1.14258,-0.837891 -0.35547,-0.520508 -0.49512,-1.396484 -0.11425,-0.622071 -0.11425,-2.513672 v -5.87793 h -1.6377 v -2.84375 h 1.6377 v -2.678711 l 3.58007,-2.082031 v 4.760742 z m 10.28321,9.191406 3.55468,0.59668 q -0.68554,1.955078 -2.17089,2.983398 -1.47266,1.015625 -3.69434,1.015625 -3.5166,0 -5.20508,-2.297851 -1.33301,-1.84082 -1.33301,-4.646485 0,-3.351562 1.75196,-5.243164 1.75195,-1.904296 4.43066,-1.904296 3.00879,0 4.74805,1.993164 1.73926,1.980468 1.66308,6.081054 h -8.9375 q 0.0381,1.586914 0.86329,2.475586 0.82519,0.875977 2.05664,0.875977 0.83789,0 1.40918,-0.457031 0.57128,-0.457032 0.86328,-1.472657 z m 0.20312,-3.605468 q -0.0381,-1.548829 -0.7998,-2.348633 -0.76172,-0.8125 -1.85352,-0.8125 -1.16797,0 -1.92969,0.850586 -0.76171,0.850586 -0.74902,2.310547 z m 18.71289,7.896484 h -3.56738 v -6.880859 q 0,-2.183594 -0.22852,-2.81836 -0.22851,-0.647461 -0.74902,-1.00293 -0.50781,-0.355468 -1.23144,-0.355468 -0.92676,0 -1.66309,0.507812 -0.73633,0.507813 -1.01563,1.345703 -0.2666,0.837891 -0.2666,3.097657 v 6.106445 h -3.56738 V 36.258789 h 3.31348 v 1.980469 q 1.76465,-2.285156 4.44336,-2.285156 1.18066,0 2.1582,0.43164 0.97754,0.418945 1.47266,1.079102 0.50781,0.660156 0.69824,1.498047 0.20312,0.83789 0.20312,2.399414 z"
     id="text11"
     style="font-weight:bold;font-size:26px;font-family:Arial, sans-serif;dominant-baseline:middle;text-anchor:middle;fill:url(#textGradient);stroke:#004400;stroke-width:1px;stroke-linejoin:round;paint-order:stroke"
     aria-label="Tutorial Starten" />
</svg>
