<?xml version="1.0" encoding="UTF-8" standalone="no"?>
<svg
   width="240"
   height="80"
   version="1.1"
   id="svg11"
   sodipodi:docname="tally-scores-german.svg"
   inkscape:version="1.3.2 (091e20e, 2023-11-25)"
   xmlns:inkscape="http://www.inkscape.org/namespaces/inkscape"
   xmlns:sodipodi="http://sodipodi.sourceforge.net/DTD/sodipodi-0.dtd"
   xmlns="http://www.w3.org/2000/svg"
   xmlns:svg="http://www.w3.org/2000/svg">
  <sodipodi:namedview
     id="namedview11"
     pagecolor="#ffffff"
     bordercolor="#000000"
     borderopacity="0.25"
     inkscape:showpageshadow="2"
     inkscape:pageopacity="0.0"
     inkscape:pagecheckerboard="0"
     inkscape:deskcolor="#d1d1d1"
     inkscape:zoom="1.4958333"
     inkscape:cx="119.66574"
     inkscape:cy="40.111421"
     inkscape:window-width="1312"
     inkscape:window-height="449"
     inkscape:window-x="0"
     inkscape:window-y="38"
     inkscape:window-maximized="0"
     inkscape:current-layer="svg11" />
  <!-- Define gradients for 3D effect -->
  <defs
     id="defs7">
    <!-- Purple gradient for button body -->
    <linearGradient
       id="buttonGradient"
       x1="0%"
       y1="0%"
       x2="0%"
       y2="100%">
      <stop
         offset="0%"
         style="stop-color:#9D5FFF;stop-opacity:1"
         id="stop1" />
      <stop
         offset="50%"
         style="stop-color:#7B3FF2;stop-opacity:1"
         id="stop2" />
      <stop
         offset="100%"
         style="stop-color:#5A2DB8;stop-opacity:1"
         id="stop3" />
    </linearGradient>
    <!-- Highlight gradient for top shine -->
    <linearGradient
       id="shineGradient"
       x1="0%"
       y1="0%"
       x2="0%"
       y2="100%">
      <stop
         offset="0%"
         style="stop-color:#FFFFFF;stop-opacity:0.4"
         id="stop4" />
      <stop
         offset="50%"
         style="stop-color:#FFFFFF;stop-opacity:0"
         id="stop5" />
    </linearGradient>
    <!-- Text gradient for depth -->
    <linearGradient
       id="textGradient"
       x1="0%"
       y1="0%"
       x2="0%"
       y2="100%">
      <stop
         offset="0%"
         style="stop-color:#66FF66;stop-opacity:1"
         id="stop6" />
      <stop
         offset="100%"
         style="stop-color:#00FF41;stop-opacity:1"
         id="stop7" />
    </linearGradient>
  </defs>
  <!-- Shadow for depth -->
  <rect
     x="10"
     y="14"
     width="220"
     height="60"
     rx="18"
     ry="18"
     fill="#000000"
     opacity="0.3"
     id="rect7" />
  <!-- Outer glow border -->
  <rect
     x="6"
     y="6"
     width="228"
     height="68"
     rx="20"
     ry="20"
     fill="none"
     stroke="#FFB3FF"
     stroke-width="3"
     opacity="0.6"
     id="rect8" />
  <!-- Main bright pink border -->
  <rect
     x="10"
     y="10"
     width="220"
     height="60"
     rx="18"
     ry="18"
     fill="none"
     stroke="#FF66FF"
     stroke-width="6"
     id="rect9" />
  <!-- Main button with gradient -->
  <rect
     x="13"
     y="13"
     width="214"
     height="54"
     rx="16"
     ry="16"
     fill="url(#buttonGradient)"
     id="rect10" />
  <!-- Top shine overlay -->
  <rect
     x="13"
     y="13"
     width="214"
     height="27"
     rx="16"
     ry="16"
     fill="url(#shineGradient)"
     id="rect11" />
  <!-- Bright green text - large and perfectly centered -->
  <path
     d="M 26.354492,50.259766 V 30.216797 h 6.494141 q 3.691406,0 4.8125,0.300781 1.722656,0.451172 2.884765,1.96875 1.16211,1.503906 1.16211,3.896484 0,1.845704 -0.669922,3.103516 -0.669922,1.257813 -1.708984,1.982422 -1.025391,0.710937 -2.091797,0.943359 -1.449219,0.28711 -4.197266,0.28711 h -2.638672 v 7.560547 z m 4.046875,-16.652344 v 5.6875 h 2.214844 q 2.392578,0 3.199219,-0.314453 0.80664,-0.314453 1.257812,-0.984375 0.464844,-0.669922 0.464844,-1.558594 0,-1.09375 -0.642578,-1.804688 -0.642578,-0.710937 -1.626953,-0.888671 -0.72461,-0.136719 -2.91211,-0.136719 z M 54.55957,50.259766 v -2.173829 q -0.792968,1.16211 -2.091797,1.832032 -1.285156,0.669922 -2.720703,0.669922 -1.46289,0 -2.625,-0.642579 -1.162109,-0.642578 -1.68164,-1.804687 -0.519532,-1.162109 -0.519532,-3.212891 v -9.1875 h 3.841797 v 6.671875 q 0,3.0625 0.205078,3.759766 0.21875,0.683594 0.779297,1.09375 0.560547,0.396484 1.421875,0.396484 0.984375,0 1.763672,-0.533203 0.779297,-0.546875 1.066406,-1.339844 0.28711,-0.80664 0.28711,-3.923828 v -6.125 h 3.841797 v 14.519532 z m 20.753907,0 H 71.47168 v -7.410157 q 0,-2.351562 -0.246094,-3.035156 -0.246094,-0.697266 -0.806641,-1.080078 -0.546875,-0.382813 -1.326172,-0.382813 -0.998046,0 -1.791015,0.546875 -0.792969,0.546875 -1.09375,1.449219 -0.28711,0.902344 -0.28711,3.335938 v 6.576172 H 62.079102 V 35.740234 h 3.568359 v 2.132813 q 1.900391,-2.460938 4.785156,-2.460938 1.271485,0 2.324219,0.464844 1.052734,0.451172 1.585937,1.162109 0.546875,0.710938 0.751954,1.613282 0.21875,0.902343 0.21875,2.583984 z m 3.759765,0 V 30.216797 h 3.841797 v 10.636719 l 4.498047,-5.113282 h 4.730469 l -4.962891,5.304688 5.318359,9.214844 h -4.142578 l -3.65039,-6.521485 -1.791016,1.873047 v 4.648438 z M 101.44043,35.740234 v 3.0625 h -2.625 v 5.851563 q 0,1.777344 0.06836,2.078125 0.08203,0.287109 0.341797,0.478515 0.273437,0.191407 0.65625,0.191407 0.533204,0 1.544924,-0.369141 l 0.32812,2.980469 q -1.33984,0.574219 -3.035153,0.574219 -1.039063,0 -1.873047,-0.341797 -0.833985,-0.355469 -1.230469,-0.902344 -0.382813,-0.560547 -0.533203,-1.503906 -0.123047,-0.669922 -0.123047,-2.707032 v -6.330078 h -1.763672 v -3.0625 h 1.763672 v -2.884765 l 3.855469,-2.242188 v 5.126953 z m 11.07422,9.898438 3.82812,0.642578 q -0.73828,2.105469 -2.33789,3.212891 -1.58593,1.09375 -3.97851,1.09375 -3.78711,0 -5.60547,-2.47461 -1.43555,-1.982422 -1.43555,-5.003906 0,-3.609375 1.88672,-5.646484 1.88672,-2.050782 4.77148,-2.050782 3.24024,0 5.11329,2.146485 1.87304,2.132812 1.79101,6.548828 h -9.625 q 0.041,1.708984 0.92969,2.666015 0.88867,0.94336 2.21484,0.94336 0.90235,0 1.51758,-0.492188 0.61524,-0.492187 0.92969,-1.585937 z m 0.21875,-3.882813 q -0.041,-1.667968 -0.86133,-2.529297 -0.82031,-0.875 -1.99609,-0.875 -1.25782,0 -2.07813,0.916016 -0.82031,0.916016 -0.80664,2.488281 z m 13.01562,8.503907 v -3.650391 l 10.52735,-13.001953 h -9.33789 v -3.390625 h 14.66992 v 3.144531 l -10.97852,13.521484 h 11.40235 v 3.376954 z m 21.6836,-10.089844 -3.48633,-0.628906 q 0.58789,-2.105469 2.02344,-3.117188 1.43554,-1.011719 4.26562,-1.011719 2.57031,0 3.82813,0.615235 1.25781,0.601562 1.76367,1.544922 0.51953,0.929687 0.51953,3.43164 l -0.041,4.484375 q 0,1.914063 0.17774,2.830078 0.1914,0.902344 0.69726,1.941407 h -3.80078 q -0.15039,-0.382813 -0.36914,-1.134766 -0.0957,-0.341797 -0.13672,-0.451172 -0.98437,0.957031 -2.10547,1.435547 -1.12109,0.478516 -2.39257,0.478516 -2.24219,0 -3.54102,-1.216797 -1.28516,-1.216797 -1.28516,-3.076172 0,-1.230469 0.5879,-2.1875 0.58789,-0.970703 1.64062,-1.476563 1.06641,-0.519531 3.0625,-0.902343 2.69336,-0.50586 3.73242,-0.94336 v -0.382812 q 0,-1.107422 -0.54687,-1.572266 -0.54688,-0.478516 -2.06446,-0.478516 -1.02539,0 -1.59961,0.410157 -0.57421,0.396484 -0.92968,1.408203 z m 5.14062,3.117187 q -0.73828,0.246094 -2.33789,0.587891 -1.59961,0.341797 -2.0918,0.669922 -0.75195,0.533203 -0.75195,1.353515 0,0.806641 0.60156,1.394532 0.60157,0.58789 1.53125,0.58789 1.03907,0 1.98243,-0.683593 0.69726,-0.519532 0.91601,-1.271485 0.15039,-0.492187 0.15039,-1.873047 z M 145.77832,33.169922 V 29.875 h 3.29492 v 3.294922 z m 5.87891,0 V 29.875 h 3.30859 v 3.294922 z m 12.30468,-2.953125 v 7.36914 q 1.85938,-2.173828 4.44336,-2.173828 1.32618,0 2.39258,0.492188 1.06641,0.492187 1.59961,1.257812 0.54688,0.765625 0.73828,1.695313 0.20508,0.929687 0.20508,2.884765 v 8.517579 h -3.8418 v -7.669922 q 0,-2.283203 -0.21875,-2.898438 -0.21875,-0.615234 -0.77929,-0.970703 -0.54688,-0.369141 -1.38086,-0.369141 -0.95703,0 -1.70899,0.464844 -0.75195,0.464844 -1.10742,1.408203 -0.3418,0.929688 -0.3418,2.761719 v 7.273438 h -3.84179 V 30.216797 Z M 177.2373,50.259766 V 30.216797 h 3.8418 v 20.042969 z m 16.1875,-4.621094 3.82813,0.642578 q -0.73828,2.105469 -2.33789,3.212891 -1.58594,1.09375 -3.97852,1.09375 -3.78711,0 -5.60547,-2.47461 -1.43554,-1.982422 -1.43554,-5.003906 0,-3.609375 1.88672,-5.646484 1.88672,-2.050782 4.77148,-2.050782 3.24024,0 5.11328,2.146485 1.87305,2.132812 1.79102,6.548828 h -9.625 q 0.041,1.708984 0.92969,2.666015 0.88867,0.94336 2.21484,0.94336 0.90234,0 1.51758,-0.492188 0.61523,-0.492187 0.92968,-1.585937 z m 0.21875,-3.882813 q -0.041,-1.667968 -0.86132,-2.529297 -0.82032,-0.875 -1.9961,-0.875 -1.25781,0 -2.07812,0.916016 -0.82031,0.916016 -0.80664,2.488281 z m 20.15235,8.503907 h -3.8418 v -7.410157 q 0,-2.351562 -0.24609,-3.035156 -0.2461,-0.697266 -0.80664,-1.080078 -0.54688,-0.382813 -1.32617,-0.382813 -0.99805,0 -1.79102,0.546875 -0.79297,0.546875 -1.09375,1.449219 -0.28711,0.902344 -0.28711,3.335938 v 6.576172 h -3.8418 V 35.740234 h 3.56836 v 2.132813 q 1.90039,-2.460938 4.78516,-2.460938 1.27148,0 2.32422,0.464844 1.05273,0.451172 1.58594,1.162109 0.54687,0.710938 0.75195,1.613282 0.21875,0.902343 0.21875,2.583984 z"
     id="text11"
     style="font-weight:bold;font-size:28px;font-family:Arial, sans-serif;dominant-baseline:middle;text-anchor:middle;fill:url(#textGradient);stroke:#004400;stroke-width:1px;stroke-linejoin:round;paint-order:stroke"
     aria-label="Punkte Zählen" />
</svg>
