<svg xmlns="http://www.w3.org/2000/svg" viewBox="0 0 238 332" width="238" height="332"><defs><clipPath id="artboard-10014490981906196727"><rect x="0" y="0" width="238" height="332"/></clipPath></defs><g>
<g clip-path="url(#artboard-10014490981906196727)">
	<g>
		<path d="M119,51.6625C182.089692,51.6625 233.3375,102.910308 233.3375,166 C233.3375,229.089692 182.089692,280.3375 119,280.3375 C55.910308,280.3375 4.6625,229.089692 4.6625,166 C4.6625,102.910308 55.910308,51.6625 119,51.6625 Z" fill="#f900ff" stroke="#000000" stroke-width="2"/>
	</g>
	<g>
		<path d="M17.8572,200.8488C17.8572,200.8488 17.8572,129.7288 17.8572,129.7288 C17.8572,129.7288 40.3108,129.7288 40.3108,129.7288 Q49.8612,129.7288 55.2968,134.0214 Q60.7324,138.314 60.7324,147.1024 Q60.7324,153.046 58.1416,157.5672 Q55.5508,162.0884 50.3692,163.46 Q51.7916,161.8344 51.7916,161.8344 Q59.2084,163.0536 63.2724,167.7526 Q67.3364,172.4516 67.3364,180.5288 Q67.3364,189.876 61.3166,195.3624 Q55.2968,200.8488 44.6796,200.8488 Q17.8572,200.8488 17.8572,200.8488 C17.8572,200.8488 17.8572,200.8488 17.8572,200.8488 ZM27.5092,192.1112C27.5092,192.1112 43.8668,192.1112 43.8668,192.1112 Q49.7596,192.1112 53.2648,189.1648 Q56.77,186.2184 56.77,180.224 Q56.77,173.5184 53.1886,170.7752 Q49.6072,168.032 43.8668,168.032 Q27.5092,168.032 27.5092,168.032 C27.5092,168.032 27.5092,192.1112 27.5092,192.1112 C27.5092,192.1112 27.5092,192.1112 27.5092,192.1112 ZM27.5092,159.2944C27.5092,159.2944 39.0916,159.2944 39.0916,159.2944 Q44.2732,159.2944 47.5244,157.2116 Q50.7756,155.1288 50.7756,148.8296 Q50.7756,142.5812 47.5244,140.473 Q44.2732,138.3648 39.0916,138.3648 Q27.5092,138.3648 27.5092,138.3648 C27.5092,138.3648 27.5092,159.2944 27.5092,159.2944 C27.5092,159.2944 27.5092,159.2944 27.5092,159.2944 ZM107.1636,202.2712Q97.156,202.2712 90.6282,198.4358 Q84.1004,194.6004 80.9,187.5138 Q77.6996,180.4272 77.6996,170.6736 Q77.6996,129.7288 77.6996,129.7288 C77.6996,129.7288 87.3516,129.7288 87.3516,129.7288 C87.3516,129.7288 87.3516,168.032 87.3516,168.032 Q87.3516,172.9088 88.1136,177.4808 Q88.8756,182.0528 90.933,185.6596 Q92.9904,189.2664 96.9274,191.4 Q100.8644,193.5336 107.1636,193.5336 Q113.5136,193.5336 117.4252,191.4 Q121.3368,189.2664 123.3942,185.6342 Q125.4516,182.002 126.2136,177.43 Q126.9756,172.858 126.9756,168.032 Q126.9756,129.7288 126.9756,129.7288 C126.9756,129.7288 136.6276,129.7288 136.6276,129.7288 C136.6276,129.7288 136.6276,170.6736 136.6276,170.6736 Q136.6276,180.4272 133.4272,187.5138 Q130.2268,194.6004 123.699,198.4358 Q117.1712,202.2712 107.1636,202.2712 Q107.1636,202.2712 107.1636,202.2712 ZM167.9204,200.8488C167.9204,200.8488 167.9204,170.064 167.9204,170.064 C167.9204,170.064 142.8252,129.7288 142.8252,129.7288 C142.8252,129.7288 153.798,129.7288 153.798,129.7288 C153.798,129.7288 174.9308,164.2728 174.9308,164.2728 C174.9308,164.2728 170.4604,164.2728 170.4604,164.2728 C170.4604,164.2728 191.5932,129.7288 191.5932,129.7288 C191.5932,129.7288 202.566,129.7288 202.566,129.7288 C202.566,129.7288 177.5724,170.064 177.5724,170.064 C177.5724,170.064 177.5724,200.8488 177.5724,200.8488 C177.5724,200.8488 167.9204,200.8488 167.9204,200.8488 C167.9204,200.8488 167.9204,200.8488 167.9204,200.8488 ZM209.5764,183.3736C209.5764,183.3736 209.5764,180.732 209.5764,180.732 C209.5764,180.732 207.5444,129.7288 207.5444,129.7288 C207.5444,129.7288 220.1428,129.7288 220.1428,129.7288 C220.1428,129.7288 218.1108,180.732 218.1108,180.732 C218.1108,180.732 218.1108,183.3736 218.1108,183.3736 C218.1108,183.3736 209.5764,183.3736 209.5764,183.3736 C209.5764,183.3736 209.5764,183.3736 209.5764,183.3736 ZM208.3572,200.8488C208.3572,200.8488 208.3572,190.0792 208.3572,190.0792 C208.3572,190.0792 219.33,190.0792 219.33,190.0792 C219.33,190.0792 219.33,200.8488 219.33,200.8488 C219.33,200.8488 208.3572,200.8488 208.3572,200.8488 C208.3572,200.8488 208.3572,200.8488 208.3572,200.8488 Z" fill="#00ff23"/>
	</g>
</g></g></svg>