<svg xmlns="http://www.w3.org/2000/svg" viewBox="0 0 238 332" width="238" height="332"><defs><clipPath id="artboard-2502102617539317543"><rect x="0" y="0" width="238" height="332"/></clipPath></defs><g>
<rect fill="#ff0000" fill-opacity="0" x="0" y="0" width="238" height="332"/>
<g clip-path="url(#artboard-2502102617539317543)">
	<g>
		<path d="M119,51.6625C182.089692,51.6625 233.3375,102.910308 233.3375,166 C233.3375,229.089692 182.089692,280.3375 119,280.3375 C55.910308,280.3375 4.6625,229.089692 4.6625,166 C4.6625,102.910308 55.910308,51.6625 119,51.6625 Z" fill="#00ff24" stroke="#000000" stroke-width="2"/>
	</g>
	<g>
		<path d="M15.27008,192.656C15.27008,192.656 22.42912,139.344 22.42912,139.344 C22.42912,139.344 28.59808,139.344 28.59808,139.344 C28.59808,139.344 42.61152,165.77152 42.61152,165.77152 C42.61152,165.77152 56.47264,139.344 56.47264,139.344 C56.47264,139.344 62.71776,139.344 62.71776,139.344 C62.71776,139.344 69.80064,192.656 69.80064,192.656 C69.80064,192.656 62.18464,192.656 62.18464,192.656 C62.18464,192.656 56.77728,149.16864 56.77728,149.16864 C56.77728,149.16864 58.68128,149.47328 58.68128,149.47328 C58.68128,149.47328 42.68768,180.01344 42.68768,180.01344 C42.68768,180.01344 26.38944,149.47328 26.38944,149.47328 C26.38944,149.47328 28.29344,149.16864 28.29344,149.16864 C28.29344,149.16864 22.88608,192.656 22.88608,192.656 C22.88608,192.656 15.27008,192.656 15.27008,192.656 C15.27008,192.656 15.27008,192.656 15.27008,192.656 ZM79.16832,192.656C79.16832,192.656 79.16832,139.344 79.16832,139.344 C79.16832,139.344 111.68864,139.344 111.68864,139.344 C111.68864,139.344 111.68864,145.89376 111.68864,145.89376 C111.68864,145.89376 86.40352,145.89376 86.40352,145.89376 C86.40352,145.89376 86.40352,161.50656 86.40352,161.50656 C86.40352,161.50656 106.50976,161.50656 106.50976,161.50656 C106.50976,161.50656 106.50976,168.05632 106.50976,168.05632 C106.50976,168.05632 86.40352,168.05632 86.40352,168.05632 C86.40352,168.05632 86.40352,186.10624 86.40352,186.10624 C86.40352,186.10624 112.37408,186.10624 112.37408,186.10624 C112.37408,186.10624 112.37408,192.656 112.37408,192.656 C112.37408,192.656 79.16832,192.656 79.16832,192.656 C79.16832,192.656 79.16832,192.656 79.16832,192.656 ZM121.36096,192.656C121.36096,192.656 121.36096,139.344 121.36096,139.344 C121.36096,139.344 128.59616,139.344 128.59616,139.344 C128.59616,139.344 128.59616,186.10624 128.59616,186.10624 C128.59616,186.10624 153.04352,186.10624 153.04352,186.10624 C153.04352,186.10624 153.04352,192.656 153.04352,192.656 C153.04352,192.656 121.36096,192.656 121.36096,192.656 C121.36096,192.656 121.36096,192.656 121.36096,192.656 ZM159.51712,192.656C159.51712,192.656 159.51712,139.344 159.51712,139.344 C159.51712,139.344 179.24256,139.344 179.24256,139.344 Q186.9728,139.344 192.95136,142.50464 Q198.92992,145.66528 202.33808,151.6248 Q205.74624,157.58432 205.74624,166 Q205.74624,174.41568 202.33808,180.3752 Q198.92992,186.33472 192.95136,189.49536 Q186.9728,192.656 179.24256,192.656 Q159.51712,192.656 159.51712,192.656 C159.51712,192.656 159.51712,192.656 159.51712,192.656 ZM166.75232,186.10624C166.75232,186.10624 179.24256,186.10624 179.24256,186.10624 Q185.33536,186.10624 189.46704,183.57392 Q193.59872,181.0416 195.71216,176.51008 Q197.8256,171.97856 197.8256,166 Q197.8256,160.02144 195.71216,155.48992 Q193.59872,150.9584 189.46704,148.42608 Q185.33536,145.89376 179.24256,145.89376 Q166.75232,145.89376 166.75232,145.89376 C166.75232,145.89376 166.75232,186.10624 166.75232,186.10624 C166.75232,186.10624 166.75232,186.10624 166.75232,186.10624 ZM214.80928,179.55648C214.80928,179.55648 214.80928,177.57632 214.80928,177.57632 C214.80928,177.57632 213.28608,139.344 213.28608,139.344 C213.28608,139.344 222.72992,139.344 222.72992,139.344 C222.72992,139.344 221.20672,177.57632 221.20672,177.57632 C221.20672,177.57632 221.20672,179.55648 221.20672,179.55648 C221.20672,179.55648 214.80928,179.55648 214.80928,179.55648 C214.80928,179.55648 214.80928,179.55648 214.80928,179.55648 ZM213.89536,192.656C213.89536,192.656 213.89536,184.58304 213.89536,184.58304 C213.89536,184.58304 222.12064,184.58304 222.12064,184.58304 C222.12064,184.58304 222.12064,192.656 222.12064,192.656 C222.12064,192.656 213.89536,192.656 213.89536,192.656 C213.89536,192.656 213.89536,192.656 213.89536,192.656 Z" fill="#fa00ff"/>
	</g>
</g></g></svg>