<svg xmlns="http://www.w3.org/2000/svg" viewBox="0 0 238 332" width="238" height="332"><defs></defs><g transform="matrix(1,0,0,1,-0.5,0)">
<g>
	<g>
		<path d="M11.889452,0C11.889452,0 227.221283,0 227.221283,0 C233.511475,0 238.610733,5.092724 238.610733,11.374931 C238.610733,11.374931 238.610733,321.223633 238.610733,321.223633 C238.610733,327.505859 233.511475,332.598572 227.221283,332.598572 C227.221283,332.598572 11.889452,332.598572 11.889452,332.598572 C5.599229,332.598572 0.5,327.505859 0.5,321.223633 C0.5,321.223633 0.5,11.374931 0.5,11.374931 C0.5,5.092724 5.599229,0 11.889452,0 C11.889452,0 11.889452,0 11.889452,0 C11.889452,0 11.889452,0 11.889452,0 Z" fill="#ffffff"/>
	</g>
	<g>
		<path d="M119.53836,118.422546C77.646941,119.330933 58.862548,166.436584 89.887511,203.016602 C94.387298,208.352173 94.851592,211.414063 86.6109,206.288818 C65.722594,192.33844 25.669829,201.50946 23.619018,244.158386 C21.085296,296.708313 94.604125,311.849182 108.407958,255.970947 C109.136718,250.075256 113.934173,250.209778 112.777465,258.578247 C111.518706,281.291504 104.416686,302.52063 94.654357,323.222534 C111.108031,323.222534 129.496093,323.222534 144.456115,323.222534 C134.694579,302.52063 127.591765,281.291504 126.333282,258.578247 C125.176543,250.209778 129.974029,250.075256 130.702788,255.970947 C144.506591,311.849182 218.025176,296.708313 215.491729,244.158386 C213.441192,201.50946 173.388152,192.33844 152.499847,206.288818 C144.259154,211.414063 144.723449,208.352173 149.222961,203.016602 C180.248199,166.436584 161.463836,119.331238 119.572631,118.422546 C119.572631,118.422302 119.572631,118.422852 119.529723,118.422546 C119.529723,118.422546 119.53836,118.422546 119.53836,118.422546 C119.53836,118.422546 119.53836,118.422546 119.53836,118.422546 Z" fill="#000000"/>
	</g>
	<g>
		<path d="M190.033897,14.66658C173.277447,15.04332 165.763435,34.672256 178.173397,49.914246 C179.973488,52.137497 180.159084,53.412933 176.862728,51.277451 C168.507328,45.465118 152.486324,49.286194 151.665867,67.05658 C150.652618,88.952423 180.060074,95.261383 185.581596,71.978577 C185.871826,69.522278 187.792252,69.578186 187.329247,73.06488 C186.825821,82.528992 183.985016,91.374207 180.080215,100 C186.720009,100 193.360207,100 200,100 C196.0952,91.374207 193.254395,82.528992 192.750969,73.06488 C192.288101,69.578186 194.207214,69.522278 194.498619,71.978577 C200.020142,95.261383 229.427727,88.952423 228.414345,67.05658 C227.593887,49.286194 211.573021,45.465118 203.217491,51.277451 C199.921135,53.412933 200.106728,52.137497 201.906822,49.914246 C214.31691,34.672256 206.802895,15.045395 190.046715,14.66658 C190.042397,14.66658 190.046715,14.66658 190.046715,14.66658 C190.046715,14.66658 190.033897,14.66658 190.033897,14.66658 C190.033897,14.66658 190.033897,14.66658 190.033897,14.66658 Z" fill="#000000"/>
	</g>
	<g>
		<path d="M48.029469,98.325304Q37.357469,98.325304 30.687469,93.163304 Q24.017469,88.001304 20.827469,79.243304 Q17.637469,70.485304 17.637469,59.465304 Q17.637469,46.125304 21.349469,35.975304 Q25.061469,25.825304 32.079469,20.083304 Q39.097469,14.341304 48.957469,14.341304 Q56.729469,14.341304 62.239469,17.299304 Q67.749469,20.257304 70.939469,25.303304 Q74.129469,30.349304 74.709469,36.613304 Q65.545469,36.613304 65.545469,36.613304 Q64.385469,30.465304 59.977469,26.811304 Q55.569469,23.157304 48.957469,23.157304 Q43.157469,23.157304 38.343469,26.811304 Q33.529469,30.465304 30.455469,38.063304 Q27.381469,45.661304 26.917469,57.377304 Q27.497469,57.377304 27.497469,57.377304 Q30.165469,52.389304 35.733469,48.677304 Q41.301469,44.965304 49.189469,44.965304 Q56.497469,44.965304 62.297469,48.329304 Q68.097469,51.693304 71.519469,57.609304 Q74.941469,63.525304 74.941469,71.065304 Q74.941469,78.489304 71.635469,84.695304 Q68.329469,90.901304 62.239469,94.613304 Q56.149469,98.325304 48.029469,98.325304 Q48.029469,98.325304 48.029469,98.325304 ZM47.333469,89.509304Q55.337469,89.509304 60.209469,84.405304 Q65.081469,79.301304 65.081469,71.645304 Q65.081469,63.873304 60.209469,58.827304 Q55.337469,53.781304 47.333469,53.781304 Q41.997469,53.781304 37.995469,56.101304 Q33.993469,58.421304 31.731469,62.481304 Q29.469469,66.541304 29.469469,71.645304 Q29.469469,76.749304 31.731469,80.809304 Q33.993469,84.869304 37.995469,87.189304 Q41.997469,89.509304 47.333469,89.509304 Q47.333469,89.509304 47.333469,89.509304 Z" fill="#000000"/>
	</g>
</g></g></svg>
