<svg xmlns="http://www.w3.org/2000/svg" viewBox="0 0 238 332" width="238" height="332"><defs></defs><g transform="matrix(1,0,0,1,-0.5,0)">
<g>
	<g>
		<path d="M11.889452,0C11.889452,0 227.221283,0 227.221283,0 C233.511475,0 238.610733,5.092724 238.610733,11.374931 C238.610733,11.374931 238.610733,321.223633 238.610733,321.223633 C238.610733,327.505859 233.511475,332.598572 227.221283,332.598572 C227.221283,332.598572 11.889452,332.598572 11.889452,332.598572 C5.599229,332.598572 0.5,327.505859 0.5,321.223633 C0.5,321.223633 0.5,11.374931 0.5,11.374931 C0.5,5.092724 5.599229,0 11.889452,0 C11.889452,0 11.889452,0 11.889452,0 C11.889452,0 11.889452,0 11.889452,0 Z" fill="#ffffff"/>
	</g>
	<g>
		<path d="M119.53836,118.422546C77.646941,119.330933 58.862548,166.436584 89.887511,203.016602 C94.387298,208.352173 94.851592,211.414063 86.6109,206.288818 C65.722594,192.33844 25.669829,201.50946 23.619018,244.158386 C21.085296,296.708313 94.604125,311.849182 108.407958,255.970947 C109.136718,250.075256 113.934173,250.209778 112.777465,258.578247 C111.518706,281.291504 104.416686,302.52063 94.654357,323.222534 C111.108031,323.222534 129.496093,323.222534 144.456115,323.222534 C134.694579,302.52063 127.591765,281.291504 126.333282,258.578247 C125.176543,250.209778 129.974029,250.075256 130.702788,255.970947 C144.506591,311.849182 218.025176,296.708313 215.491729,244.158386 C213.441192,201.50946 173.388152,192.33844 152.499847,206.288818 C144.259154,211.414063 144.723449,208.352173 149.222961,203.016602 C180.248199,166.436584 161.463836,119.331238 119.572631,118.422546 C119.572631,118.422302 119.572631,118.422852 119.529723,118.422546 C119.529723,118.422546 119.53836,118.422546 119.53836,118.422546 C119.53836,118.422546 119.53836,118.422546 119.53836,118.422546 Z" fill="#000000"/>
	</g>
	<g>
		<path d="M190.033897,14.66658C173.277447,15.04332 165.763435,34.672256 178.173397,49.914246 C179.973488,52.137497 180.159084,53.412933 176.862728,51.277451 C168.507328,45.465118 152.486324,49.286194 151.665867,67.05658 C150.652618,88.952423 180.060074,95.261383 185.581596,71.978577 C185.871826,69.522278 187.792252,69.578186 187.329247,73.06488 C186.825821,82.528992 183.985016,91.374207 180.080215,100 C186.720009,100 193.360207,100 200,100 C196.0952,91.374207 193.254395,82.528992 192.750969,73.06488 C192.288101,69.578186 194.207214,69.522278 194.498619,71.978577 C200.020142,95.261383 229.427727,88.952423 228.414345,67.05658 C227.593887,49.286194 211.573021,45.465118 203.217491,51.277451 C199.921135,53.412933 200.106728,52.137497 201.906822,49.914246 C214.31691,34.672256 206.802895,15.045395 190.046715,14.66658 C190.042397,14.66658 190.046715,14.66658 190.046715,14.66658 C190.046715,14.66658 190.033897,14.66658 190.033897,14.66658 C190.033897,14.66658 190.033897,14.66658 190.033897,14.66658 Z" fill="#000000"/>
	</g>
	<g>
		<path d="M47.449469,98.325304Q39.445469,98.325304 33.123469,95.367304 Q26.801469,92.409304 22.973469,86.725304 Q19.145469,81.041304 18.797469,72.805304 Q28.773469,72.805304 28.773469,72.805304 Q29.005469,79.765304 33.877469,84.579304 Q38.749469,89.393304 47.449469,89.393304 Q55.917469,89.393304 60.557469,85.043304 Q65.197469,80.693304 65.197469,73.153304 Q65.197469,67.933304 62.529469,64.511304 Q59.861469,61.089304 55.395469,59.407304 Q50.929469,57.725304 45.477469,57.725304 Q38.401469,57.725304 38.401469,57.725304 C38.401469,57.725304 38.401469,48.909304 38.401469,48.909304 C38.401469,48.909304 44.549469,48.909304 44.549469,48.909304 Q52.437469,48.909304 57.135469,45.545304 Q61.833469,42.181304 61.833469,35.685304 Q61.833469,30.233304 58.063469,26.753304 Q54.293469,23.273304 47.333469,23.273304 Q40.605469,23.273304 36.429469,27.043304 Q32.253469,30.813304 31.673469,36.845304 Q21.929469,36.845304 21.929469,36.845304 Q22.161469,30.233304 25.409469,25.187304 Q28.657469,20.141304 34.283469,17.241304 Q39.909469,14.341304 47.333469,14.341304 Q55.337469,14.341304 60.731469,17.125304 Q66.125469,19.909304 68.909469,24.607304 Q71.693469,29.305304 71.693469,34.989304 Q71.693469,41.021304 67.981469,45.603304 Q64.269469,50.185304 59.165469,52.041304 Q59.165469,52.737304 59.165469,52.737304 Q66.009469,54.825304 70.533469,59.813304 Q75.057469,64.801304 75.057469,73.153304 Q75.057469,80.229304 71.751469,85.913304 Q68.445469,91.597304 62.239469,94.961304 Q56.033469,98.325304 47.449469,98.325304 Q47.449469,98.325304 47.449469,98.325304 Z" fill="#000000"/>
	</g>
</g></g></svg>
