<svg xmlns="http://www.w3.org/2000/svg" viewBox="0 0 238 332" width="238" height="332"><defs></defs><g transform="matrix(1,0,0,1,-0.5,0)">
<g>
	<g>
		<path d="M11.889452,0C11.889452,0 227.221283,0 227.221283,0 C233.511475,0 238.610733,5.092724 238.610733,11.374931 C238.610733,11.374931 238.610733,321.223633 238.610733,321.223633 C238.610733,327.505859 233.511475,332.598572 227.221283,332.598572 C227.221283,332.598572 11.889452,332.598572 11.889452,332.598572 C5.599229,332.598572 0.5,327.505859 0.5,321.223633 C0.5,321.223633 0.5,11.374931 0.5,11.374931 C0.5,5.092724 5.599229,0 11.889452,0 C11.889452,0 11.889452,0 11.889452,0 C11.889452,0 11.889452,0 11.889452,0 Z" fill="#ffffff"/>
	</g>
	<g>
		<path d="M119.53836,118.422546C77.646941,119.330933 58.862548,166.436584 89.887511,203.016602 C94.387298,208.352173 94.851592,211.414063 86.6109,206.288818 C65.722594,192.33844 25.669829,201.50946 23.619018,244.158386 C21.085296,296.708313 94.604125,311.849182 108.407958,255.970947 C109.136718,250.075256 113.934173,250.209778 112.777465,258.578247 C111.518706,281.291504 104.416686,302.52063 94.654357,323.222534 C111.108031,323.222534 129.496093,323.222534 144.456115,323.222534 C134.694579,302.52063 127.591765,281.291504 126.333282,258.578247 C125.176543,250.209778 129.974029,250.075256 130.702788,255.970947 C144.506591,311.849182 218.025176,296.708313 215.491729,244.158386 C213.441192,201.50946 173.388152,192.33844 152.499847,206.288818 C144.259154,211.414063 144.723449,208.352173 149.222961,203.016602 C180.248199,166.436584 161.463836,119.331238 119.572631,118.422546 C119.572631,118.422302 119.572631,118.422852 119.529723,118.422546 C119.529723,118.422546 119.53836,118.422546 119.53836,118.422546 C119.53836,118.422546 119.53836,118.422546 119.53836,118.422546 Z" fill="#000000"/>
	</g>
	<g>
		<path d="M190.033897,14.66658C173.277447,15.04332 165.763435,34.672256 178.173397,49.914246 C179.973488,52.137497 180.159084,53.412933 176.862728,51.277451 C168.507328,45.465118 152.486324,49.286194 151.665867,67.05658 C150.652618,88.952423 180.060074,95.261383 185.581596,71.978577 C185.871826,69.522278 187.792252,69.578186 187.329247,73.06488 C186.825821,82.528992 183.985016,91.374207 180.080215,100 C186.720009,100 193.360207,100 200,100 C196.0952,91.374207 193.254395,82.528992 192.750969,73.06488 C192.288101,69.578186 194.207214,69.522278 194.498619,71.978577 C200.020142,95.261383 229.427727,88.952423 228.414345,67.05658 C227.593887,49.286194 211.573021,45.465118 203.217491,51.277451 C199.921135,53.412933 200.106728,52.137497 201.906822,49.914246 C214.31691,34.672256 206.802895,15.045395 190.046715,14.66658 C190.042397,14.66658 190.046715,14.66658 190.046715,14.66658 C190.046715,14.66658 190.033897,14.66658 190.033897,14.66658 C190.033897,14.66658 190.033897,14.66658 190.033897,14.66658 Z" fill="#000000"/>
	</g>
	<g>
		<path d="M46.405469,98.325304Q38.285469,98.325304 32.195469,95.251304 Q26.105469,92.177304 22.625469,86.841304 Q19.145469,81.505304 19.145469,74.661304 Q19.145469,67.005304 23.205469,61.669304 Q27.265469,56.333304 32.601469,54.245304 Q32.601469,53.665304 32.601469,53.665304 Q27.497469,51.229304 24.423469,46.647304 Q21.349469,42.065304 21.349469,35.917304 Q21.349469,30.001304 24.423469,25.071304 Q27.497469,20.141304 33.181469,17.241304 Q38.865469,14.341304 46.405469,14.341304 Q53.829469,14.341304 59.455469,17.241304 Q65.081469,20.141304 68.271469,25.071304 Q71.461469,30.001304 71.461469,35.917304 Q71.461469,42.065304 68.387469,46.647304 Q65.313469,51.229304 60.209469,53.665304 Q60.209469,54.245304 60.209469,54.245304 Q65.545469,56.333304 69.605469,61.669304 Q73.665469,67.005304 73.665469,74.661304 Q73.665469,81.505304 70.185469,86.841304 Q66.705469,92.177304 60.615469,95.251304 Q54.525469,98.325304 46.405469,98.325304 Q46.405469,98.325304 46.405469,98.325304 ZM46.405469,50.069304Q53.597469,50.069304 57.715469,46.299304 Q61.833469,42.529304 61.833469,36.497304 Q61.833469,30.581304 57.715469,26.811304 Q53.597469,23.041304 46.405469,23.041304 Q39.213469,23.041304 35.095469,26.811304 Q30.977469,30.581304 30.977469,36.497304 Q30.977469,42.529304 35.095469,46.299304 Q39.213469,50.069304 46.405469,50.069304 Q46.405469,50.069304 46.405469,50.069304 ZM46.405469,89.509304Q54.177469,89.509304 58.991469,85.507304 Q63.805469,81.505304 63.805469,73.849304 Q63.805469,66.309304 58.991469,62.307304 Q54.177469,58.305304 46.405469,58.305304 Q38.633469,58.305304 33.819469,62.307304 Q29.005469,66.309304 29.005469,73.849304 Q29.005469,81.505304 33.819469,85.507304 Q38.633469,89.509304 46.405469,89.509304 Q46.405469,89.509304 46.405469,89.509304 Z" fill="#000000"/>
	</g>
</g></g></svg>
