<svg xmlns="http://www.w3.org/2000/svg" viewBox="0 0 238 332" width="238" height="332"><defs></defs><g transform="matrix(1,0,0,1,-0.5,0)">
<g>
	<g>
		<path d="M11.889488,0C11.889488,0 227.221466,0 227.221466,0 C230.242111,-0.000004 233.13913,1.198425 235.27507,3.331649 C237.411011,5.464871 238.610947,8.358144 238.610947,11.374978 C238.610947,11.374978 238.610947,321.224487 238.610947,321.224487 C238.610947,324.241333 237.411011,327.134613 235.27507,329.267822 C233.13913,331.401062 230.242111,332.599457 227.221466,332.599457 C227.221466,332.599457 11.889488,332.599457 11.889488,332.599457 C8.868808,332.599457 5.971859,331.401062 3.835915,329.267822 C1.699971,327.134613 0.5,324.241333 0.5,321.224487 C0.5,321.224487 0.5,11.374978 0.5,11.374978 C0.5,8.358144 1.699971,5.464871 3.835915,3.331649 C5.971859,1.198425 8.868808,-0.000004 11.889488,0 C11.889488,0 11.889488,0 11.889488,0 C11.889488,0 11.889488,0 11.889488,0 Z" fill="#ffffff"/>
	</g>
	<g>
		<path d="M193.696478,100C184.476263,84.773926 174.776361,69.974915 162.654711,57.333176 C174.776361,44.691864 184.476263,29.892883 193.696478,14.666382 C202.916426,29.892883 212.616323,44.691864 224.737974,57.333176 C212.616323,69.974915 202.916426,84.773926 193.696478,100 C193.696478,100 193.696478,100 193.696478,100 C193.696478,100 193.696478,100 193.696478,100 Z" fill="#c8102e"/>
	</g>
	<g>
		<path d="M119.555199,317.532898C97.427544,280.989624 74.147514,245.472473 45.055229,215.132568 C74.147514,184.79303 97.427544,149.27594 119.555199,112.732239 C141.683647,149.27594 164.963432,184.79303 194.055717,215.132568 C164.963432,245.472473 141.683647,280.989624 119.555199,317.532898 C119.555199,317.532898 119.555199,317.532898 119.555199,317.532898 C119.555199,317.532898 119.555199,317.532898 119.555199,317.532898 Z" fill="#c8102e"/>
	</g>
	<g>
		<path d="M46.405469,98.325304Q38.053469,98.325304 32.021469,95.193304 Q25.989469,92.061304 22.509469,86.725304 Q19.029469,81.389304 18.333469,74.545304 Q28.309469,74.545304 28.309469,74.545304 Q29.353469,81.157304 34.225469,85.275304 Q39.097469,89.393304 46.521469,89.393304 Q55.221469,89.393304 60.209469,83.767304 Q65.197469,78.141304 65.197469,69.557304 Q65.197469,60.509304 60.093469,55.347304 Q54.989469,50.185304 46.869469,50.185304 Q40.373469,50.185304 35.791469,53.143304 Q31.209469,56.101304 28.425469,60.625304 Q19.145469,60.625304 19.145469,60.625304 C19.145469,60.625304 26.105469,15.733304 26.105469,15.733304 C26.105469,15.733304 69.489469,15.733304 69.489469,15.733304 C69.489469,15.733304 69.489469,24.665304 69.489469,24.665304 C69.489469,24.665304 33.761469,24.665304 33.761469,24.665304 C33.761469,24.665304 29.469469,48.793304 29.469469,48.793304 C29.469469,48.793304 30.049469,48.793304 30.049469,48.793304 Q32.717469,45.893304 37.299469,43.689304 Q41.881469,41.485304 47.913469,41.485304 Q55.917469,41.485304 61.891469,44.907304 Q67.865469,48.329304 71.229469,54.651304 Q74.593469,60.973304 74.593469,69.441304 Q74.593469,77.329304 71.287469,83.883304 Q67.981469,90.437304 61.659469,94.381304 Q55.337469,98.325304 46.405469,98.325304 Q46.405469,98.325304 46.405469,98.325304 Z" fill="#c8192e"/>
	</g>
</g></g></svg>
