<svg xmlns="http://www.w3.org/2000/svg" viewBox="0 0 238 332" width="238" height="332"><defs></defs><g transform="matrix(1,0,0,1,-0.5,0)">
<g>
	<g>
		<path d="M11.889488,0C11.889488,0 227.221466,0 227.221466,0 C230.242111,-0.000004 233.13913,1.198425 235.27507,3.331649 C237.411011,5.464871 238.610947,8.358144 238.610947,11.374978 C238.610947,11.374978 238.610947,321.224487 238.610947,321.224487 C238.610947,324.241333 237.411011,327.134613 235.27507,329.267822 C233.13913,331.401062 230.242111,332.599457 227.221466,332.599457 C227.221466,332.599457 11.889488,332.599457 11.889488,332.599457 C8.868808,332.599457 5.971859,331.401062 3.835915,329.267822 C1.699971,327.134613 0.5,324.241333 0.5,321.224487 C0.5,321.224487 0.5,11.374978 0.5,11.374978 C0.5,8.358144 1.699971,5.464871 3.835915,3.331649 C5.971859,1.198425 8.868808,-0.000004 11.889488,0 C11.889488,0 11.889488,0 11.889488,0 C11.889488,0 11.889488,0 11.889488,0 Z" fill="#ffffff"/>
	</g>
	<g>
		<path d="M193.696478,100C184.476263,84.773926 174.776361,69.974915 162.654711,57.333176 C174.776361,44.691864 184.476263,29.892883 193.696478,14.666382 C202.916426,29.892883 212.616323,44.691864 224.737974,57.333176 C212.616323,69.974915 202.916426,84.773926 193.696478,100 C193.696478,100 193.696478,100 193.696478,100 C193.696478,100 193.696478,100 193.696478,100 Z" fill="#c8102e"/>
	</g>
	<g>
		<path d="M119.555199,317.532898C97.427544,280.989624 74.147514,245.472473 45.055229,215.132568 C74.147514,184.79303 97.427544,149.27594 119.555199,112.732239 C141.683647,149.27594 164.963432,184.79303 194.055717,215.132568 C164.963432,245.472473 141.683647,280.989624 119.555199,317.532898 C119.555199,317.532898 119.555199,317.532898 119.555199,317.532898 C119.555199,317.532898 119.555199,317.532898 119.555199,317.532898 Z" fill="#c8102e"/>
	</g>
	<g>
		<path d="M19.725469,96.933304C19.725469,96.933304 19.725469,88.117304 19.725469,88.117304 C19.725469,88.117304 40.721469,88.117304 40.721469,88.117304 C40.721469,88.117304 40.721469,27.217304 40.721469,27.217304 C40.721469,27.217304 20.885469,31.045304 20.885469,31.045304 C20.885469,31.045304 20.885469,23.621304 20.885469,23.621304 C20.885469,23.621304 43.969469,15.733304 43.969469,15.733304 C43.969469,15.733304 50.465469,15.733304 50.465469,15.733304 C50.465469,15.733304 50.465469,88.117304 50.465469,88.117304 C50.465469,88.117304 72.621469,88.117304 72.621469,88.117304 C72.621469,88.117304 72.621469,96.933304 72.621469,96.933304 C72.621469,96.933304 19.725469,96.933304 19.725469,96.933304 C19.725469,96.933304 19.725469,96.933304 19.725469,96.933304 ZM102.085469,98.325304Q92.921469,98.325304 85.903469,93.221304 Q78.885469,88.117304 74.999469,78.721304 Q71.113469,69.325304 71.113469,56.333304 Q71.113469,43.341304 74.999469,33.945304 Q78.885469,24.549304 85.903469,19.445304 Q92.921469,14.341304 102.085469,14.341304 Q111.365469,14.341304 118.325469,19.445304 Q125.285469,24.549304 129.171469,33.945304 Q133.057469,43.341304 133.057469,56.333304 Q133.057469,69.325304 129.171469,78.721304 Q125.285469,88.117304 118.325469,93.221304 Q111.365469,98.325304 102.085469,98.325304 Q102.085469,98.325304 102.085469,98.325304 ZM81.089469,56.333304Q81.089469,64.221304 82.771469,70.543304 Q84.453469,76.865304 87.469469,81.157304 Q109.973469,25.361304 109.973469,25.361304 Q106.377469,23.389304 102.085469,23.389304 Q95.937469,23.389304 91.181469,27.391304 Q86.425469,31.393304 83.757469,38.759304 Q81.089469,46.125304 81.089469,56.333304 Q81.089469,56.333304 81.089469,56.333304 ZM102.085469,89.393304Q108.233469,89.393304 112.989469,85.391304 Q117.745469,81.389304 120.413469,73.965304 Q123.081469,66.541304 123.081469,56.333304 Q123.081469,48.445304 121.399469,42.123304 Q119.717469,35.801304 116.701469,31.509304 Q94.081469,87.421304 94.081469,87.421304 Q97.793469,89.393304 102.085469,89.393304 Q102.085469,89.393304 102.085469,89.393304 Z" fill="#c8192e"/>
	</g>
</g></g></svg>
