<svg xmlns="http://www.w3.org/2000/svg" viewBox="0 0 238 332" width="238" height="332"><defs></defs><g transform="matrix(1,0,0,1,-0.5,0)">
<g>
	<g>
		<path d="M11.889488,0C11.889488,0 227.221466,0 227.221466,0 C230.242111,-0.000004 233.13913,1.198425 235.27507,3.331649 C237.411011,5.464871 238.610947,8.358144 238.610947,11.374978 C238.610947,11.374978 238.610947,321.224487 238.610947,321.224487 C238.610947,324.241333 237.411011,327.134613 235.27507,329.267822 C233.13913,331.401062 230.242111,332.599457 227.221466,332.599457 C227.221466,332.599457 11.889488,332.599457 11.889488,332.599457 C8.868808,332.599457 5.971859,331.401062 3.835915,329.267822 C1.699971,327.134613 0.5,324.241333 0.5,321.224487 C0.5,321.224487 0.5,11.374978 0.5,11.374978 C0.5,8.358144 1.699971,5.464871 3.835915,3.331649 C5.971859,1.198425 8.868808,-0.000004 11.889488,0 C11.889488,0 11.889488,0 11.889488,0 C11.889488,0 11.889488,0 11.889488,0 Z" fill="#ffffff"/>
	</g>
	<g>
		<path d="M193.696478,100C184.476263,84.773926 174.776361,69.974915 162.654711,57.333176 C174.776361,44.691864 184.476263,29.892883 193.696478,14.666382 C202.916426,29.892883 212.616323,44.691864 224.737974,57.333176 C212.616323,69.974915 202.916426,84.773926 193.696478,100 C193.696478,100 193.696478,100 193.696478,100 C193.696478,100 193.696478,100 193.696478,100 Z" fill="#c8102e"/>
	</g>
	<g>
		<path d="M119.555199,317.532898C97.427544,280.989624 74.147514,245.472473 45.055229,215.132568 C74.147514,184.79303 97.427544,149.27594 119.555199,112.732239 C141.683647,149.27594 164.963432,184.79303 194.055717,215.132568 C164.963432,245.472473 141.683647,280.989624 119.555199,317.532898 C119.555199,317.532898 119.555199,317.532898 119.555199,317.532898 C119.555199,317.532898 119.555199,317.532898 119.555199,317.532898 Z" fill="#c8102e"/>
	</g>
	<g>
		<path d="M45.013469,98.325304Q37.589469,98.325304 31.847469,95.367304 Q26.105469,92.409304 22.683469,87.363304 Q19.261469,82.317304 18.681469,76.053304 Q28.077469,76.053304 28.077469,76.053304 Q29.121469,82.201304 33.587469,85.855304 Q38.053469,89.509304 45.013469,89.509304 Q54.177469,89.509304 59.977469,81.215304 Q65.777469,72.921304 66.589469,55.289304 Q65.893469,55.289304 65.893469,55.289304 Q62.761469,60.741304 57.889469,64.221304 Q53.017469,67.701304 44.201469,67.701304 Q36.893469,67.701304 31.093469,64.337304 Q25.293469,60.973304 21.871469,55.057304 Q18.449469,49.141304 18.449469,41.601304 Q18.449469,34.177304 21.755469,27.971304 Q25.061469,21.765304 31.151469,18.053304 Q37.241469,14.341304 45.361469,14.341304 Q60.673469,14.341304 68.213469,24.781304 Q75.753469,35.221304 75.753469,53.201304 Q75.753469,66.541304 72.157469,76.691304 Q68.561469,86.841304 61.717469,92.583304 Q54.873469,98.325304 45.013469,98.325304 Q45.013469,98.325304 45.013469,98.325304 ZM46.057469,58.885304Q54.177469,58.885304 59.049469,53.781304 Q63.921469,48.677304 63.921469,41.021304 Q63.921469,33.365304 59.049469,28.261304 Q54.177469,23.157304 46.057469,23.157304 Q37.937469,23.157304 33.123469,28.261304 Q28.309469,33.365304 28.309469,41.021304 Q28.309469,48.793304 33.123469,53.839304 Q37.937469,58.885304 46.057469,58.885304 Q46.057469,58.885304 46.057469,58.885304 Z" fill="#c8192e"/>
	</g>
</g></g></svg>
