<svg xmlns="http://www.w3.org/2000/svg" viewBox="0 0 238 332" width="238" height="332"><defs></defs><g transform="matrix(1,0,0,1,-0.5,0)">
<g>
	<g>
		<path d="M11.889488,0C11.889488,0 227.221466,0 227.221466,0 C230.242111,-0.000004 233.13913,1.198425 235.27507,3.331649 C237.411011,5.464871 238.610947,8.358144 238.610947,11.374978 C238.610947,11.374978 238.610947,321.224487 238.610947,321.224487 C238.610947,324.241333 237.411011,327.134613 235.27507,329.267822 C233.13913,331.401062 230.242111,332.599457 227.221466,332.599457 C227.221466,332.599457 11.889488,332.599457 11.889488,332.599457 C8.868808,332.599457 5.971859,331.401062 3.835915,329.267822 C1.699971,327.134613 0.5,324.241333 0.5,321.224487 C0.5,321.224487 0.5,11.374978 0.5,11.374978 C0.5,8.358144 1.699971,5.464871 3.835915,3.331649 C5.971859,1.198425 8.868808,-0.000004 11.889488,0 C11.889488,0 11.889488,0 11.889488,0 C11.889488,0 11.889488,0 11.889488,0 Z" fill="#ffffff"/>
	</g>
	<g>
		<path d="M193.696478,100C184.476263,84.773926 174.776361,69.974915 162.654711,57.333176 C174.776361,44.691864 184.476263,29.892883 193.696478,14.666382 C202.916426,29.892883 212.616323,44.691864 224.737974,57.333176 C212.616323,69.974915 202.916426,84.773926 193.696478,100 C193.696478,100 193.696478,100 193.696478,100 C193.696478,100 193.696478,100 193.696478,100 Z" fill="#c8102e"/>
	</g>
	<g>
		<path d="M119.555199,317.532898C97.427544,280.989624 74.147514,245.472473 45.055229,215.132568 C74.147514,184.79303 97.427544,149.27594 119.555199,112.732239 C141.683647,149.27594 164.963432,184.79303 194.055717,215.132568 C164.963432,245.472473 141.683647,280.989624 119.555199,317.532898 C119.555199,317.532898 119.555199,317.532898 119.555199,317.532898 C119.555199,317.532898 119.555199,317.532898 119.555199,317.532898 Z" fill="#c8102e"/>
	</g>
	<g>
		<path d="M46.405469,98.325304Q38.285469,98.325304 32.195469,95.251304 Q26.105469,92.177304 22.625469,86.841304 Q19.145469,81.505304 19.145469,74.661304 Q19.145469,67.005304 23.205469,61.669304 Q27.265469,56.333304 32.601469,54.245304 Q32.601469,53.665304 32.601469,53.665304 Q27.497469,51.229304 24.423469,46.647304 Q21.349469,42.065304 21.349469,35.917304 Q21.349469,30.001304 24.423469,25.071304 Q27.497469,20.141304 33.181469,17.241304 Q38.865469,14.341304 46.405469,14.341304 Q53.829469,14.341304 59.455469,17.241304 Q65.081469,20.141304 68.271469,25.071304 Q71.461469,30.001304 71.461469,35.917304 Q71.461469,42.065304 68.387469,46.647304 Q65.313469,51.229304 60.209469,53.665304 Q60.209469,54.245304 60.209469,54.245304 Q65.545469,56.333304 69.605469,61.669304 Q73.665469,67.005304 73.665469,74.661304 Q73.665469,81.505304 70.185469,86.841304 Q66.705469,92.177304 60.615469,95.251304 Q54.525469,98.325304 46.405469,98.325304 Q46.405469,98.325304 46.405469,98.325304 ZM46.405469,50.069304Q53.597469,50.069304 57.715469,46.299304 Q61.833469,42.529304 61.833469,36.497304 Q61.833469,30.581304 57.715469,26.811304 Q53.597469,23.041304 46.405469,23.041304 Q39.213469,23.041304 35.095469,26.811304 Q30.977469,30.581304 30.977469,36.497304 Q30.977469,42.529304 35.095469,46.299304 Q39.213469,50.069304 46.405469,50.069304 Q46.405469,50.069304 46.405469,50.069304 ZM46.405469,89.509304Q54.177469,89.509304 58.991469,85.507304 Q63.805469,81.505304 63.805469,73.849304 Q63.805469,66.309304 58.991469,62.307304 Q54.177469,58.305304 46.405469,58.305304 Q38.633469,58.305304 33.819469,62.307304 Q29.005469,66.309304 29.005469,73.849304 Q29.005469,81.505304 33.819469,85.507304 Q38.633469,89.509304 46.405469,89.509304 Q46.405469,89.509304 46.405469,89.509304 Z" fill="#c8192e"/>
	</g>
</g></g></svg>
