<svg xmlns="http://www.w3.org/2000/svg" viewBox="0 0 238 332" width="238" height="332"><defs></defs><g transform="matrix(1,0,0,1,-0.5,0)">
<g>
	<g>
		<path d="M11.889488,0C11.889488,0 227.221466,0 227.221466,0 C230.242111,-0.000004 233.13913,1.198425 235.27507,3.331649 C237.411011,5.464871 238.610947,8.358144 238.610947,11.374978 C238.610947,11.374978 238.610947,321.224487 238.610947,321.224487 C238.610947,324.241333 237.411011,327.134613 235.27507,329.267822 C233.13913,331.401062 230.242111,332.599457 227.221466,332.599457 C227.221466,332.599457 11.889488,332.599457 11.889488,332.599457 C8.868808,332.599457 5.971859,331.401062 3.835915,329.267822 C1.699971,327.134613 0.5,324.241333 0.5,321.224487 C0.5,321.224487 0.5,11.374978 0.5,11.374978 C0.5,8.358144 1.699971,5.464871 3.835915,3.331649 C5.971859,1.198425 8.868808,-0.000004 11.889488,0 C11.889488,0 11.889488,0 11.889488,0 C11.889488,0 11.889488,0 11.889488,0 Z" fill="#ffffff"/>
	</g>
	<g>
		<path d="M193.696478,100C184.476263,84.773926 174.776361,69.974915 162.654711,57.333176 C174.776361,44.691864 184.476263,29.892883 193.696478,14.666382 C202.916426,29.892883 212.616323,44.691864 224.737974,57.333176 C212.616323,69.974915 202.916426,84.773926 193.696478,100 C193.696478,100 193.696478,100 193.696478,100 C193.696478,100 193.696478,100 193.696478,100 Z" fill="#c8102e"/>
	</g>
	<g>
		<path d="M119.555199,317.532898C97.427544,280.989624 74.147514,245.472473 45.055229,215.132568 C74.147514,184.79303 97.427544,149.27594 119.555199,112.732239 C141.683647,149.27594 164.963432,184.79303 194.055717,215.132568 C164.963432,245.472473 141.683647,280.989624 119.555199,317.532898 C119.555199,317.532898 119.555199,317.532898 119.555199,317.532898 C119.555199,317.532898 119.555199,317.532898 119.555199,317.532898 Z" fill="#c8102e"/>
	</g>
	<g>
		<path d="M56.381469,96.933304C56.381469,96.933304 56.381469,78.141304 56.381469,78.141304 C56.381469,78.141304 17.521469,78.141304 17.521469,78.141304 C17.521469,78.141304 17.521469,70.601304 17.521469,70.601304 C17.521469,70.601304 54.525469,15.733304 54.525469,15.733304 C54.525469,15.733304 66.125469,15.733304 66.125469,15.733304 C66.125469,15.733304 66.125469,69.325304 66.125469,69.325304 C66.125469,69.325304 77.725469,69.325304 77.725469,69.325304 C77.725469,69.325304 77.725469,78.141304 77.725469,78.141304 C77.725469,78.141304 66.125469,78.141304 66.125469,78.141304 C66.125469,78.141304 66.125469,96.933304 66.125469,96.933304 C66.125469,96.933304 56.381469,96.933304 56.381469,96.933304 C56.381469,96.933304 56.381469,96.933304 56.381469,96.933304 ZM28.425469,69.325304C28.425469,69.325304 56.845469,69.325304 56.845469,69.325304 C56.845469,69.325304 56.845469,27.101304 56.845469,27.101304 C56.845469,27.101304 28.425469,69.325304 28.425469,69.325304 C28.425469,69.325304 28.425469,69.325304 28.425469,69.325304 Z" fill="#c8192e"/>
	</g>
</g></g></svg>
