<svg xmlns="http://www.w3.org/2000/svg" viewBox="0 0 238 332" width="238" height="332"><defs></defs><g transform="matrix(1,0,0,1,-0.5,0)">
<g>
	<g>
		<path d="M11.889488,0C11.889488,0 227.221466,0 227.221466,0 C230.242111,-0.000004 233.13913,1.198425 235.27507,3.331649 C237.411011,5.464871 238.610947,8.358144 238.610947,11.374978 C238.610947,11.374978 238.610947,321.224487 238.610947,321.224487 C238.610947,324.241333 237.411011,327.134613 235.27507,329.267822 C233.13913,331.401062 230.242111,332.599457 227.221466,332.599457 C227.221466,332.599457 11.889488,332.599457 11.889488,332.599457 C8.868808,332.599457 5.971859,331.401062 3.835915,329.267822 C1.699971,327.134613 0.5,324.241333 0.5,321.224487 C0.5,321.224487 0.5,11.374978 0.5,11.374978 C0.5,8.358144 1.699971,5.464871 3.835915,3.331649 C5.971859,1.198425 8.868808,-0.000004 11.889488,0 C11.889488,0 11.889488,0 11.889488,0 C11.889488,0 11.889488,0 11.889488,0 Z" fill="#ffffff"/>
	</g>
	<g>
		<path d="M193.696478,100C184.476263,84.773926 174.776361,69.974915 162.654711,57.333176 C174.776361,44.691864 184.476263,29.892883 193.696478,14.666382 C202.916426,29.892883 212.616323,44.691864 224.737974,57.333176 C212.616323,69.974915 202.916426,84.773926 193.696478,100 C193.696478,100 193.696478,100 193.696478,100 C193.696478,100 193.696478,100 193.696478,100 Z" fill="#c8102e"/>
	</g>
	<g>
		<path d="M119.555199,317.532898C97.427544,280.989624 74.147514,245.472473 45.055229,215.132568 C74.147514,184.79303 97.427544,149.27594 119.555199,112.732239 C141.683647,149.27594 164.963432,184.79303 194.055717,215.132568 C164.963432,245.472473 141.683647,280.989624 119.555199,317.532898 C119.555199,317.532898 119.555199,317.532898 119.555199,317.532898 C119.555199,317.532898 119.555199,317.532898 119.555199,317.532898 Z" fill="#c8102e"/>
	</g>
	<g>
		<path d="M48.029469,98.325304Q37.357469,98.325304 30.687469,93.163304 Q24.017469,88.001304 20.827469,79.243304 Q17.637469,70.485304 17.637469,59.465304 Q17.637469,46.125304 21.349469,35.975304 Q25.061469,25.825304 32.079469,20.083304 Q39.097469,14.341304 48.957469,14.341304 Q56.729469,14.341304 62.239469,17.299304 Q67.749469,20.257304 70.939469,25.303304 Q74.129469,30.349304 74.709469,36.613304 Q65.545469,36.613304 65.545469,36.613304 Q64.385469,30.465304 59.977469,26.811304 Q55.569469,23.157304 48.957469,23.157304 Q43.157469,23.157304 38.343469,26.811304 Q33.529469,30.465304 30.455469,38.063304 Q27.381469,45.661304 26.917469,57.377304 Q27.497469,57.377304 27.497469,57.377304 Q30.165469,52.389304 35.733469,48.677304 Q41.301469,44.965304 49.189469,44.965304 Q56.497469,44.965304 62.297469,48.329304 Q68.097469,51.693304 71.519469,57.609304 Q74.941469,63.525304 74.941469,71.065304 Q74.941469,78.489304 71.635469,84.695304 Q68.329469,90.901304 62.239469,94.613304 Q56.149469,98.325304 48.029469,98.325304 Q48.029469,98.325304 48.029469,98.325304 ZM47.333469,89.509304Q55.337469,89.509304 60.209469,84.405304 Q65.081469,79.301304 65.081469,71.645304 Q65.081469,63.873304 60.209469,58.827304 Q55.337469,53.781304 47.333469,53.781304 Q41.997469,53.781304 37.995469,56.101304 Q33.993469,58.421304 31.731469,62.481304 Q29.469469,66.541304 29.469469,71.645304 Q29.469469,76.749304 31.731469,80.809304 Q33.993469,84.869304 37.995469,87.189304 Q41.997469,89.509304 47.333469,89.509304 Q47.333469,89.509304 47.333469,89.509304 Z" fill="#c8192e"/>
	</g>
</g></g></svg>
