<svg xmlns="http://www.w3.org/2000/svg" viewBox="0 0 238 332" width="238" height="332"><defs></defs><g transform="matrix(1,0,0,1,-0.5,0)">
<g>
	<g>
		<path d="M11.889488,0C11.889488,0 227.221466,0 227.221466,0 C230.242111,-0.000004 233.13913,1.198425 235.27507,3.331649 C237.411011,5.464871 238.610947,8.358144 238.610947,11.374978 C238.610947,11.374978 238.610947,321.224487 238.610947,321.224487 C238.610947,324.241333 237.411011,327.134613 235.27507,329.267822 C233.13913,331.401062 230.242111,332.599457 227.221466,332.599457 C227.221466,332.599457 11.889488,332.599457 11.889488,332.599457 C8.868808,332.599457 5.971859,331.401062 3.835915,329.267822 C1.699971,327.134613 0.5,324.241333 0.5,321.224487 C0.5,321.224487 0.5,11.374978 0.5,11.374978 C0.5,8.358144 1.699971,5.464871 3.835915,3.331649 C5.971859,1.198425 8.868808,-0.000004 11.889488,0 C11.889488,0 11.889488,0 11.889488,0 C11.889488,0 11.889488,0 11.889488,0 Z" fill="#ffffff"/>
	</g>
	<g>
		<path d="M193.696478,100C184.476263,84.773926 174.776361,69.974915 162.654711,57.333176 C174.776361,44.691864 184.476263,29.892883 193.696478,14.666382 C202.916426,29.892883 212.616323,44.691864 224.737974,57.333176 C212.616323,69.974915 202.916426,84.773926 193.696478,100 C193.696478,100 193.696478,100 193.696478,100 C193.696478,100 193.696478,100 193.696478,100 Z" fill="#c8102e"/>
	</g>
	<g>
		<path d="M119.555199,317.532898C97.427544,280.989624 74.147514,245.472473 45.055229,215.132568 C74.147514,184.79303 97.427544,149.27594 119.555199,112.732239 C141.683647,149.27594 164.963432,184.79303 194.055717,215.132568 C164.963432,245.472473 141.683647,280.989624 119.555199,317.532898 C119.555199,317.532898 119.555199,317.532898 119.555199,317.532898 C119.555199,317.532898 119.555199,317.532898 119.555199,317.532898 Z" fill="#c8102e"/>
	</g>
	<g>
		<path d="M47.449469,98.325304Q39.445469,98.325304 33.123469,95.367304 Q26.801469,92.409304 22.973469,86.725304 Q19.145469,81.041304 18.797469,72.805304 Q28.773469,72.805304 28.773469,72.805304 Q29.005469,79.765304 33.877469,84.579304 Q38.749469,89.393304 47.449469,89.393304 Q55.917469,89.393304 60.557469,85.043304 Q65.197469,80.693304 65.197469,73.153304 Q65.197469,67.933304 62.529469,64.511304 Q59.861469,61.089304 55.395469,59.407304 Q50.929469,57.725304 45.477469,57.725304 Q38.401469,57.725304 38.401469,57.725304 C38.401469,57.725304 38.401469,48.909304 38.401469,48.909304 C38.401469,48.909304 44.549469,48.909304 44.549469,48.909304 Q52.437469,48.909304 57.135469,45.545304 Q61.833469,42.181304 61.833469,35.685304 Q61.833469,30.233304 58.063469,26.753304 Q54.293469,23.273304 47.333469,23.273304 Q40.605469,23.273304 36.429469,27.043304 Q32.253469,30.813304 31.673469,36.845304 Q21.929469,36.845304 21.929469,36.845304 Q22.161469,30.233304 25.409469,25.187304 Q28.657469,20.141304 34.283469,17.241304 Q39.909469,14.341304 47.333469,14.341304 Q55.337469,14.341304 60.731469,17.125304 Q66.125469,19.909304 68.909469,24.607304 Q71.693469,29.305304 71.693469,34.989304 Q71.693469,41.021304 67.981469,45.603304 Q64.269469,50.185304 59.165469,52.041304 Q59.165469,52.737304 59.165469,52.737304 Q66.009469,54.825304 70.533469,59.813304 Q75.057469,64.801304 75.057469,73.153304 Q75.057469,80.229304 71.751469,85.913304 Q68.445469,91.597304 62.239469,94.961304 Q56.033469,98.325304 47.449469,98.325304 Q47.449469,98.325304 47.449469,98.325304 Z" fill="#c8192e"/>
	</g>
</g></g></svg>
