<svg xmlns="http://www.w3.org/2000/svg" viewBox="0 0 238 332" width="238" height="332"><defs><clipPath id="artboard-134747115862139985"><rect x="0" y="0" width="238" height="332"/></clipPath></defs><g>
<rect fill="#ffffff" fill-opacity="0" x="0" y="0" width="238" height="332"/>
<g clip-path="url(#artboard-134747115862139985)">
	<g>
		<path d="M11.389488,0C11.389488,0 226.721466,0 226.721466,0 C229.742111,-0.000004 232.63913,1.198425 234.77507,3.331649 C236.911011,5.464871 238.110947,8.358144 238.110947,11.374978 C238.110947,11.374978 238.110947,321.224487 238.110947,321.224487 C238.110947,324.241333 236.911011,327.134613 234.77507,329.267822 C232.63913,331.401062 229.742111,332.599457 226.721466,332.599457 C226.721466,332.599457 11.389488,332.599457 11.389488,332.599457 C8.368808,332.599457 5.471859,331.401062 3.335915,329.267822 C1.199971,327.134613 0,324.241333 0,321.224487 C0,321.224487 0,11.374978 0,11.374978 C0,8.358144 1.199971,5.464871 3.335915,3.331649 C5.471859,1.198425 8.368808,-0.000004 11.389488,0 C11.389488,0 11.389488,0 11.389488,0 C11.389488,0 11.389488,0 11.389488,0 Z" fill="#ffffff"/>
	</g>
	<g>
		<path d="M193.684387,98.63404C193.684387,98.63404 184.192301,85.024297 171.387997,69.022881 C162.821792,58.31484 155.973757,46.720013 155.336743,36.732873 C154.606728,25.324244 161.519152,13.878766 174.033773,13.324012 C186.541104,12.769648 191.617584,22.120523 193.684387,29.830052 C195.751158,22.120523 200.828061,12.769648 213.335001,13.324012 C225.84959,13.878766 232.762469,25.324244 232.031998,36.732873 C231.395408,46.720013 224.546982,58.31484 215.9812,69.022881 C203.176441,85.024297 193.684387,98.63404 193.684387,98.63404 C193.684387,98.63404 193.684387,98.63404 193.684387,98.63404 Z" fill="#c8102e"/>
	</g>
	<g>
		<path d="M119.2495,316.158502C119.2495,316.158502 99.339892,283.495064 72.482851,245.091577 C54.515873,219.392247 40.151669,191.564671 38.816191,167.595473 C37.284456,140.214888 51.783492,112.745695 78.032946,111.414376 C104.266628,110.083806 114.91498,132.52603 119.2495,151.028821 C123.584447,132.52603 134.232799,110.083806 160.466479,111.414376 C186.715945,112.745695 201.214981,140.214888 199.683238,167.595473 C198.347768,191.564671 183.983564,219.392247 166.016578,245.091577 C139.159534,283.495064 119.2495,316.158502 119.2495,316.158502 C119.2495,316.158502 119.2495,316.158502 119.2495,316.158502 Z" fill="#c8102e"/>
	</g>
	<g>
		<path d="M47.449469,98.325304Q39.445469,98.325304 33.123469,95.367304 Q26.801469,92.409304 22.973469,86.725304 Q19.145469,81.041304 18.797469,72.805304 Q28.773469,72.805304 28.773469,72.805304 Q29.005469,79.765304 33.877469,84.579304 Q38.749469,89.393304 47.449469,89.393304 Q55.917469,89.393304 60.557469,85.043304 Q65.197469,80.693304 65.197469,73.153304 Q65.197469,67.933304 62.529469,64.511304 Q59.861469,61.089304 55.395469,59.407304 Q50.929469,57.725304 45.477469,57.725304 Q38.401469,57.725304 38.401469,57.725304 C38.401469,57.725304 38.401469,48.909304 38.401469,48.909304 C38.401469,48.909304 44.549469,48.909304 44.549469,48.909304 Q52.437469,48.909304 57.135469,45.545304 Q61.833469,42.181304 61.833469,35.685304 Q61.833469,30.233304 58.063469,26.753304 Q54.293469,23.273304 47.333469,23.273304 Q40.605469,23.273304 36.429469,27.043304 Q32.253469,30.813304 31.673469,36.845304 Q21.929469,36.845304 21.929469,36.845304 Q22.161469,30.233304 25.409469,25.187304 Q28.657469,20.141304 34.283469,17.241304 Q39.909469,14.341304 47.333469,14.341304 Q55.337469,14.341304 60.731469,17.125304 Q66.125469,19.909304 68.909469,24.607304 Q71.693469,29.305304 71.693469,34.989304 Q71.693469,41.021304 67.981469,45.603304 Q64.269469,50.185304 59.165469,52.041304 Q59.165469,52.737304 59.165469,52.737304 Q66.009469,54.825304 70.533469,59.813304 Q75.057469,64.801304 75.057469,73.153304 Q75.057469,80.229304 71.751469,85.913304 Q68.445469,91.597304 62.239469,94.961304 Q56.033469,98.325304 47.449469,98.325304 Q47.449469,98.325304 47.449469,98.325304 Z" fill="#c8102e"/>
	</g>
</g></g></svg>
