<svg xmlns="http://www.w3.org/2000/svg" viewBox="0 0 238 332" width="238" height="332"><defs><clipPath id="artboard-134747115862139985"><rect x="0" y="0" width="238" height="332"/></clipPath></defs><g>
<rect fill="#ffffff" fill-opacity="0" x="0" y="0" width="238" height="332"/>
<g clip-path="url(#artboard-134747115862139985)">
	<g>
		<path d="M11.389488,0C11.389488,0 226.721466,0 226.721466,0 C229.742111,-0.000004 232.63913,1.198425 234.77507,3.331649 C236.911011,5.464871 238.110947,8.358144 238.110947,11.374978 C238.110947,11.374978 238.110947,321.224487 238.110947,321.224487 C238.110947,324.241333 236.911011,327.134613 234.77507,329.267822 C232.63913,331.401062 229.742111,332.599457 226.721466,332.599457 C226.721466,332.599457 11.389488,332.599457 11.389488,332.599457 C8.368808,332.599457 5.471859,331.401062 3.335915,329.267822 C1.199971,327.134613 0,324.241333 0,321.224487 C0,321.224487 0,11.374978 0,11.374978 C0,8.358144 1.199971,5.464871 3.335915,3.331649 C5.471859,1.198425 8.368808,-0.000004 11.389488,0 C11.389488,0 11.389488,0 11.389488,0 C11.389488,0 11.389488,0 11.389488,0 Z" fill="#ffffff"/>
	</g>
	<g>
		<path d="M193.684387,98.63404C193.684387,98.63404 184.192301,85.024297 171.387997,69.022881 C162.821792,58.31484 155.973757,46.720013 155.336743,36.732873 C154.606728,25.324244 161.519152,13.878766 174.033773,13.324012 C186.541104,12.769648 191.617584,22.120523 193.684387,29.830052 C195.751158,22.120523 200.828061,12.769648 213.335001,13.324012 C225.84959,13.878766 232.762469,25.324244 232.031998,36.732873 C231.395408,46.720013 224.546982,58.31484 215.9812,69.022881 C203.176441,85.024297 193.684387,98.63404 193.684387,98.63404 C193.684387,98.63404 193.684387,98.63404 193.684387,98.63404 Z" fill="#c8102e"/>
	</g>
	<g>
		<path d="M119.2495,316.158502C119.2495,316.158502 99.339892,283.495064 72.482851,245.091577 C54.515873,219.392247 40.151669,191.564671 38.816191,167.595473 C37.284456,140.214888 51.783492,112.745695 78.032946,111.414376 C104.266628,110.083806 114.91498,132.52603 119.2495,151.028821 C123.584447,132.52603 134.232799,110.083806 160.466479,111.414376 C186.715945,112.745695 201.214981,140.214888 199.683238,167.595473 C198.347768,191.564671 183.983564,219.392247 166.016578,245.091577 C139.159534,283.495064 119.2495,316.158502 119.2495,316.158502 C119.2495,316.158502 119.2495,316.158502 119.2495,316.158502 Z" fill="#c8102e"/>
	</g>
	<g>
		<path d="M19.725469,96.933304C19.725469,96.933304 19.725469,88.117304 19.725469,88.117304 C19.725469,88.117304 40.721469,88.117304 40.721469,88.117304 C40.721469,88.117304 40.721469,27.217304 40.721469,27.217304 C40.721469,27.217304 20.885469,31.045304 20.885469,31.045304 C20.885469,31.045304 20.885469,23.621304 20.885469,23.621304 C20.885469,23.621304 43.969469,15.733304 43.969469,15.733304 C43.969469,15.733304 50.465469,15.733304 50.465469,15.733304 C50.465469,15.733304 50.465469,88.117304 50.465469,88.117304 C50.465469,88.117304 72.621469,88.117304 72.621469,88.117304 C72.621469,88.117304 72.621469,96.933304 72.621469,96.933304 C72.621469,96.933304 19.725469,96.933304 19.725469,96.933304 C19.725469,96.933304 19.725469,96.933304 19.725469,96.933304 ZM102.085469,98.325304Q92.921469,98.325304 85.903469,93.221304 Q78.885469,88.117304 74.999469,78.721304 Q71.113469,69.325304 71.113469,56.333304 Q71.113469,43.341304 74.999469,33.945304 Q78.885469,24.549304 85.903469,19.445304 Q92.921469,14.341304 102.085469,14.341304 Q111.365469,14.341304 118.325469,19.445304 Q125.285469,24.549304 129.171469,33.945304 Q133.057469,43.341304 133.057469,56.333304 Q133.057469,69.325304 129.171469,78.721304 Q125.285469,88.117304 118.325469,93.221304 Q111.365469,98.325304 102.085469,98.325304 Q102.085469,98.325304 102.085469,98.325304 ZM81.089469,56.333304Q81.089469,64.221304 82.771469,70.543304 Q84.453469,76.865304 87.469469,81.157304 Q109.973469,25.361304 109.973469,25.361304 Q106.377469,23.389304 102.085469,23.389304 Q95.937469,23.389304 91.181469,27.391304 Q86.425469,31.393304 83.757469,38.759304 Q81.089469,46.125304 81.089469,56.333304 Q81.089469,56.333304 81.089469,56.333304 ZM102.085469,89.393304Q108.233469,89.393304 112.989469,85.391304 Q117.745469,81.389304 120.413469,73.965304 Q123.081469,66.541304 123.081469,56.333304 Q123.081469,48.445304 121.399469,42.123304 Q119.717469,35.801304 116.701469,31.509304 Q94.081469,87.421304 94.081469,87.421304 Q97.793469,89.393304 102.085469,89.393304 Q102.085469,89.393304 102.085469,89.393304 Z" fill="#c8102e"/>
	</g>
</g></g></svg>
