<svg xmlns="http://www.w3.org/2000/svg" viewBox="0 0 238 332" width="238" height="332"><defs><clipPath id="artboard-134747115862139985"><rect x="0" y="0" width="238" height="332"/></clipPath></defs><g>
<rect fill="#ffffff" fill-opacity="0" x="0" y="0" width="238" height="332"/>
<g clip-path="url(#artboard-134747115862139985)">
	<g>
		<path d="M11.389488,0C11.389488,0 226.721466,0 226.721466,0 C229.742111,-0.000004 232.63913,1.198425 234.77507,3.331649 C236.911011,5.464871 238.110947,8.358144 238.110947,11.374978 C238.110947,11.374978 238.110947,321.224487 238.110947,321.224487 C238.110947,324.241333 236.911011,327.134613 234.77507,329.267822 C232.63913,331.401062 229.742111,332.599457 226.721466,332.599457 C226.721466,332.599457 11.389488,332.599457 11.389488,332.599457 C8.368808,332.599457 5.471859,331.401062 3.335915,329.267822 C1.199971,327.134613 0,324.241333 0,321.224487 C0,321.224487 0,11.374978 0,11.374978 C0,8.358144 1.199971,5.464871 3.335915,3.331649 C5.471859,1.198425 8.368808,-0.000004 11.389488,0 C11.389488,0 11.389488,0 11.389488,0 C11.389488,0 11.389488,0 11.389488,0 Z" fill="#ffffff"/>
	</g>
	<g>
		<path d="M193.684387,98.63404C193.684387,98.63404 184.192301,85.024297 171.387997,69.022881 C162.821792,58.31484 155.973757,46.720013 155.336743,36.732873 C154.606728,25.324244 161.519152,13.878766 174.033773,13.324012 C186.541104,12.769648 191.617584,22.120523 193.684387,29.830052 C195.751158,22.120523 200.828061,12.769648 213.335001,13.324012 C225.84959,13.878766 232.762469,25.324244 232.031998,36.732873 C231.395408,46.720013 224.546982,58.31484 215.9812,69.022881 C203.176441,85.024297 193.684387,98.63404 193.684387,98.63404 C193.684387,98.63404 193.684387,98.63404 193.684387,98.63404 Z" fill="#c8102e"/>
	</g>
	<g>
		<path d="M119.2495,316.158502C119.2495,316.158502 99.339892,283.495064 72.482851,245.091577 C54.515873,219.392247 40.151669,191.564671 38.816191,167.595473 C37.284456,140.214888 51.783492,112.745695 78.032946,111.414376 C104.266628,110.083806 114.91498,132.52603 119.2495,151.028821 C123.584447,132.52603 134.232799,110.083806 160.466479,111.414376 C186.715945,112.745695 201.214981,140.214888 199.683238,167.595473 C198.347768,191.564671 183.983564,219.392247 166.016578,245.091577 C139.159534,283.495064 119.2495,316.158502 119.2495,316.158502 C119.2495,316.158502 119.2495,316.158502 119.2495,316.158502 Z" fill="#c8102e"/>
	</g>
	<g>
		<path d="M20.189469,96.933304C20.189469,96.933304 20.189469,89.277304 20.189469,89.277304 Q32.717469,79.301304 42.055469,70.949304 Q51.393469,62.597304 56.497469,54.825304 Q61.601469,47.053304 61.601469,38.933304 Q61.601469,31.625304 57.483469,27.391304 Q53.365469,23.157304 46.405469,23.157304 Q41.069469,23.157304 37.357469,25.477304 Q33.645469,27.797304 31.789469,31.625304 Q29.933469,35.453304 29.933469,39.861304 Q20.305469,39.861304 20.305469,39.861304 Q20.421469,31.857304 23.843469,26.115304 Q27.265469,20.373304 33.123469,17.357304 Q38.981469,14.341304 46.405469,14.341304 Q58.353469,14.341304 64.965469,20.953304 Q71.577469,27.565304 71.577469,38.701304 Q71.577469,46.009304 68.445469,52.679304 Q65.313469,59.349304 60.093469,65.497304 Q54.873469,71.645304 48.377469,77.329304 Q41.881469,83.013304 35.269469,88.233304 Q73.781469,88.233304 73.781469,88.233304 C73.781469,88.233304 73.781469,96.933304 73.781469,96.933304 C73.781469,96.933304 20.189469,96.933304 20.189469,96.933304 C20.189469,96.933304 20.189469,96.933304 20.189469,96.933304 Z" fill="#c8102e"/>
	</g>
</g></g></svg>
