<svg xmlns="http://www.w3.org/2000/svg" viewBox="0 0 238 332" width="238" height="332"><defs><clipPath id="artboard-134747115862139985"><rect x="0" y="0" width="238" height="332"/></clipPath></defs><g>
<rect fill="#ffffff" fill-opacity="0" x="0" y="0" width="238" height="332"/>
<g clip-path="url(#artboard-134747115862139985)">
	<g>
		<path d="M11.389488,0C11.389488,0 226.721466,0 226.721466,0 C229.742111,-0.000004 232.63913,1.198425 234.77507,3.331649 C236.911011,5.464871 238.110947,8.358144 238.110947,11.374978 C238.110947,11.374978 238.110947,321.224487 238.110947,321.224487 C238.110947,324.241333 236.911011,327.134613 234.77507,329.267822 C232.63913,331.401062 229.742111,332.599457 226.721466,332.599457 C226.721466,332.599457 11.389488,332.599457 11.389488,332.599457 C8.368808,332.599457 5.471859,331.401062 3.335915,329.267822 C1.199971,327.134613 0,324.241333 0,321.224487 C0,321.224487 0,11.374978 0,11.374978 C0,8.358144 1.199971,5.464871 3.335915,3.331649 C5.471859,1.198425 8.368808,-0.000004 11.389488,0 C11.389488,0 11.389488,0 11.389488,0 C11.389488,0 11.389488,0 11.389488,0 Z" fill="#ffffff"/>
	</g>
	<g>
		<path d="M193.684387,98.63404C193.684387,98.63404 184.192301,85.024297 171.387997,69.022881 C162.821792,58.31484 155.973757,46.720013 155.336743,36.732873 C154.606728,25.324244 161.519152,13.878766 174.033773,13.324012 C186.541104,12.769648 191.617584,22.120523 193.684387,29.830052 C195.751158,22.120523 200.828061,12.769648 213.335001,13.324012 C225.84959,13.878766 232.762469,25.324244 232.031998,36.732873 C231.395408,46.720013 224.546982,58.31484 215.9812,69.022881 C203.176441,85.024297 193.684387,98.63404 193.684387,98.63404 C193.684387,98.63404 193.684387,98.63404 193.684387,98.63404 Z" fill="#c8102e"/>
	</g>
	<g>
		<path d="M119.2495,316.158502C119.2495,316.158502 99.339892,283.495064 72.482851,245.091577 C54.515873,219.392247 40.151669,191.564671 38.816191,167.595473 C37.284456,140.214888 51.783492,112.745695 78.032946,111.414376 C104.266628,110.083806 114.91498,132.52603 119.2495,151.028821 C123.584447,132.52603 134.232799,110.083806 160.466479,111.414376 C186.715945,112.745695 201.214981,140.214888 199.683238,167.595473 C198.347768,191.564671 183.983564,219.392247 166.016578,245.091577 C139.159534,283.495064 119.2495,316.158502 119.2495,316.158502 C119.2495,316.158502 119.2495,316.158502 119.2495,316.158502 Z" fill="#c8102e"/>
	</g>
	<g>
		<path d="M46.405469,98.325304Q38.053469,98.325304 32.021469,95.193304 Q25.989469,92.061304 22.509469,86.725304 Q19.029469,81.389304 18.333469,74.545304 Q28.309469,74.545304 28.309469,74.545304 Q29.353469,81.157304 34.225469,85.275304 Q39.097469,89.393304 46.521469,89.393304 Q55.221469,89.393304 60.209469,83.767304 Q65.197469,78.141304 65.197469,69.557304 Q65.197469,60.509304 60.093469,55.347304 Q54.989469,50.185304 46.869469,50.185304 Q40.373469,50.185304 35.791469,53.143304 Q31.209469,56.101304 28.425469,60.625304 Q19.145469,60.625304 19.145469,60.625304 C19.145469,60.625304 26.105469,15.733304 26.105469,15.733304 C26.105469,15.733304 69.489469,15.733304 69.489469,15.733304 C69.489469,15.733304 69.489469,24.665304 69.489469,24.665304 C69.489469,24.665304 33.761469,24.665304 33.761469,24.665304 C33.761469,24.665304 29.469469,48.793304 29.469469,48.793304 C29.469469,48.793304 30.049469,48.793304 30.049469,48.793304 Q32.717469,45.893304 37.299469,43.689304 Q41.881469,41.485304 47.913469,41.485304 Q55.917469,41.485304 61.891469,44.907304 Q67.865469,48.329304 71.229469,54.651304 Q74.593469,60.973304 74.593469,69.441304 Q74.593469,77.329304 71.287469,83.883304 Q67.981469,90.437304 61.659469,94.381304 Q55.337469,98.325304 46.405469,98.325304 Q46.405469,98.325304 46.405469,98.325304 Z" fill="#c8102e"/>
	</g>
</g></g></svg>
