<svg xmlns="http://www.w3.org/2000/svg" viewBox="0 0 238 332" width="238" height="332"><defs><clipPath id="artboard-134747115862139985"><rect x="0" y="0" width="238" height="332"/></clipPath></defs><g>
<rect fill="#ffffff" fill-opacity="0" x="0" y="0" width="238" height="332"/>
<g clip-path="url(#artboard-134747115862139985)">
	<g>
		<path d="M11.389488,0C11.389488,0 226.721466,0 226.721466,0 C229.742111,-0.000004 232.63913,1.198425 234.77507,3.331649 C236.911011,5.464871 238.110947,8.358144 238.110947,11.374978 C238.110947,11.374978 238.110947,321.224487 238.110947,321.224487 C238.110947,324.241333 236.911011,327.134613 234.77507,329.267822 C232.63913,331.401062 229.742111,332.599457 226.721466,332.599457 C226.721466,332.599457 11.389488,332.599457 11.389488,332.599457 C8.368808,332.599457 5.471859,331.401062 3.335915,329.267822 C1.199971,327.134613 0,324.241333 0,321.224487 C0,321.224487 0,11.374978 0,11.374978 C0,8.358144 1.199971,5.464871 3.335915,3.331649 C5.471859,1.198425 8.368808,-0.000004 11.389488,0 C11.389488,0 11.389488,0 11.389488,0 C11.389488,0 11.389488,0 11.389488,0 Z" fill="#ffffff"/>
	</g>
	<g>
		<path d="M193.684387,98.63404C193.684387,98.63404 184.192301,85.024297 171.387997,69.022881 C162.821792,58.31484 155.973757,46.720013 155.336743,36.732873 C154.606728,25.324244 161.519152,13.878766 174.033773,13.324012 C186.541104,12.769648 191.617584,22.120523 193.684387,29.830052 C195.751158,22.120523 200.828061,12.769648 213.335001,13.324012 C225.84959,13.878766 232.762469,25.324244 232.031998,36.732873 C231.395408,46.720013 224.546982,58.31484 215.9812,69.022881 C203.176441,85.024297 193.684387,98.63404 193.684387,98.63404 C193.684387,98.63404 193.684387,98.63404 193.684387,98.63404 Z" fill="#c8102e"/>
	</g>
	<g>
		<path d="M119.2495,316.158502C119.2495,316.158502 99.339892,283.495064 72.482851,245.091577 C54.515873,219.392247 40.151669,191.564671 38.816191,167.595473 C37.284456,140.214888 51.783492,112.745695 78.032946,111.414376 C104.266628,110.083806 114.91498,132.52603 119.2495,151.028821 C123.584447,132.52603 134.232799,110.083806 160.466479,111.414376 C186.715945,112.745695 201.214981,140.214888 199.683238,167.595473 C198.347768,191.564671 183.983564,219.392247 166.016578,245.091577 C139.159534,283.495064 119.2495,316.158502 119.2495,316.158502 C119.2495,316.158502 119.2495,316.158502 119.2495,316.158502 Z" fill="#c8102e"/>
	</g>
	<g>
		<path d="M45.013469,98.325304Q37.589469,98.325304 31.847469,95.367304 Q26.105469,92.409304 22.683469,87.363304 Q19.261469,82.317304 18.681469,76.053304 Q28.077469,76.053304 28.077469,76.053304 Q29.121469,82.201304 33.587469,85.855304 Q38.053469,89.509304 45.013469,89.509304 Q54.177469,89.509304 59.977469,81.215304 Q65.777469,72.921304 66.589469,55.289304 Q65.893469,55.289304 65.893469,55.289304 Q62.761469,60.741304 57.889469,64.221304 Q53.017469,67.701304 44.201469,67.701304 Q36.893469,67.701304 31.093469,64.337304 Q25.293469,60.973304 21.871469,55.057304 Q18.449469,49.141304 18.449469,41.601304 Q18.449469,34.177304 21.755469,27.971304 Q25.061469,21.765304 31.151469,18.053304 Q37.241469,14.341304 45.361469,14.341304 Q60.673469,14.341304 68.213469,24.781304 Q75.753469,35.221304 75.753469,53.201304 Q75.753469,66.541304 72.157469,76.691304 Q68.561469,86.841304 61.717469,92.583304 Q54.873469,98.325304 45.013469,98.325304 Q45.013469,98.325304 45.013469,98.325304 ZM46.057469,58.885304Q54.177469,58.885304 59.049469,53.781304 Q63.921469,48.677304 63.921469,41.021304 Q63.921469,33.365304 59.049469,28.261304 Q54.177469,23.157304 46.057469,23.157304 Q37.937469,23.157304 33.123469,28.261304 Q28.309469,33.365304 28.309469,41.021304 Q28.309469,48.793304 33.123469,53.839304 Q37.937469,58.885304 46.057469,58.885304 Q46.057469,58.885304 46.057469,58.885304 Z" fill="#c8102e"/>
	</g>
</g></g></svg>
