<svg xmlns="http://www.w3.org/2000/svg" viewBox="0 0 238 332" width="238" height="332"><defs><clipPath id="artboard-134747115862139985"><rect x="0" y="0" width="238" height="332"/></clipPath></defs><g>
<rect fill="#ffffff" fill-opacity="0" x="0" y="0" width="238" height="332"/>
<g clip-path="url(#artboard-134747115862139985)">
	<g>
		<path d="M11.389488,0C11.389488,0 226.721466,0 226.721466,0 C229.742111,-0.000004 232.63913,1.198425 234.77507,3.331649 C236.911011,5.464871 238.110947,8.358144 238.110947,11.374978 C238.110947,11.374978 238.110947,321.224487 238.110947,321.224487 C238.110947,324.241333 236.911011,327.134613 234.77507,329.267822 C232.63913,331.401062 229.742111,332.599457 226.721466,332.599457 C226.721466,332.599457 11.389488,332.599457 11.389488,332.599457 C8.368808,332.599457 5.471859,331.401062 3.335915,329.267822 C1.199971,327.134613 0,324.241333 0,321.224487 C0,321.224487 0,11.374978 0,11.374978 C0,8.358144 1.199971,5.464871 3.335915,3.331649 C5.471859,1.198425 8.368808,-0.000004 11.389488,0 C11.389488,0 11.389488,0 11.389488,0 C11.389488,0 11.389488,0 11.389488,0 Z" fill="#ffffff"/>
	</g>
	<g>
		<path d="M193.684387,98.63404C193.684387,98.63404 184.192301,85.024297 171.387997,69.022881 C162.821792,58.31484 155.973757,46.720013 155.336743,36.732873 C154.606728,25.324244 161.519152,13.878766 174.033773,13.324012 C186.541104,12.769648 191.617584,22.120523 193.684387,29.830052 C195.751158,22.120523 200.828061,12.769648 213.335001,13.324012 C225.84959,13.878766 232.762469,25.324244 232.031998,36.732873 C231.395408,46.720013 224.546982,58.31484 215.9812,69.022881 C203.176441,85.024297 193.684387,98.63404 193.684387,98.63404 C193.684387,98.63404 193.684387,98.63404 193.684387,98.63404 Z" fill="#c8102e"/>
	</g>
	<g>
		<path d="M119.2495,316.158502C119.2495,316.158502 99.339892,283.495064 72.482851,245.091577 C54.515873,219.392247 40.151669,191.564671 38.816191,167.595473 C37.284456,140.214888 51.783492,112.745695 78.032946,111.414376 C104.266628,110.083806 114.91498,132.52603 119.2495,151.028821 C123.584447,132.52603 134.232799,110.083806 160.466479,111.414376 C186.715945,112.745695 201.214981,140.214888 199.683238,167.595473 C198.347768,191.564671 183.983564,219.392247 166.016578,245.091577 C139.159534,283.495064 119.2495,316.158502 119.2495,316.158502 C119.2495,316.158502 119.2495,316.158502 119.2495,316.158502 Z" fill="#c8102e"/>
	</g>
	<g>
		<path d="M48.029469,98.325304Q37.357469,98.325304 30.687469,93.163304 Q24.017469,88.001304 20.827469,79.243304 Q17.637469,70.485304 17.637469,59.465304 Q17.637469,46.125304 21.349469,35.975304 Q25.061469,25.825304 32.079469,20.083304 Q39.097469,14.341304 48.957469,14.341304 Q56.729469,14.341304 62.239469,17.299304 Q67.749469,20.257304 70.939469,25.303304 Q74.129469,30.349304 74.709469,36.613304 Q65.545469,36.613304 65.545469,36.613304 Q64.385469,30.465304 59.977469,26.811304 Q55.569469,23.157304 48.957469,23.157304 Q43.157469,23.157304 38.343469,26.811304 Q33.529469,30.465304 30.455469,38.063304 Q27.381469,45.661304 26.917469,57.377304 Q27.497469,57.377304 27.497469,57.377304 Q30.165469,52.389304 35.733469,48.677304 Q41.301469,44.965304 49.189469,44.965304 Q56.497469,44.965304 62.297469,48.329304 Q68.097469,51.693304 71.519469,57.609304 Q74.941469,63.525304 74.941469,71.065304 Q74.941469,78.489304 71.635469,84.695304 Q68.329469,90.901304 62.239469,94.613304 Q56.149469,98.325304 48.029469,98.325304 Q48.029469,98.325304 48.029469,98.325304 ZM47.333469,89.509304Q55.337469,89.509304 60.209469,84.405304 Q65.081469,79.301304 65.081469,71.645304 Q65.081469,63.873304 60.209469,58.827304 Q55.337469,53.781304 47.333469,53.781304 Q41.997469,53.781304 37.995469,56.101304 Q33.993469,58.421304 31.731469,62.481304 Q29.469469,66.541304 29.469469,71.645304 Q29.469469,76.749304 31.731469,80.809304 Q33.993469,84.869304 37.995469,87.189304 Q41.997469,89.509304 47.333469,89.509304 Q47.333469,89.509304 47.333469,89.509304 Z" fill="#c8102e"/>
	</g>
</g></g></svg>
