<svg xmlns="http://www.w3.org/2000/svg" viewBox="0 0 238 332" width="238" height="332"><defs><clipPath id="artboard-134747115862139985"><rect x="0" y="0" width="238" height="332"/></clipPath></defs><g>
<rect fill="#ffffff" fill-opacity="0" x="0" y="0" width="238" height="332"/>
<g clip-path="url(#artboard-134747115862139985)">
	<g>
		<path d="M11.389488,0C11.389488,0 226.721466,0 226.721466,0 C229.742111,-0.000004 232.63913,1.198425 234.77507,3.331649 C236.911011,5.464871 238.110947,8.358144 238.110947,11.374978 C238.110947,11.374978 238.110947,321.224487 238.110947,321.224487 C238.110947,324.241333 236.911011,327.134613 234.77507,329.267822 C232.63913,331.401062 229.742111,332.599457 226.721466,332.599457 C226.721466,332.599457 11.389488,332.599457 11.389488,332.599457 C8.368808,332.599457 5.471859,331.401062 3.335915,329.267822 C1.199971,327.134613 0,324.241333 0,321.224487 C0,321.224487 0,11.374978 0,11.374978 C0,8.358144 1.199971,5.464871 3.335915,3.331649 C5.471859,1.198425 8.368808,-0.000004 11.389488,0 C11.389488,0 11.389488,0 11.389488,0 C11.389488,0 11.389488,0 11.389488,0 Z" fill="#ffffff"/>
	</g>
	<g>
		<path d="M193.684387,98.63404C193.684387,98.63404 184.192301,85.024297 171.387997,69.022881 C162.821792,58.31484 155.973757,46.720013 155.336743,36.732873 C154.606728,25.324244 161.519152,13.878766 174.033773,13.324012 C186.541104,12.769648 191.617584,22.120523 193.684387,29.830052 C195.751158,22.120523 200.828061,12.769648 213.335001,13.324012 C225.84959,13.878766 232.762469,25.324244 232.031998,36.732873 C231.395408,46.720013 224.546982,58.31484 215.9812,69.022881 C203.176441,85.024297 193.684387,98.63404 193.684387,98.63404 C193.684387,98.63404 193.684387,98.63404 193.684387,98.63404 Z" fill="#c8102e"/>
	</g>
	<g>
		<path d="M119.2495,316.158502C119.2495,316.158502 99.339892,283.495064 72.482851,245.091577 C54.515873,219.392247 40.151669,191.564671 38.816191,167.595473 C37.284456,140.214888 51.783492,112.745695 78.032946,111.414376 C104.266628,110.083806 114.91498,132.52603 119.2495,151.028821 C123.584447,132.52603 134.232799,110.083806 160.466479,111.414376 C186.715945,112.745695 201.214981,140.214888 199.683238,167.595473 C198.347768,191.564671 183.983564,219.392247 166.016578,245.091577 C139.159534,283.495064 119.2495,316.158502 119.2495,316.158502 C119.2495,316.158502 119.2495,316.158502 119.2495,316.158502 Z" fill="#c8102e"/>
	</g>
	<g>
		<path d="M46.405469,98.325304Q38.285469,98.325304 32.195469,95.251304 Q26.105469,92.177304 22.625469,86.841304 Q19.145469,81.505304 19.145469,74.661304 Q19.145469,67.005304 23.205469,61.669304 Q27.265469,56.333304 32.601469,54.245304 Q32.601469,53.665304 32.601469,53.665304 Q27.497469,51.229304 24.423469,46.647304 Q21.349469,42.065304 21.349469,35.917304 Q21.349469,30.001304 24.423469,25.071304 Q27.497469,20.141304 33.181469,17.241304 Q38.865469,14.341304 46.405469,14.341304 Q53.829469,14.341304 59.455469,17.241304 Q65.081469,20.141304 68.271469,25.071304 Q71.461469,30.001304 71.461469,35.917304 Q71.461469,42.065304 68.387469,46.647304 Q65.313469,51.229304 60.209469,53.665304 Q60.209469,54.245304 60.209469,54.245304 Q65.545469,56.333304 69.605469,61.669304 Q73.665469,67.005304 73.665469,74.661304 Q73.665469,81.505304 70.185469,86.841304 Q66.705469,92.177304 60.615469,95.251304 Q54.525469,98.325304 46.405469,98.325304 Q46.405469,98.325304 46.405469,98.325304 ZM46.405469,50.069304Q53.597469,50.069304 57.715469,46.299304 Q61.833469,42.529304 61.833469,36.497304 Q61.833469,30.581304 57.715469,26.811304 Q53.597469,23.041304 46.405469,23.041304 Q39.213469,23.041304 35.095469,26.811304 Q30.977469,30.581304 30.977469,36.497304 Q30.977469,42.529304 35.095469,46.299304 Q39.213469,50.069304 46.405469,50.069304 Q46.405469,50.069304 46.405469,50.069304 ZM46.405469,89.509304Q54.177469,89.509304 58.991469,85.507304 Q63.805469,81.505304 63.805469,73.849304 Q63.805469,66.309304 58.991469,62.307304 Q54.177469,58.305304 46.405469,58.305304 Q38.633469,58.305304 33.819469,62.307304 Q29.005469,66.309304 29.005469,73.849304 Q29.005469,81.505304 33.819469,85.507304 Q38.633469,89.509304 46.405469,89.509304 Q46.405469,89.509304 46.405469,89.509304 Z" fill="#c8102e"/>
	</g>
</g></g></svg>
