<svg xmlns="http://www.w3.org/2000/svg" viewBox="0 0 238 332" width="238" height="332"><defs><clipPath id="artboard-394339721629666518"><rect x="0" y="0" width="238" height="332"/></clipPath></defs><g>
<rect fill="#ffffff" fill-opacity="0" x="0" y="0" width="238" height="332"/>
<g clip-path="url(#artboard-394339721629666518)">
	<g>
		<path d="M11.389488,0C11.389488,0 226.721466,0 226.721466,0 C229.742111,-0.000004 232.63913,1.198425 234.77507,3.331649 C236.911011,5.464871 238.110947,8.358144 238.110947,11.374978 C238.110947,11.374978 238.110947,321.224487 238.110947,321.224487 C238.110947,324.241333 236.911011,327.134613 234.77507,329.267822 C232.63913,331.401062 229.742111,332.599457 226.721466,332.599457 C226.721466,332.599457 11.389488,332.599457 11.389488,332.599457 C8.368808,332.599457 5.471859,331.401062 3.335915,329.267822 C1.199971,327.134613 0,324.241333 0,321.224487 C0,321.224487 0,11.374978 0,11.374978 C0,8.358144 1.199971,5.464871 3.335915,3.331649 C5.471859,1.198425 8.368808,-0.000004 11.389488,0 C11.389488,0 11.389488,0 11.389488,0 C11.389488,0 11.389488,0 11.389488,0 Z" fill="#ffffff"/>
	</g>
	<g>
		<path d="M119.500076,112.699311C80.135632,168.836592 38.016232,201.141509 37.316491,244.937998 C37.081854,259.119943 44.749456,283.224704 68.766587,287.83852 C84.348536,290.818087 105.801857,278.20659 106.249905,252.584896 C106.181546,247.483969 111.651094,247.616522 111.599791,254.606127 C110.865935,274.816215 104.46852,298.346235 93.716533,317.499939 C110.905649,317.499939 128.094373,317.499939 145.283619,317.499939 C134.531502,298.346235 128.134087,274.816215 127.400231,254.606127 C127.349059,247.616522 132.818476,247.483969 132.750247,252.584896 C133.198165,278.20659 154.651486,290.818087 170.233435,287.83852 C194.250566,283.224704 201.918168,259.119943 201.683532,244.937998 C200.98379,201.141509 158.86439,168.836592 119.500076,112.699311 C119.500076,112.699311 119.500076,112.699311 119.500076,112.699311 Z" fill="#000000"/>
	</g>
	<g>
		<path d="M194.184782,13.65556C175.792798,37.046127 156.113962,50.506455 155.787138,68.755078 C155.6762,74.664211 159.259805,84.707731 170.481193,86.630263 C177.761424,87.871673 187.784762,82.61697 187.994268,71.941286 C187.951559,69.815759 190.517583,69.871097 190.493624,72.783346 C190.152347,81.204335 187.161713,91.008532 182.13813,98.989156 C190.169405,98.989156 198.200159,98.989156 206.231303,98.989156 C201.20772,91.008532 198.218388,81.204335 197.875809,72.783346 C197.83323,69.871097 200.407197,69.815759 200.375295,71.941286 C200.58428,82.61697 210.608009,87.871673 217.88824,86.630263 C229.109628,84.707731 232.691931,74.664211 232.582295,68.755078 C232.253779,50.506455 212.576244,37.046127 194.184782,13.65556 C194.184782,13.65556 194.184782,13.65556 194.184782,13.65556 Z" fill="#000000"/>
	</g>
	<g>
		<path d="M45.013469,98.325304Q37.589469,98.325304 31.847469,95.367304 Q26.105469,92.409304 22.683469,87.363304 Q19.261469,82.317304 18.681469,76.053304 Q28.077469,76.053304 28.077469,76.053304 Q29.121469,82.201304 33.587469,85.855304 Q38.053469,89.509304 45.013469,89.509304 Q54.177469,89.509304 59.977469,81.215304 Q65.777469,72.921304 66.589469,55.289304 Q65.893469,55.289304 65.893469,55.289304 Q62.761469,60.741304 57.889469,64.221304 Q53.017469,67.701304 44.201469,67.701304 Q36.893469,67.701304 31.093469,64.337304 Q25.293469,60.973304 21.871469,55.057304 Q18.449469,49.141304 18.449469,41.601304 Q18.449469,34.177304 21.755469,27.971304 Q25.061469,21.765304 31.151469,18.053304 Q37.241469,14.341304 45.361469,14.341304 Q60.673469,14.341304 68.213469,24.781304 Q75.753469,35.221304 75.753469,53.201304 Q75.753469,66.541304 72.157469,76.691304 Q68.561469,86.841304 61.717469,92.583304 Q54.873469,98.325304 45.013469,98.325304 Q45.013469,98.325304 45.013469,98.325304 ZM46.057469,58.885304Q54.177469,58.885304 59.049469,53.781304 Q63.921469,48.677304 63.921469,41.021304 Q63.921469,33.365304 59.049469,28.261304 Q54.177469,23.157304 46.057469,23.157304 Q37.937469,23.157304 33.123469,28.261304 Q28.309469,33.365304 28.309469,41.021304 Q28.309469,48.793304 33.123469,53.839304 Q37.937469,58.885304 46.057469,58.885304 Q46.057469,58.885304 46.057469,58.885304 Z" fill="#000000"/>
	</g>
</g></g></svg>
