<svg xmlns="http://www.w3.org/2000/svg" viewBox="0 0 238 332" width="238" height="332"><defs><clipPath id="artboard-394339721629666518"><rect x="0" y="0" width="238" height="332"/></clipPath></defs><g>
<rect fill="#ffffff" fill-opacity="0" x="0" y="0" width="238" height="332"/>
<g clip-path="url(#artboard-394339721629666518)">
	<g>
		<path d="M11.389488,0C11.389488,0 226.721466,0 226.721466,0 C229.742111,-0.000004 232.63913,1.198425 234.77507,3.331649 C236.911011,5.464871 238.110947,8.358144 238.110947,11.374978 C238.110947,11.374978 238.110947,321.224487 238.110947,321.224487 C238.110947,324.241333 236.911011,327.134613 234.77507,329.267822 C232.63913,331.401062 229.742111,332.599457 226.721466,332.599457 C226.721466,332.599457 11.389488,332.599457 11.389488,332.599457 C8.368808,332.599457 5.471859,331.401062 3.335915,329.267822 C1.199971,327.134613 0,324.241333 0,321.224487 C0,321.224487 0,11.374978 0,11.374978 C0,8.358144 1.199971,5.464871 3.335915,3.331649 C5.471859,1.198425 8.368808,-0.000004 11.389488,0 C11.389488,0 11.389488,0 11.389488,0 C11.389488,0 11.389488,0 11.389488,0 Z" fill="#ffffff"/>
	</g>
	<g>
		<path d="M119.500076,112.699311C80.135632,168.836592 38.016232,201.141509 37.316491,244.937998 C37.081854,259.119943 44.749456,283.224704 68.766587,287.83852 C84.348536,290.818087 105.801857,278.20659 106.249905,252.584896 C106.181546,247.483969 111.651094,247.616522 111.599791,254.606127 C110.865935,274.816215 104.46852,298.346235 93.716533,317.499939 C110.905649,317.499939 128.094373,317.499939 145.283619,317.499939 C134.531502,298.346235 128.134087,274.816215 127.400231,254.606127 C127.349059,247.616522 132.818476,247.483969 132.750247,252.584896 C133.198165,278.20659 154.651486,290.818087 170.233435,287.83852 C194.250566,283.224704 201.918168,259.119943 201.683532,244.937998 C200.98379,201.141509 158.86439,168.836592 119.500076,112.699311 C119.500076,112.699311 119.500076,112.699311 119.500076,112.699311 Z" fill="#000000"/>
	</g>
	<g>
		<path d="M194.184782,13.65556C175.792798,37.046127 156.113962,50.506455 155.787138,68.755078 C155.6762,74.664211 159.259805,84.707731 170.481193,86.630263 C177.761424,87.871673 187.784762,82.61697 187.994268,71.941286 C187.951559,69.815759 190.517583,69.871097 190.493624,72.783346 C190.152347,81.204335 187.161713,91.008532 182.13813,98.989156 C190.169405,98.989156 198.200159,98.989156 206.231303,98.989156 C201.20772,91.008532 198.218388,81.204335 197.875809,72.783346 C197.83323,69.871097 200.407197,69.815759 200.375295,71.941286 C200.58428,82.61697 210.608009,87.871673 217.88824,86.630263 C229.109628,84.707731 232.691931,74.664211 232.582295,68.755078 C232.253779,50.506455 212.576244,37.046127 194.184782,13.65556 C194.184782,13.65556 194.184782,13.65556 194.184782,13.65556 Z" fill="#000000"/>
	</g>
	<g>
		<path d="M47.449469,98.325304Q39.445469,98.325304 33.123469,95.367304 Q26.801469,92.409304 22.973469,86.725304 Q19.145469,81.041304 18.797469,72.805304 Q28.773469,72.805304 28.773469,72.805304 Q29.005469,79.765304 33.877469,84.579304 Q38.749469,89.393304 47.449469,89.393304 Q55.917469,89.393304 60.557469,85.043304 Q65.197469,80.693304 65.197469,73.153304 Q65.197469,67.933304 62.529469,64.511304 Q59.861469,61.089304 55.395469,59.407304 Q50.929469,57.725304 45.477469,57.725304 Q38.401469,57.725304 38.401469,57.725304 C38.401469,57.725304 38.401469,48.909304 38.401469,48.909304 C38.401469,48.909304 44.549469,48.909304 44.549469,48.909304 Q52.437469,48.909304 57.135469,45.545304 Q61.833469,42.181304 61.833469,35.685304 Q61.833469,30.233304 58.063469,26.753304 Q54.293469,23.273304 47.333469,23.273304 Q40.605469,23.273304 36.429469,27.043304 Q32.253469,30.813304 31.673469,36.845304 Q21.929469,36.845304 21.929469,36.845304 Q22.161469,30.233304 25.409469,25.187304 Q28.657469,20.141304 34.283469,17.241304 Q39.909469,14.341304 47.333469,14.341304 Q55.337469,14.341304 60.731469,17.125304 Q66.125469,19.909304 68.909469,24.607304 Q71.693469,29.305304 71.693469,34.989304 Q71.693469,41.021304 67.981469,45.603304 Q64.269469,50.185304 59.165469,52.041304 Q59.165469,52.737304 59.165469,52.737304 Q66.009469,54.825304 70.533469,59.813304 Q75.057469,64.801304 75.057469,73.153304 Q75.057469,80.229304 71.751469,85.913304 Q68.445469,91.597304 62.239469,94.961304 Q56.033469,98.325304 47.449469,98.325304 Q47.449469,98.325304 47.449469,98.325304 Z" fill="#000000"/>
	</g>
</g></g></svg>
