<svg xmlns="http://www.w3.org/2000/svg" viewBox="0 0 238 332" width="238" height="332"><defs><clipPath id="artboard-394339721629666518"><rect x="0" y="0" width="238" height="332"/></clipPath></defs><g>
<rect fill="#ffffff" fill-opacity="0" x="0" y="0" width="238" height="332"/>
<g clip-path="url(#artboard-394339721629666518)">
	<g>
		<path d="M11.389488,0C11.389488,0 226.721466,0 226.721466,0 C229.742111,-0.000004 232.63913,1.198425 234.77507,3.331649 C236.911011,5.464871 238.110947,8.358144 238.110947,11.374978 C238.110947,11.374978 238.110947,321.224487 238.110947,321.224487 C238.110947,324.241333 236.911011,327.134613 234.77507,329.267822 C232.63913,331.401062 229.742111,332.599457 226.721466,332.599457 C226.721466,332.599457 11.389488,332.599457 11.389488,332.599457 C8.368808,332.599457 5.471859,331.401062 3.335915,329.267822 C1.199971,327.134613 0,324.241333 0,321.224487 C0,321.224487 0,11.374978 0,11.374978 C0,8.358144 1.199971,5.464871 3.335915,3.331649 C5.471859,1.198425 8.368808,-0.000004 11.389488,0 C11.389488,0 11.389488,0 11.389488,0 C11.389488,0 11.389488,0 11.389488,0 Z" fill="#ffffff"/>
	</g>
	<g>
		<path d="M119.500076,112.699311C80.135632,168.836592 38.016232,201.141509 37.316491,244.937998 C37.081854,259.119943 44.749456,283.224704 68.766587,287.83852 C84.348536,290.818087 105.801857,278.20659 106.249905,252.584896 C106.181546,247.483969 111.651094,247.616522 111.599791,254.606127 C110.865935,274.816215 104.46852,298.346235 93.716533,317.499939 C110.905649,317.499939 128.094373,317.499939 145.283619,317.499939 C134.531502,298.346235 128.134087,274.816215 127.400231,254.606127 C127.349059,247.616522 132.818476,247.483969 132.750247,252.584896 C133.198165,278.20659 154.651486,290.818087 170.233435,287.83852 C194.250566,283.224704 201.918168,259.119943 201.683532,244.937998 C200.98379,201.141509 158.86439,168.836592 119.500076,112.699311 C119.500076,112.699311 119.500076,112.699311 119.500076,112.699311 Z" fill="#000000"/>
	</g>
	<g>
		<path d="M194.184782,13.65556C175.792798,37.046127 156.113962,50.506455 155.787138,68.755078 C155.6762,74.664211 159.259805,84.707731 170.481193,86.630263 C177.761424,87.871673 187.784762,82.61697 187.994268,71.941286 C187.951559,69.815759 190.517583,69.871097 190.493624,72.783346 C190.152347,81.204335 187.161713,91.008532 182.13813,98.989156 C190.169405,98.989156 198.200159,98.989156 206.231303,98.989156 C201.20772,91.008532 198.218388,81.204335 197.875809,72.783346 C197.83323,69.871097 200.407197,69.815759 200.375295,71.941286 C200.58428,82.61697 210.608009,87.871673 217.88824,86.630263 C229.109628,84.707731 232.691931,74.664211 232.582295,68.755078 C232.253779,50.506455 212.576244,37.046127 194.184782,13.65556 C194.184782,13.65556 194.184782,13.65556 194.184782,13.65556 Z" fill="#000000"/>
	</g>
	<g>
		<path d="M48.029469,98.325304Q37.357469,98.325304 30.687469,93.163304 Q24.017469,88.001304 20.827469,79.243304 Q17.637469,70.485304 17.637469,59.465304 Q17.637469,46.125304 21.349469,35.975304 Q25.061469,25.825304 32.079469,20.083304 Q39.097469,14.341304 48.957469,14.341304 Q56.729469,14.341304 62.239469,17.299304 Q67.749469,20.257304 70.939469,25.303304 Q74.129469,30.349304 74.709469,36.613304 Q65.545469,36.613304 65.545469,36.613304 Q64.385469,30.465304 59.977469,26.811304 Q55.569469,23.157304 48.957469,23.157304 Q43.157469,23.157304 38.343469,26.811304 Q33.529469,30.465304 30.455469,38.063304 Q27.381469,45.661304 26.917469,57.377304 Q27.497469,57.377304 27.497469,57.377304 Q30.165469,52.389304 35.733469,48.677304 Q41.301469,44.965304 49.189469,44.965304 Q56.497469,44.965304 62.297469,48.329304 Q68.097469,51.693304 71.519469,57.609304 Q74.941469,63.525304 74.941469,71.065304 Q74.941469,78.489304 71.635469,84.695304 Q68.329469,90.901304 62.239469,94.613304 Q56.149469,98.325304 48.029469,98.325304 Q48.029469,98.325304 48.029469,98.325304 ZM47.333469,89.509304Q55.337469,89.509304 60.209469,84.405304 Q65.081469,79.301304 65.081469,71.645304 Q65.081469,63.873304 60.209469,58.827304 Q55.337469,53.781304 47.333469,53.781304 Q41.997469,53.781304 37.995469,56.101304 Q33.993469,58.421304 31.731469,62.481304 Q29.469469,66.541304 29.469469,71.645304 Q29.469469,76.749304 31.731469,80.809304 Q33.993469,84.869304 37.995469,87.189304 Q41.997469,89.509304 47.333469,89.509304 Q47.333469,89.509304 47.333469,89.509304 Z" fill="#000000"/>
	</g>
</g></g></svg>
