<svg xmlns="http://www.w3.org/2000/svg" viewBox="0 0 238 332" width="238" height="332"><defs><clipPath id="artboard-394339721629666518"><rect x="0" y="0" width="238" height="332"/></clipPath></defs><g>
<rect fill="#ffffff" fill-opacity="0" x="0" y="0" width="238" height="332"/>
<g clip-path="url(#artboard-394339721629666518)">
	<g>
		<path d="M11.389488,0C11.389488,0 226.721466,0 226.721466,0 C229.742111,-0.000004 232.63913,1.198425 234.77507,3.331649 C236.911011,5.464871 238.110947,8.358144 238.110947,11.374978 C238.110947,11.374978 238.110947,321.224487 238.110947,321.224487 C238.110947,324.241333 236.911011,327.134613 234.77507,329.267822 C232.63913,331.401062 229.742111,332.599457 226.721466,332.599457 C226.721466,332.599457 11.389488,332.599457 11.389488,332.599457 C8.368808,332.599457 5.471859,331.401062 3.335915,329.267822 C1.199971,327.134613 0,324.241333 0,321.224487 C0,321.224487 0,11.374978 0,11.374978 C0,8.358144 1.199971,5.464871 3.335915,3.331649 C5.471859,1.198425 8.368808,-0.000004 11.389488,0 C11.389488,0 11.389488,0 11.389488,0 C11.389488,0 11.389488,0 11.389488,0 Z" fill="#ffffff"/>
	</g>
	<g>
		<path d="M119.500076,112.699311C80.135632,168.836592 38.016232,201.141509 37.316491,244.937998 C37.081854,259.119943 44.749456,283.224704 68.766587,287.83852 C84.348536,290.818087 105.801857,278.20659 106.249905,252.584896 C106.181546,247.483969 111.651094,247.616522 111.599791,254.606127 C110.865935,274.816215 104.46852,298.346235 93.716533,317.499939 C110.905649,317.499939 128.094373,317.499939 145.283619,317.499939 C134.531502,298.346235 128.134087,274.816215 127.400231,254.606127 C127.349059,247.616522 132.818476,247.483969 132.750247,252.584896 C133.198165,278.20659 154.651486,290.818087 170.233435,287.83852 C194.250566,283.224704 201.918168,259.119943 201.683532,244.937998 C200.98379,201.141509 158.86439,168.836592 119.500076,112.699311 C119.500076,112.699311 119.500076,112.699311 119.500076,112.699311 Z" fill="#000000"/>
	</g>
	<g>
		<path d="M194.184782,13.65556C175.792798,37.046127 156.113962,50.506455 155.787138,68.755078 C155.6762,74.664211 159.259805,84.707731 170.481193,86.630263 C177.761424,87.871673 187.784762,82.61697 187.994268,71.941286 C187.951559,69.815759 190.517583,69.871097 190.493624,72.783346 C190.152347,81.204335 187.161713,91.008532 182.13813,98.989156 C190.169405,98.989156 198.200159,98.989156 206.231303,98.989156 C201.20772,91.008532 198.218388,81.204335 197.875809,72.783346 C197.83323,69.871097 200.407197,69.815759 200.375295,71.941286 C200.58428,82.61697 210.608009,87.871673 217.88824,86.630263 C229.109628,84.707731 232.691931,74.664211 232.582295,68.755078 C232.253779,50.506455 212.576244,37.046127 194.184782,13.65556 C194.184782,13.65556 194.184782,13.65556 194.184782,13.65556 Z" fill="#000000"/>
	</g>
	<g>
		<path d="M46.405469,98.325304Q38.285469,98.325304 32.195469,95.251304 Q26.105469,92.177304 22.625469,86.841304 Q19.145469,81.505304 19.145469,74.661304 Q19.145469,67.005304 23.205469,61.669304 Q27.265469,56.333304 32.601469,54.245304 Q32.601469,53.665304 32.601469,53.665304 Q27.497469,51.229304 24.423469,46.647304 Q21.349469,42.065304 21.349469,35.917304 Q21.349469,30.001304 24.423469,25.071304 Q27.497469,20.141304 33.181469,17.241304 Q38.865469,14.341304 46.405469,14.341304 Q53.829469,14.341304 59.455469,17.241304 Q65.081469,20.141304 68.271469,25.071304 Q71.461469,30.001304 71.461469,35.917304 Q71.461469,42.065304 68.387469,46.647304 Q65.313469,51.229304 60.209469,53.665304 Q60.209469,54.245304 60.209469,54.245304 Q65.545469,56.333304 69.605469,61.669304 Q73.665469,67.005304 73.665469,74.661304 Q73.665469,81.505304 70.185469,86.841304 Q66.705469,92.177304 60.615469,95.251304 Q54.525469,98.325304 46.405469,98.325304 Q46.405469,98.325304 46.405469,98.325304 ZM46.405469,50.069304Q53.597469,50.069304 57.715469,46.299304 Q61.833469,42.529304 61.833469,36.497304 Q61.833469,30.581304 57.715469,26.811304 Q53.597469,23.041304 46.405469,23.041304 Q39.213469,23.041304 35.095469,26.811304 Q30.977469,30.581304 30.977469,36.497304 Q30.977469,42.529304 35.095469,46.299304 Q39.213469,50.069304 46.405469,50.069304 Q46.405469,50.069304 46.405469,50.069304 ZM46.405469,89.509304Q54.177469,89.509304 58.991469,85.507304 Q63.805469,81.505304 63.805469,73.849304 Q63.805469,66.309304 58.991469,62.307304 Q54.177469,58.305304 46.405469,58.305304 Q38.633469,58.305304 33.819469,62.307304 Q29.005469,66.309304 29.005469,73.849304 Q29.005469,81.505304 33.819469,85.507304 Q38.633469,89.509304 46.405469,89.509304 Q46.405469,89.509304 46.405469,89.509304 Z" fill="#000000"/>
	</g>
</g></g></svg>
